<?xml version="1.0" standalone="no"?>
<!DOCTYPE svg PUBLIC "-//W3C//DTD SVG 1.1//EN" "http://www.w3.org/Graphics/SVG/1.1/DTD/svg11.dtd" >
<svg xmlns="http://www.w3.org/2000/svg" xmlns:xlink="http://www.w3.org/1999/xlink" version="1.1">
<metadata>
Created by FontForge 20170731 at Sat Dec  1 07:36:53 2018
 By Aleksey,,,
Copyright (c) 2014 by Aakash Soneri. All rights reserved. |DCNT
</metadata>
<defs>
<font id="AmpleSoftPro-Regular" horiz-adv-x="622" >
  <font-face 
    font-family="AmpleSoft Pro Regular"
    font-weight="400"
    font-stretch="normal"
    units-per-em="1000"
    panose-1="2 0 0 0 0 0 0 0 0 0"
    ascent="768"
    descent="-232"
    x-height="493"
    cap-height="650"
    bbox="-398.182 -262.667 1077 978"
    underline-thickness="50"
    underline-position="-150"
    unicode-range="U+0020-FB02"
  />
<missing-glyph horiz-adv-x="201" 
 />
    <glyph glyph-name=".notdef" horiz-adv-x="201" 
 />
    <glyph glyph-name=".null" horiz-adv-x="0" 
 />
    <glyph glyph-name="nonmarkingreturn" horiz-adv-x="333" 
 />
    <glyph glyph-name="space" unicode=" " horiz-adv-x="268" 
 />
    <glyph glyph-name="exclam" unicode="!" horiz-adv-x="258" 
d="M125 650h11q20 0 26 -6t6 -26v-199q0 -120 -11 -227q-2 -13 -7 -18.5t-17 -5.5h-6q-12 0 -17 5.5t-7 18.5q-10 80 -10 227v199q0 20 6.5 26t25.5 6zM91 8q-15 16 -15 38t15 37q16 16 38 16t37 -16q16 -15 16 -37t-15 -38q-15 -15 -38 -15t-38 15z" />
    <glyph glyph-name="quotedbl" unicode="&#x22;" horiz-adv-x="279" 
d="M174 541v155q0 16 5 21.5t22 5.5h9q16 0 21.5 -5.5t5.5 -21.5v-155q0 -17 -5.5 -22t-21.5 -5h-9q-17 0 -22 5t-5 22zM42 541v155q0 16 5 21.5t22 5.5h8q17 0 22 -5.5t5 -21.5v-155q0 -17 -5 -22t-22 -5h-8q-17 0 -22 5t-5 22z" />
    <glyph glyph-name="numbersign" unicode="#" horiz-adv-x="653" 
d="M332 27l31 130h-157l-32 -130q-4 -16 -11 -21.5t-24 -5.5h-10q-17 0 -21 5.5t0 21.5l31 130h-71q-16 0 -21.5 5.5t-5.5 21.5v6q0 16 5.5 21.5t21.5 5.5h87l54 216h-97q-16 0 -21.5 5.5t-5.5 21.5v6q0 16 5.5 21.5t21.5 5.5h111l33 130q4 16 11 21.5t24 5.5h10
q17 0 21 -5.5t0 -21.5l-32 -130h157l33 130q4 16 11 21.5t24 5.5h10q17 0 21 -5.5t0 -21.5l-32 -130h72q16 0 21.5 -5.5t5.5 -21.5v-6q0 -16 -5.5 -21.5t-21.5 -5.5h-87l-54 -216h96q17 0 22 -5.5t5 -21.5v-6q0 -16 -5 -21.5t-22 -5.5h-111l-32 -130q-4 -16 -11 -21.5
t-24 -5.5h-10q-17 0 -21 5.5t0 21.5zM378 217l54 216h-157l-54 -216h157z" />
    <glyph glyph-name="dollar" unicode="$" horiz-adv-x="495" 
d="M209 -56v54q-75 2 -132 23q-20 7 -26 14t-6 25v13q0 37 32 23q61 -24 153 -24q73 0 106.5 19t33.5 61q0 33 -18.5 55.5t-70.5 56.5l-133 86q-96 63 -96 157q0 129 157 142v57q0 16 5.5 22t22.5 6h10q17 0 22.5 -6t5.5 -22v-55q61 -2 117 -23q17 -6 23 -13.5t6 -24.5v-14
q0 -35 -31 -22q-58 24 -139 24q-64 0 -92 -17.5t-28 -56.5q0 -28 15 -48t53 -46l135 -89q62 -40 89 -78t27 -91q0 -139 -175 -152v-56q0 -16 -5.5 -22t-22.5 -6h-10q-17 0 -22.5 6t-5.5 22z" />
    <glyph glyph-name="percent" unicode="%" horiz-adv-x="778" 
d="M553 650h11q20 0 24 -6t-6 -24l-306 -590q-10 -18 -20 -24t-30 -6h-11q-20 0 -24 6t6 24l306 590q10 18 20 24t30 6zM348 496q0 -162 -150 -162q-151 0 -151 162q0 163 151 163q150 0 150 -163zM198 597q-46 0 -65 -23.5t-19 -77.5t19 -77t65 -23q45 0 64.5 23t19.5 77
t-19.5 77.5t-64.5 23.5zM731 154q0 -163 -151 -163q-150 0 -150 163q0 162 150 162q151 0 151 -162zM580 53q46 0 65 23.5t19 77.5t-19.5 77t-64.5 23t-64 -23t-19 -77t19 -77.5t64 -23.5z" />
    <glyph glyph-name="ampersand" unicode="&#x26;" horiz-adv-x="608" 
d="M562 306h-54v-103q0 -213 -221 -213q-229 0 -229 187q0 130 117 163q-98 30 -98 140q0 179 210 179q33 0 66 -5q19 -4 25 -10t6 -24v-12q0 -19 -6 -25t-24 -3q-39 6 -68 6q-69 0 -100.5 -26t-31.5 -82q0 -57 29.5 -82.5t98.5 -25.5h147v57q0 20 7 27t27 7h11q20 0 27 -7
t7 -27v-57h54q16 0 22 -6t6 -22v-8q0 -16 -6 -22t-22 -6zM285 63q58 0 98 23q46 28 46 119v101h-145q-76 0 -111.5 -30t-35.5 -96q0 -64 35.5 -90.5t112.5 -26.5z" />
    <glyph glyph-name="quotesingle" unicode="'" horiz-adv-x="146" 
d="M42 541v155q0 16 5 21.5t22 5.5h8q17 0 22 -5.5t5 -21.5v-155q0 -17 -5 -22t-22 -5h-8q-17 0 -22 5t-5 22z" />
    <glyph glyph-name="parenleft" unicode="(" horiz-adv-x="336" 
d="M55 250q0 285 178 463q12 12 20.5 12t21.5 -11l7 -7q12 -12 12 -19.5t-12 -19.5q-157 -157 -157 -418q0 -260 157 -417q22 -22 1 -40l-8 -7q-13 -11 -22 -10.5t-21 12.5q-177 178 -177 462z" />
    <glyph glyph-name="parenright" unicode=")" horiz-adv-x="336" 
d="M291 250q0 -284 -177 -462q-12 -12 -21 -12.5t-22 10.5l-8 7q-21 18 1 40q157 157 157 417q0 261 -157 418q-12 12 -12 19.5t12 19.5l7 7q13 11 21.5 11t20.5 -12q178 -178 178 -463z" />
    <glyph glyph-name="asterisk" unicode="*" horiz-adv-x="457" 
d="M261 706l-2 -125l118 42q15 5 21 1.5t12 -18.5l2 -5q6 -15 2 -22t-20 -12l-119 -37l75 -98q10 -13 9 -19.5t-14 -17.5l-5 -4q-13 -10 -20.5 -9t-16.5 15l-71 102l-71 -101q-9 -13 -16 -14t-21 8l-5 3q-14 8 -15 16t9 21l76 99l-118 36q-16 5 -20 12t2 22l2 5
q6 15 12 18.5t21 -1.5l118 -42l-3 125q-1 16 4 21.5t22 5.5h6q16 0 21 -5t5 -22z" />
    <glyph glyph-name="plus" unicode="+" horiz-adv-x="556" 
d="M501 320v-8q0 -16 -5.5 -22t-22.5 -6h-161v-158q0 -18 -6 -24t-24 -6h-9q-18 0 -24 6t-6 24v158h-160q-17 0 -22.5 6t-5.5 22v8q0 16 5.5 22t22.5 6h160v158q0 18 6 24t24 6h9q18 0 24 -6t6 -24v-158h161q17 0 22.5 -6t5.5 -22z" />
    <glyph glyph-name="comma" unicode="," horiz-adv-x="197" 
d="M67 -128q-7 -12 -19 -9q-10 3 -10 20q2 35 13 109q18 103 57 103q16 0 25.5 -11.5t9.5 -30.5q0 -27 -28 -86q-29 -66 -48 -95z" />
    <glyph glyph-name="hyphen" unicode="-" horiz-adv-x="377" 
d="M352 320v-8q0 -16 -6 -22t-22 -6h-271q-17 0 -22.5 6t-5.5 22v8q0 16 5.5 22t22.5 6h271q16 0 22 -6t6 -22z" />
    <glyph glyph-name="period" unicode="." horiz-adv-x="204" 
d="M49 45q0 23 15.5 38t37.5 15t37.5 -15t15.5 -38q0 -22 -15.5 -37.5t-37.5 -15.5t-37.5 15.5t-15.5 37.5z" />
    <glyph glyph-name="slash" unicode="/" horiz-adv-x="302" 
d="M273 733h8q19 0 23 -6t-2 -24l-226 -703q-6 -18 -13.5 -24t-26.5 -6h-7q-19 0 -23.5 6t1.5 24l226 703q6 18 13.5 24t26.5 6z" />
    <glyph glyph-name="zero" unicode="0" horiz-adv-x="562" 
d="M433 237v173q0 94 -34.5 135t-117.5 41q-81 0 -116 -41t-35 -135v-173q0 -94 35 -134t116 -40q83 0 117.5 39.5t34.5 134.5zM281 -10q-121 0 -176 59.5t-55 187.5v173q0 129 54.5 188.5t176.5 59.5t176.5 -59t54.5 -189v-173q0 -129 -54.5 -188t-176.5 -59z" />
    <glyph glyph-name="one" unicode="1" horiz-adv-x="341" 
d="M28 482l-7 6q-13 13 -13.5 22.5t11.5 23.5l57 71q44 53 101 53q49 0 71.5 -27.5t22.5 -90.5v-506q0 -20 -7 -27t-27 -7h-10q-20 0 -27 7t-7 27v478q0 46 -4 58q-2 10 -6.5 13t-15.5 3q-19 0 -44 -33l-53 -68q-11 -14 -19.5 -15t-22.5 12z" />
    <glyph glyph-name="two" unicode="2" horiz-adv-x="498" 
d="M448 492q0 -52 -25 -93.5t-83 -87.5l-183 -148q-40 -31 -40 -58q0 -18 12 -25t45 -7h243q19 0 25 -6t6 -25v-11q0 -19 -6 -25t-25 -6h-247q-69 0 -99 22.5t-30 71.5q0 68 71 127l169 136q52 42 70.5 69.5t18.5 61.5q0 51 -33 74.5t-106 23.5q-86 0 -140 -22
q-17 -6 -23.5 -0.5t-6.5 24.5v16q0 17 6 24t26 12q64 19 137 19q218 0 218 -167z" />
    <glyph glyph-name="three" unicode="3" horiz-adv-x="489" 
d="M174 331v11q0 16 6 22t22 6h16q74 0 105 25t31 81q0 60 -31 85t-106 25q-68 0 -135 -19q-18 -5 -25 1t-7 25v16q0 17 6 23t27 12q56 15 134 15q215 0 215 -180q0 -55 -21.5 -88.5t-68.5 -54.5q100 -30 100 -152q0 -194 -225 -194q-81 0 -148 18q-19 5 -25 11.5t-6 24.5
v15q0 19 6.5 24.5t24.5 0.5q73 -21 148 -21q81 0 114 28t33 93q0 119 -146 119h-16q-16 0 -22 5.5t-6 22.5z" />
    <glyph glyph-name="four" unicode="4" horiz-adv-x="496" 
d="M81 310l103 307q7 20 16 26.5t30 6.5h11q21 0 26 -7t-2 -26l-111 -336q-12 -35 -0.5 -50.5t49.5 -15.5h188v241q0 20 7 27t27 7h9q20 0 27 -7t7 -27v-422q0 -20 -7 -27t-27 -7h-9q-20 0 -27 7t-7 27v108h-187q-93 0 -122.5 40.5t-0.5 127.5z" />
    <glyph glyph-name="five" unicode="5" horiz-adv-x="510" 
d="M64 416v126q0 56 26 82t83 26h227q19 0 25 -6t6 -25v-11q0 -19 -6 -25t-25 -6h-211q-25 0 -36 -11t-11 -36v-102q0 -48 47 -48h45q120 0 176 -47t56 -147q0 -99 -57 -147t-173 -48q-87 0 -150 18q-17 5 -23.5 12.5t-6.5 22.5v16q0 20 6.5 25.5t24.5 -0.5q63 -21 149 -21
q81 0 116.5 28.5t35.5 92.5q0 71 -38 97q-37 25 -130 25h-47q-57 0 -83 26t-26 83z" />
    <glyph glyph-name="six" unicode="6" horiz-adv-x="527" 
d="M277 394q109 0 160 -46.5t51 -147.5q0 -107 -53 -158t-162 -51q-116 0 -169.5 61.5t-53.5 188.5v178q0 126 57.5 183t186.5 57q75 0 134 -21q3 -1 7 -3t5.5 -2.5t4 -1.5t3.5 -2l2.5 -2.5t2.5 -3t1.5 -3.5t1 -5l1 -6t1.5 -8v-14q0 -35 -30 -24q-67 23 -137 23
q-95 0 -129 -37q-34 -34 -34 -127v-50q65 22 149 22zM270 325q-78 0 -142 -23v-56q0 -93 30 -138q32 -44 120 -44q72 0 102 30t30 102q0 71 -32 100t-108 29z" />
    <glyph glyph-name="seven" unicode="7" horiz-adv-x="486" 
d="M154 0h-12q-23 0 -27 7t6 27l220 443q18 37 18 62q0 21 -13.5 29.5t-46.5 8.5h-237q-19 0 -25 6t-6 25v11q0 19 6 25t25 6h242q133 0 133 -101q0 -52 -51 -154l-177 -361q-11 -20 -22 -27t-33 -7z" />
    <glyph glyph-name="eight" unicode="8" horiz-adv-x="548" 
d="M274 659q107 0 158 -44t51 -134q0 -57 -19 -89.5t-66 -53.5q54 -21 78 -58t24 -100q0 -190 -227 -190q-226 0 -226 189q0 64 25 101t81 58q-48 21 -68 53.5t-20 89.5q0 178 209 178zM126 184q0 -64 34 -92.5t114 -28.5t114 28.5t34 92.5q0 61 -35.5 90t-112.5 29
t-112.5 -29t-35.5 -90zM406 476q0 60 -29.5 85t-103.5 25t-103 -26q-28 -25 -28 -84q0 -58 30 -84q31 -25 102 -25t101.5 25.5t30.5 83.5z" />
    <glyph glyph-name="nine" unicode="9" horiz-adv-x="527" 
d="M253 257q-112 0 -163 45.5t-51 147.5q0 107 53 158t162 51q116 0 169 -61.5t53 -188.5v-179q0 -127 -57 -183.5t-187 -56.5q-80 0 -135 21q-20 8 -26 15t-6 23v14q0 19 7 24t24 -1q69 -23 140 -23q93 0 127 37q35 38 35 128v50q-56 -21 -145 -21zM263 325q77 0 135 23v56
q0 94 -30 138t-120 44q-72 0 -101.5 -30t-29.5 -102t32.5 -100.5t113.5 -28.5z" />
    <glyph glyph-name="colon" unicode=":" horiz-adv-x="204" 
d="M49 45q0 23 15.5 38t37.5 15t37.5 -15t15.5 -38q0 -22 -15.5 -37.5t-37.5 -15.5t-37.5 15.5t-15.5 37.5zM64 410q-15 16 -15 38t15 37q16 16 38 16t37 -16q16 -15 16 -37t-16 -38q-15 -15 -37 -15t-38 15z" />
    <glyph glyph-name="semicolon" unicode=";" horiz-adv-x="199" 
d="M73 -128q-7 -12 -19 -9q-10 3 -10 20q2 35 13 109q18 103 57 103q16 0 25.5 -11.5t9.5 -30.5q0 -27 -28 -86q-29 -66 -48 -95zM62 410q-15 16 -15 38t15 37q16 16 38 16t37 -16q16 -15 16 -37t-16 -38q-15 -15 -37 -15t-38 15z" />
    <glyph glyph-name="less" unicode="&#x3c;" horiz-adv-x="443" 
d="M394 119v-10q0 -19 -6 -22.5t-23 4.5l-276 141q-63 32 -63 92t63 92l277 141q16 9 22 5.5t6 -22.5v-10q0 -19 -6 -28.5t-23 -17.5l-253 -128q-22 -10 -22 -32q0 -21 22 -31l253 -128q17 -8 23 -17.5t6 -28.5z" />
    <glyph glyph-name="equal" unicode="=" horiz-adv-x="536" 
d="M481 216v-8q0 -16 -5.5 -22t-22.5 -6h-370q-17 0 -22.5 6t-5.5 22v8q0 16 5.5 22t22.5 6h370q17 0 22.5 -6t5.5 -22zM481 443v-8q0 -17 -5.5 -22.5t-22.5 -5.5h-370q-17 0 -22.5 5.5t-5.5 22.5v8q0 17 5.5 22.5t22.5 5.5h370q17 0 22.5 -5.5t5.5 -22.5z" />
    <glyph glyph-name="greater" unicode="&#x3e;" horiz-adv-x="443" 
d="M49 109v10q0 19 6 28.5t23 17.5l253 128q22 10 22 31q0 22 -22 32l-253 128q-17 8 -23 17.5t-6 28.5v10q0 19 5.5 22.5t22.5 -5.5l277 -141q63 -32 63 -92t-63 -92l-276 -141q-17 -8 -23 -4.5t-6 22.5z" />
    <glyph glyph-name="question" unicode="?" horiz-adv-x="408" 
d="M117 -7q-22 0 -37.5 15.5t-15.5 37.5t15.5 37.5t37.5 15.5t37.5 -15.5t15.5 -37.5t-15 -37.5t-38 -15.5zM361 474q0 -71 -32 -112q-30 -37 -94 -76q-69 -42 -81 -91q-5 -21 -31 -21h-10q-17 0 -23.5 5t-6.5 19q0 77 110 148q42 26 61 47q29 29 29 81q0 61 -29 86.5
t-97 25.5q-41 0 -85 -11q-18 -4 -24 0.5t-6 23.5v15q0 17 6 24.5t25 11.5q44 9 82 9q107 0 156.5 -44t49.5 -141z" />
    <glyph glyph-name="at" unicode="@" horiz-adv-x="937" 
d="M658 280v-70q0 -115 70 -115q84 0 84 122v63q0 84 -27.5 148t-76.5 101.5t-109 56t-130 18.5q-157 0 -250 -81q-92 -80 -92 -244v-70q0 -163 91 -241q91 -79 237 -79q111 0 186 54q13 10 20.5 9t17.5 -14l6 -8q10 -14 9.5 -21.5t-14.5 -16.5q-98 -65 -231 -65
q-171 0 -281 99q-109 97 -109 283v70q0 191 113 289q112 99 297 99q171 0 286 -91q126 -96 126 -296v-63q-5 -129 -76 -169q-36 -16 -74 -17q-42 -1 -78 25.5t-45 70.5q-35 -95 -154 -95q-175 0 -175 185v63q0 182 190 182q92 0 140.5 -47.5t48.5 -134.5zM349 278v-62
q0 -64 26.5 -92.5t88.5 -28.5q61 0 92.5 32.5t31.5 88.5v62q0 61 -28.5 91t-91.5 30q-64 0 -91.5 -29t-27.5 -92z" />
    <glyph glyph-name="A" unicode="A" horiz-adv-x="609" 
d="M450 512l134 -479q5 -19 0 -26t-25 -7h-10q-21 0 -29.5 6.5t-13.5 26.5l-47 168h-299l-46 -168q-5 -20 -13.5 -26.5t-29.5 -6.5h-11q-20 0 -25 7t0 26l134 479q24 86 51 116q28 31 90 31t89 -31q28 -30 51 -116zM248 521l-69 -249h261l-69 249q-11 41 -23.5 54.5
t-37.5 13.5q-26 0 -38.5 -13.5t-23.5 -54.5z" />
    <glyph glyph-name="B" unicode="B" horiz-adv-x="592" 
d="M184 650h122q110 0 162 -42t52 -128q0 -63 -24.5 -96.5t-83.5 -47.5v-2q69 -12 98.5 -48.5t29.5 -104.5q0 -92 -52 -136.5t-166 -44.5h-21h-117q-57 0 -82.5 26t-25.5 82v434q0 56 25.5 82t82.5 26zM322 298h-168v-178q0 -25 11 -36t36 -11h109q84 0 117.5 25.5
t33.5 86.5q0 60 -31.5 86.5t-107.5 26.5zM306 577h-105q-25 0 -36 -11t-11 -36v-163h152q73 0 104 25t31 81q0 55 -31 79.5t-104 24.5z" />
    <glyph glyph-name="C" unicode="C" horiz-adv-x="524" 
d="M135 399v-160q0 -90 42 -133t134 -43q75 0 144 26q17 7 23.5 2t6.5 -24v-12q0 -16 -6 -24t-24 -16q-53 -25 -142 -25q-132 0 -194.5 60.5t-62.5 188.5v160q0 260 255 260q72 0 139 -26q17 -7 23 -14.5t6 -23.5v-13q0 -36 -31 -23q-63 27 -140 27q-90 0 -131.5 -45
t-41.5 -142z" />
    <glyph glyph-name="D" unicode="D" horiz-adv-x="607" 
d="M76 108v434q0 56 25.5 82t82.5 26h85q153 0 218 -56q64 -55 64 -201v-136q0 -140 -65 -199q-64 -58 -217 -58h-85q-57 0 -82.5 26t-25.5 82zM201 73h68q118 0 160 39q42 40 42 145v136q0 104 -43 144q-40 40 -159 40h-68q-25 0 -36 -11t-11 -36v-410q0 -25 11 -36t36 -11
z" />
    <glyph glyph-name="E" unicode="E" horiz-adv-x="542" 
d="M427 302h-273v-182q0 -25 11 -36t36 -11h266q19 0 25 -6t6 -25v-11q0 -19 -6 -25t-25 -6h-283q-57 0 -82.5 26t-25.5 82v434q0 56 25.5 82t82.5 26h283q19 0 25 -6t6 -25v-11q0 -19 -6 -25t-25 -6h-266q-25 0 -36 -11t-11 -36v-155h273q19 0 25 -6t6 -25v-11
q0 -19 -6 -25t-25 -6z" />
    <glyph glyph-name="F" unicode="F" horiz-adv-x="523" 
d="M418 298h-264v-264q0 -20 -7 -27t-27 -7h-10q-20 0 -27 7t-7 27v508q0 56 25.5 82t82.5 26h274q19 0 25 -6t6 -25v-11q0 -19 -6 -25t-25 -6h-257q-25 0 -36 -11t-11 -36v-159h264q19 0 25 -6t6 -25v-11q0 -19 -6 -25t-25 -6z" />
    <glyph glyph-name="G" unicode="G" horiz-adv-x="577" 
d="M450 126v199q0 19 6 25.5t26 6.5h10q20 0 26 -6.5t6 -25.5v-192q0 -66 -22 -96t-78 -40q-41 -7 -86 -7q-148 0 -215 59.5t-67 192.5v160q0 257 276 257q76 0 148 -26q24 -10 28 -17q2 -5 4 -21v-13q0 -38 -30 -24q-65 28 -151 28q-104 0 -150 -44.5t-46 -144.5v-160
q0 -90 47 -132t152 -42q46 0 71 6q24 4 34.5 17t10.5 40z" />
    <glyph glyph-name="H" unicode="H" horiz-adv-x="613" 
d="M460 34v272h-306v-272q0 -20 -7 -27t-27 -7h-10q-20 0 -27 7t-7 27v582q0 20 7 27t27 7h10q20 0 27 -7t7 -27v-237h306v237q0 20 7 27t27 7h10q20 0 27 -7t7 -27v-582q0 -20 -7 -27t-27 -7h-10q-20 0 -27 7t-7 27z" />
    <glyph glyph-name="I" unicode="I" horiz-adv-x="242" 
d="M82 34v582q0 20 7 27t27 7h10q20 0 27 -7t7 -27v-582q0 -20 -7 -27t-27 -7h-10q-20 0 -27 7t-7 27z" />
    <glyph glyph-name="J" unicode="J" horiz-adv-x="242" 
d="M161 616v-481q0 -123 -33 -193t-91 -118q-15 -12 -23.5 -10t-19.5 19l-5 8q-10 17 -9 25.5t15 19.5q88 72 88 245v485q0 20 7 27t27 7h10q20 0 27 -7t7 -27z" />
    <glyph glyph-name="K" unicode="K" horiz-adv-x="553" 
d="M248 439l152 180q17 19 30 25t38 6h12q25 0 28 -6t-13 -25l-183 -218q-38 -47 -38 -62q0 -14 38 -61l203 -246q16 -20 13 -26t-28 -6h-12q-24 0 -37.5 6.5t-29.5 25.5l-173 208q-49 58 -49 101t49 98zM76 34v582q0 20 7 27t27 7h10q20 0 27 -7t7 -27v-582q0 -20 -7 -27
t-27 -7h-10q-20 0 -27 7t-7 27z" />
    <glyph glyph-name="L" unicode="L" horiz-adv-x="480" 
d="M76 108v508q0 20 7 27t27 7h10q20 0 27 -7t7 -27v-496q0 -25 11 -36t36 -11h226q19 0 25 -6t6 -25v-11q0 -19 -6 -25t-25 -6h-243q-57 0 -82.5 26t-25.5 82z" />
    <glyph glyph-name="M" unicode="M" horiz-adv-x="796" 
d="M724 522l36 -488q1 -20 -5.5 -27t-26.5 -7h-11q-20 0 -27 6.5t-9 27.5l-35 495q-2 33 -12 45t-34 12q-19 0 -29 -12.5t-15 -44.5l-63 -436q-7 -51 -28 -72t-66 -21q-43 0 -65 21.5t-29 71.5l-63 436q-5 32 -15.5 44.5t-29.5 12.5q-22 0 -32.5 -12.5t-12.5 -44.5l-36 -495
q-2 -21 -9 -27.5t-27 -6.5h-10q-20 0 -26.5 7t-5.5 27l36 488q5 72 34 103t89 31q55 0 82.5 -30.5t37.5 -103.5l56 -419q3 -24 8 -31.5t18 -7.5q12 0 17.5 8t8.5 31l56 419q10 72 38 103t82 31q60 0 89 -31t34 -103z" />
    <glyph glyph-name="N" unicode="N" horiz-adv-x="637" 
d="M76 34v513q0 59 24 85.5t75 26.5q44 0 66.5 -20t37.5 -72l147 -473q7 -21 14.5 -28.5t19.5 -7.5q24 0 24 38v520q0 20 7 27t27 7h9q20 0 27 -7t7 -27v-513q0 -59 -23.5 -85.5t-72.5 -26.5q-45 0 -69 21.5t-40 75.5l-145 465q-7 23 -13.5 31t-19.5 8q-26 0 -26 -40v-518
q0 -20 -7 -27t-27 -7h-8q-20 0 -27 7t-7 27z" />
    <glyph glyph-name="O" unicode="O" 
d="M488 251v146q0 101 -36 144q-36 45 -141 45t-141 -45q-36 -43 -36 -144v-146q0 -99 36 -144q36 -44 141 -44t141 44q36 45 36 144zM311 -10q-144 0 -200 65q-55 64 -55 196v146q0 131 56 196t199 65t199 -65t56 -196v-146q0 -131 -56 -196t-199 -65z" />
    <glyph glyph-name="P" unicode="P" horiz-adv-x="583" 
d="M184 650h148q114 0 165.5 -50t51.5 -156q0 -105 -52 -155.5t-165 -50.5h-178v-204q0 -20 -7 -27t-27 -7h-10q-20 0 -27 7t-7 27v508q0 56 25.5 82t82.5 26zM332 577h-131q-25 0 -36 -11t-11 -36v-220h178q78 0 108.5 30t30.5 104q0 72 -31 102.5t-108 30.5z" />
    <glyph glyph-name="Q" unicode="Q" 
d="M566 397v-146q0 -113 -38.5 -173.5t-125.5 -78.5l101 -98q19 -19 16 -25t-29 -6h-13q-26 0 -41 6.5t-33 25.5l-81 89q-36 0 -64 6q-109 11 -155.5 71.5t-46.5 182.5v146q0 131 56 196t199 65t199 -65t56 -196zM488 251v146q0 101 -36 144q-36 45 -141 45t-141 -45
q-36 -43 -36 -144v-146q0 -99 36 -144q36 -44 141 -44t141 44q36 45 36 144z" />
    <glyph glyph-name="R" unicode="R" horiz-adv-x="603" 
d="M549 456q0 -84 -34.5 -129.5t-111.5 -57.5l148 -236q13 -19 9 -26t-27 -7h-11q-23 0 -35 6.5t-25 26.5l-143 230h-165v-229q0 -20 -7 -27t-27 -7h-10q-20 0 -27 7t-7 27v508q0 56 25.5 82t82.5 26h154q112 0 161.5 -47t49.5 -147zM338 577h-137q-25 0 -36 -11t-11 -36
v-194h184q74 0 103.5 27.5t29.5 92.5q0 67 -29 94t-104 27z" />
    <glyph glyph-name="S" unicode="S" horiz-adv-x="518" 
d="M49 51v14q0 35 30 25q73 -26 166 -26q79 0 114 19.5t35 65.5q0 35 -18.5 57t-73.5 55l-148 91q-99 60 -99 159q0 77 51 112.5t158 35.5q88 0 150 -24q19 -7 24.5 -13.5t5.5 -23.5v-13q0 -35 -30 -24q-64 24 -150 24q-69 0 -99 -18t-30 -59q0 -30 14.5 -49t55.5 -46
l151 -94q64 -40 90.5 -77t26.5 -92q0 -160 -230 -160q-96 0 -162 24q-24 10 -27 16t-5 21z" />
    <glyph glyph-name="T" unicode="T" horiz-adv-x="554" 
d="M29 608v11q0 19 6 25t25 6h434q19 0 25 -6t6 -25v-11q0 -19 -6 -25t-25 -6h-178v-543q0 -20 -7 -27t-27 -7h-10q-20 0 -27 7t-7 27v543h-178q-19 0 -25 6t-6 25z" />
    <glyph glyph-name="U" unicode="U" 
d="M66 207v409q0 20 7 27t27 7h10q20 0 27 -7t7 -27v-409q0 -77 40 -110.5t127 -33.5t127 33.5t40 110.5v409q0 20 7 27t27 7h10q20 0 27 -7t7 -27v-409q0 -217 -245 -217t-245 217z" />
    <glyph glyph-name="V" unicode="V" horiz-adv-x="591" 
d="M565 616l-122 -478q-22 -86 -50 -117q-29 -30 -92 -30q-65 0 -93 30q-28 31 -50 117l-122 478q-5 20 0 27t26 7h11q21 0 30 -7t14 -27l122 -487q10 -41 22.5 -54.5t39.5 -13.5q25 0 38 14.5t23 53.5l122 487q5 20 14 27t30 7h11q21 0 26 -7t0 -27z" />
    <glyph glyph-name="W" unicode="W" horiz-adv-x="908" 
d="M878 616l-78 -493q-11 -73 -39.5 -102.5t-86.5 -29.5q-57 0 -83.5 29.5t-37.5 102.5l-67 415q-4 27 -10 36.5t-19 9.5t-19 -9.5t-10 -36.5l-67 -415q-11 -73 -37.5 -102.5t-83.5 -29.5q-58 0 -86.5 29.5t-39.5 102.5l-78 493q-3 20 3 27t26 7h10q20 0 28 -7t11 -27
l77 -494q6 -35 16.5 -48t32.5 -13t32.5 13t16.5 48l70 420q10 60 31.5 84t66.5 24t66.5 -24t31.5 -84l70 -420q6 -35 16.5 -48t32.5 -13t32.5 13t16.5 48l77 494q3 20 11 27t28 7h10q20 0 26 -7t3 -27z" />
    <glyph glyph-name="X" unicode="X" horiz-adv-x="601" 
d="M506 650h10q23 0 27 -7t-6 -27l-95 -189q-36 -72 -64 -84q31 -14 64 -83l115 -226q10 -20 6 -27t-27 -7h-11q-23 0 -34 7t-21 27l-103 212q-18 39 -29.5 50.5t-33.5 11.5q-21 0 -32 -11q-10 -11 -30 -51l-103 -212q-10 -20 -21 -27t-34 -7h-11q-23 0 -27 7t6 27l114 226
q21 40 34.5 57.5t30.5 25.5q-28 12 -64 84l-95 189q-10 20 -6 27t27 7h10q23 0 34 -7t21 -27l84 -175q19 -39 30.5 -50.5t31.5 -11.5q21 0 32.5 11.5t30.5 50.5l84 175q10 20 21 27t34 7z" />
    <glyph glyph-name="Y" unicode="Y" horiz-adv-x="606" 
d="M268 35v233q-32 8 -49 26q-15 15 -49 77l-133 246q-11 19 -6.5 26t26.5 7h11q23 0 34.5 -7t21.5 -27l112 -214q22 -44 35 -56t36 -12t36 13q14 14 35 55l112 214q10 20 21.5 27t34.5 7h11q22 0 26.5 -7t-6.5 -26l-133 -246q-34 -62 -49 -77q-17 -19 -48 -26v-233
q0 -21 -7 -28t-28 -7h-9q-21 0 -28 7t-7 28z" />
    <glyph glyph-name="Z" unicode="Z" horiz-adv-x="546" 
d="M54 608v11q0 19 6 25t25 6h298q126 0 126 -103q0 -36 -14 -63.5t-52 -60.5l-301 -263q-35 -32 -35 -58q0 -29 42 -29h334q19 0 25 -6t6 -25v-11q0 -19 -6 -25t-25 -6h-332q-119 0 -119 90q0 39 14.5 67t53.5 63l302 265q31 27 31 53q0 39 -53 39h-295q-19 0 -25 6t-6 25z
" />
    <glyph glyph-name="bracketleft" unicode="[" horiz-adv-x="313" 
d="M276 -199v-7q0 -16 -5 -21.5t-22 -5.5h-79q-48 0 -70 22t-22 69v784q0 47 22 69t70 22h79q17 0 22 -5.5t5 -21.5v-7q0 -17 -5 -22t-22 -5h-66q-36 0 -36 -36v-772q0 -36 36 -36h66q17 0 22 -5t5 -22z" />
    <glyph glyph-name="backslash" unicode="\" horiz-adv-x="302" 
d="M29 733h8q19 0 26.5 -6t13.5 -24l226 -703q6 -18 1.5 -24t-23.5 -6h-7q-19 0 -27 6t-14 24l-226 703q-6 18 -1.5 24t23.5 6z" />
    <glyph glyph-name="bracketright" unicode="]" horiz-adv-x="313" 
d="M37 -206v7q0 17 5.5 22t21.5 5h66q36 0 36 36v772q0 36 -36 36h-66q-16 0 -21.5 5t-5.5 22v7q0 16 5.5 21.5t21.5 5.5h79q48 0 69.5 -22t21.5 -69v-784q0 -47 -21.5 -69t-69.5 -22h-79q-16 0 -21.5 5.5t-5.5 21.5z" />
    <glyph glyph-name="asciicircum" unicode="^" horiz-adv-x="472" 
d="M308 633l106 -242q8 -17 4 -22.5t-23 -5.5h-8q-19 0 -27.5 6t-15.5 23l-86 213q-7 17 -10 21t-9 4t-9 -4t-10 -21l-85 -213q-7 -17 -15.5 -23t-27.5 -6h-7q-19 0 -23 5.5t4 22.5l105 242q14 33 29 45.5t39 12.5q25 0 40 -12.5t29 -45.5z" />
    <glyph glyph-name="underscore" unicode="_" horiz-adv-x="481" 
d="M482 -46v-7q0 -16 -5 -21t-21 -5h-431q-16 0 -21 5t-5 21v7q0 16 5 21t21 5h431q16 0 21 -5t5 -21z" />
    <glyph glyph-name="grave" unicode="`" horiz-adv-x="255" 
d="M124 774l-50 83q-11 17 -7.5 23t23.5 6h10q20 0 30 -6t20 -24l42 -81q8 -15 5 -20t-20 -5h-10q-28 0 -43 24z" />
    <glyph glyph-name="a" unicode="a" horiz-adv-x="483" 
d="M434 346v-198q0 -83 -50 -120.5t-159 -37.5q-91 0 -139.5 37.5t-48.5 112.5q0 77 49.5 111.5t154.5 34.5h118v60q0 48 -32 69.5t-99 21.5q-61 0 -110 -11q-18 -4 -25 1.5t-7 23.5v8q0 17 6 23.5t24 10.5q44 10 108 10q210 0 210 -157zM359 151v76h-117q-69 0 -99.5 -20
t-30.5 -67q0 -85 112 -85q73 0 104 21.5t31 74.5z" />
    <glyph glyph-name="b" unicode="b" horiz-adv-x="552" 
d="M65 199v469q0 20 6.5 26t25.5 6h11q20 0 26 -6t6 -26v-238q39 73 156 73q207 0 207 -211v-93q0 -105 -54 -157t-165 -52q-219 0 -219 209zM427 200v93q0 76 -32 107.5t-111 31.5t-111.5 -32t-32.5 -107v-93q0 -75 32.5 -107t111.5 -32q80 0 111.5 32t31.5 107z" />
    <glyph glyph-name="c" unicode="c" horiz-adv-x="418" 
d="M49 197v99q0 101 56 154t167 53q52 0 88 -13q18 -6 24 -13.5t6 -24.5v-10q0 -19 -6 -24.5t-24 0.5q-40 14 -86 14q-81 0 -115.5 -32t-34.5 -105v-97q0 -75 36 -106t120 -31q54 0 90 13q17 6 23.5 0t6.5 -25v-10q0 -16 -6.5 -23.5t-25.5 -12.5q-39 -13 -93 -13
q-115 0 -170.5 50.5t-55.5 156.5z" />
    <glyph glyph-name="d" unicode="d" horiz-adv-x="540" 
d="M487 668v-469q0 -209 -219 -209q-111 0 -165 52t-54 157v93q0 211 207 211q116 0 156 -73v238q0 20 6 26t26 6h11q19 0 25.5 -6t6.5 -26zM124 293v-93q0 -75 32 -107t112 -32q79 0 111.5 32t32.5 107v93q0 75 -32.5 107t-111.5 32t-111.5 -32t-32.5 -107z" />
    <glyph glyph-name="e" unicode="e" horiz-adv-x="514" 
d="M465 303q0 -35 -3 -54q-2 -19 -9 -25t-27 -6h-302v-30q0 -68 36.5 -97.5t119.5 -29.5q69 0 136 19q18 5 25 -1t7 -25v-9q0 -16 -5.5 -23t-25.5 -13q-61 -19 -137 -19q-120 0 -175.5 49.5t-55.5 159.5v93q0 211 211 211q100 0 152.5 -51t52.5 -149zM124 314v-33h270v33
q0 122 -135 122t-135 -122z" />
    <glyph glyph-name="f" unicode="f" horiz-adv-x="377" 
d="M14 449v5q0 17 5.5 23t21.5 8l57 8v74q0 155 168 155q30 0 76 -8q19 -4 25 -10.5t6 -25.5v-9q0 -19 -6.5 -24.5t-24.5 -1.5q-40 8 -73 8q-96 0 -96 -79v-79h158q19 0 25 -6t6 -25v-9q0 -19 -6 -25t-25 -6h-158v-390q0 -20 -6.5 -26t-25.5 -6h-11q-20 0 -26 6t-6 26v390
h-57q-17 0 -22 5t-5 22z" />
    <glyph glyph-name="g" unicode="g" horiz-adv-x="505" 
d="M462 330v-12q0 -174 -207 -174q-77 0 -106 -8q-24 -8 -24 -30q0 -21 25 -28q26 -6 105 -6q125 0 171 -31q48 -30 48 -106q0 -85 -49 -119q-46 -34 -170 -34q-127 0 -173 34q-47 33 -47 105t56 107q-41 20 -41 66q0 66 81 78q-84 34 -84 146v12q0 82 55 127.5t153 45.5
q55 0 103 -20l57 51q13 11 21 11t20 -11l7 -7q12 -11 12 -19t-12 -20l-45 -46q44 -41 44 -112zM386 318v12q0 106 -131 106q-133 0 -133 -106v-12q0 -57 30.5 -82.5t102.5 -25.5t101.5 25.5t29.5 82.5zM255 6q-56 0 -98 5q-47 -23 -47 -82q0 -48 31 -65t114 -17q82 0 113 18
t31 67q0 46 -30 60q-31 14 -114 14z" />
    <glyph glyph-name="h" unicode="h" horiz-adv-x="545" 
d="M69 32v636q0 20 6.5 26t25.5 6h11q20 0 26 -6t6 -26v-233q45 68 157 68q185 0 185 -175v-296q0 -20 -6 -26t-26 -6h-12q-20 0 -26 6t-6 26v287q0 60 -29.5 86.5t-98.5 26.5q-72 0 -105 -30.5t-33 -99.5v-270q0 -20 -6 -26t-26 -6h-11q-19 0 -25.5 6t-6.5 26z" />
    <glyph glyph-name="i" unicode="i" horiz-adv-x="218" 
d="M72 32v429q0 19 6 25.5t26 6.5h11q19 0 25.5 -6.5t6.5 -25.5v-429q0 -20 -6.5 -26t-25.5 -6h-11q-20 0 -26 6t-6 26zM110 696q20 0 34 -14.5t14 -34.5t-14 -34t-34 -14q-21 0 -35.5 14t-14.5 34t14.5 34.5t35.5 14.5z" />
    <glyph glyph-name="j" unicode="j" horiz-adv-x="207" 
d="M105 696q21 0 35 -14.5t14 -34.5t-14 -34t-35 -14q-20 0 -34.5 14t-14.5 34t14.5 34.5t34.5 14.5zM142 461v-358q0 -125 -32 -192q-32 -66 -86 -108q-13 -10 -20 -8t-18 18l-6 9q-10 16 -9 24t14 19q24 21 39 42q43 60 43 191v363q0 19 6 25.5t26 6.5h11q19 0 25.5 -6.5
t6.5 -25.5z" />
    <glyph glyph-name="k" unicode="k" horiz-adv-x="483" 
d="M69 32v636q0 20 6.5 26t25.5 6h11q20 0 26 -6t6 -26v-636q0 -20 -6 -26t-26 -6h-11q-19 0 -25.5 6t-6.5 26zM218 344l114 119q17 18 31.5 24t39.5 6h12q25 0 27.5 -6t-14.5 -24l-156 -164q-21 -23 -21 -38q0 -19 20 -39l177 -191q18 -19 15 -25t-28 -6h-12q-26 0 -40 6
t-31 25l-134 145q-41 44 -41 87q0 37 41 81z" />
    <glyph glyph-name="l" unicode="l" horiz-adv-x="237" 
d="M62 128v540q0 20 6 26t26 6h11q19 0 25.5 -6t6.5 -26v-527q0 -76 51 -76h5q20 0 25.5 -4.5t5.5 -21.5v-7q0 -19 -5.5 -26.5t-22.5 -10.5q-3 -1 -18 -1q-55 0 -85.5 34t-30.5 100z" />
    <glyph glyph-name="m" unicode="m" horiz-adv-x="806" 
d="M134 316v-284q0 -20 -6 -26t-26 -6h-11q-19 0 -25.5 6t-6.5 26v284q0 187 191 187q118 0 153 -83q38 83 154 83q190 0 190 -187v-284q0 -20 -6.5 -26t-25.5 -6h-11q-20 0 -26 6t-6 26v284q0 62 -26 89t-89 27q-65 0 -91 -26.5t-26 -89.5v-284q0 -20 -6 -26t-26 -6h-10
q-20 0 -26 6t-6 26v284q0 62 -26.5 89t-89.5 27t-89.5 -27t-26.5 -89z" />
    <glyph glyph-name="n" unicode="n" horiz-adv-x="535" 
d="M134 316v-284q0 -20 -6 -26t-26 -6h-11q-19 0 -25.5 6t-6.5 26v284q0 187 209 187q107 0 157.5 -46.5t50.5 -140.5v-284q0 -20 -6 -26t-26 -6h-12q-20 0 -26 6t-6 26v284q0 63 -29.5 89.5t-102.5 26.5t-103.5 -27t-30.5 -89z" />
    <glyph glyph-name="o" unicode="o" horiz-adv-x="536" 
d="M412 200v93q0 75 -32 107t-111 32q-80 0 -112.5 -32t-32.5 -107v-93q0 -75 32.5 -107t112.5 -32q79 0 111 32t32 107zM269 -10q-114 0 -167 52t-53 158v93q0 210 220 210q113 0 165.5 -52t52.5 -158v-93q0 -210 -218 -210z" />
    <glyph glyph-name="p" unicode="p" horiz-adv-x="552" 
d="M65 -168v462q0 209 219 209q111 0 165 -52t54 -157v-93q0 -211 -207 -211q-117 0 -156 74v-232q0 -20 -6 -26t-26 -6h-11q-19 0 -25.5 6t-6.5 26zM427 200v93q0 76 -31.5 107.5t-111.5 31.5q-79 0 -111.5 -32t-32.5 -107v-93q0 -75 32.5 -107t111.5 -32t111 32t32 107z
" />
    <glyph glyph-name="q" unicode="q" horiz-adv-x="552" 
d="M487 294v-462q0 -20 -6.5 -26t-25.5 -6h-11q-20 0 -26 6t-6 26v232q-41 -74 -156 -74q-207 0 -207 211v93q0 105 54 157t165 52q219 0 219 -209zM124 293v-93q0 -75 32.5 -107t111.5 -32t111.5 32t32.5 107v93q0 75 -32.5 107t-111.5 32q-80 0 -112 -31.5t-32 -107.5z
" />
    <glyph glyph-name="r" unicode="r" horiz-adv-x="309" 
d="M134 326v-294q0 -20 -6 -26t-26 -6h-11q-19 0 -25.5 6t-6.5 26v298q0 173 171 173q8 0 32 -2q19 -2 24.5 -9t5.5 -26v-10q0 -19 -6 -24t-25 -2q-6 0 -13.5 0.5t-11.5 1t-6 0.5q-53 0 -74.5 -24.5t-21.5 -81.5z" />
    <glyph glyph-name="s" unicode="s" horiz-adv-x="458" 
d="M47 46v8q0 19 7 24.5t25 1.5q74 -20 147 -20q60 0 84.5 12.5t24.5 44.5q0 24 -14 39t-51 33l-122 58q-51 25 -72 53t-21 77q0 65 43 95.5t134 30.5q72 0 125 -19q18 -6 24 -13t6 -24v-9q0 -19 -7.5 -24t-24.5 0q-56 19 -125 19q-55 0 -78 -13t-23 -43q0 -42 53 -66
l127 -58q55 -25 77.5 -54.5t22.5 -79.5q0 -67 -46 -98t-143 -31q-74 0 -141 19q-19 5 -25.5 13t-6.5 24z" />
    <glyph glyph-name="t" unicode="t" horiz-adv-x="402" 
d="M14 449v5q0 17 5.5 23t21.5 8l57 8l11 103q1 16 7 21.5t23 5.5h7q16 0 21.5 -5.5t5.5 -21.5v-103h162q19 0 25 -6t6 -25v-9q0 -19 -6 -25t-25 -6h-162v-254q0 -55 22.5 -80.5t69.5 -25.5q56 0 89 10q17 4 23.5 -1.5t6.5 -24.5v-9q0 -15 -6.5 -23t-24.5 -13
q-37 -10 -87 -10q-168 0 -168 177v254h-57q-17 0 -22 5t-5 22z" />
    <glyph glyph-name="u" unicode="u" horiz-adv-x="523" 
d="M128 461v-284q0 -62 30.5 -89t103.5 -27q74 0 103.5 26.5t29.5 89.5v284q0 19 6.5 25.5t25.5 6.5h11q20 0 26 -6.5t6 -25.5v-284q0 -94 -50.5 -140.5t-157.5 -46.5q-209 0 -209 187v284q0 19 6.5 25.5t25.5 6.5h11q20 0 26 -6.5t6 -25.5z" />
    <glyph glyph-name="v" unicode="v" horiz-adv-x="518" 
d="M116 462l90 -350q9 -32 21.5 -43.5t36.5 -11.5t36.5 11.5t21.5 43.5l89 350q4 19 12 25t28 6h13q19 0 24 -6.5t0 -24.5l-89 -345q-19 -73 -45 -100q-26 -26 -90 -26q-62 0 -91 26q-26 27 -45 100l-88 345q-5 18 0 24.5t24 6.5h12q20 0 28 -6t12 -25z" />
    <glyph glyph-name="w" unicode="w" horiz-adv-x="808" 
d="M117 461l55 -350q7 -55 48 -55t48 55l45 285q8 54 28.5 75.5t65.5 21.5q43 0 64 -21.5t30 -75.5l45 -285q7 -55 48 -55t48 55l55 350q3 19 10 25.5t27 6.5h13q19 0 24.5 -6t2.5 -26l-55 -345q-12 -69 -39.5 -97.5t-85.5 -28.5q-54 0 -80.5 29t-36.5 97l-39 260
q-4 32 -10.5 42.5t-20.5 10.5t-21 -11.5t-11 -41.5l-39 -260q-10 -69 -36 -97.5t-80 -28.5q-59 0 -86.5 28t-38.5 98l-54 345q-3 20 2.5 26t24.5 6h12q20 0 27 -6.5t10 -25.5z" />
    <glyph glyph-name="x" unicode="x" horiz-adv-x="530" 
d="M148 462l78 -132q12 -21 20.5 -28t21.5 -7t21.5 7t20.5 28l78 132q10 18 21 24.5t33 6.5h12q22 0 25 -6t-8 -25l-80 -132q-21 -36 -32 -49t-26 -20q14 -6 25 -19t33 -49l100 -162q11 -19 8 -25t-25 -6h-12q-22 0 -33 6t-22 25l-96 160q-15 24 -23 31t-20 7t-20 -7
t-23 -31l-96 -160q-11 -19 -22 -25t-33 -6h-12q-22 0 -25 6t8 25l101 162l21 34q16 23 35 34q-14 6 -24.5 18.5t-32.5 50.5l-80 132q-11 19 -8 25t25 6h12q22 0 33 -6.5t21 -24.5z" />
    <glyph glyph-name="y" unicode="y" horiz-adv-x="518" 
d="M117 460l94 -345q9 -33 21.5 -44t39.5 -11q23 0 35.5 12t20.5 43l83 345q4 19 13 26t29 7h9q21 0 26 -6.5t0 -26.5l-115 -460q-51 -202 -201 -212q-17 -2 -24.5 4t-11.5 24l-2 9q-4 17 1.5 22.5t24.5 7.5q53 6 84.5 41t53.5 110q-20 -11 -50 -11q-47 0 -70.5 26t-41.5 91
l-95 348q-5 20 0 26.5t25 6.5h8q20 0 29 -6.5t14 -26.5z" />
    <glyph glyph-name="z" unicode="z" horiz-adv-x="474" 
d="M63 454v9q0 18 6 24t24 6h235q58 0 82.5 -21t24.5 -71q0 -32 -14 -54.5t-51 -48.5l-238 -167q-24 -17 -24 -35q0 -27 42 -27h255q18 0 24 -6t6 -24v-9q0 -18 -6 -24t-24 -6h-261q-105 0 -105 90q0 59 62 103l236 164q29 20 29 41q0 26 -42 26h-231q-18 0 -24 6t-6 24z
" />
    <glyph glyph-name="braceleft" unicode="{" horiz-adv-x="361" 
d="M29 256v6q0 16 5.5 21.5t21.5 5.5h4q38 0 59.5 40.5t21.5 111.5v129q0 168 145 168h11q17 0 22 -5t5 -22v-6q0 -17 -5 -22t-22 -5h-7q-82 0 -82 -112v-138q0 -134 -77 -169q77 -33 77 -169v-156q0 -112 82 -112h7q17 0 22 -5t5 -22v-6q0 -17 -5 -22t-22 -5h-11
q-70 0 -107.5 43t-37.5 125v147q0 71 -21.5 111.5t-59.5 40.5h-4q-16 0 -21.5 5.5t-5.5 21.5z" />
    <glyph glyph-name="bar" unicode="|" horiz-adv-x="228" 
d="M148 703v-906q0 -18 -6 -24t-24 -6h-8q-18 0 -24 6t-6 24v906q0 18 6 24t24 6h8q18 0 24 -6t6 -24z" />
    <glyph glyph-name="braceright" unicode="}" horiz-adv-x="361" 
d="M332 262v-6q0 -16 -5 -21.5t-22 -5.5h-4q-38 0 -59 -40t-21 -112v-147q0 -81 -38 -124.5t-108 -43.5h-11q-16 0 -21.5 5t-5.5 22v6q0 17 5.5 22t21.5 5h7q82 0 82 112v156q0 136 77 169q-77 36 -77 169v138q0 112 -82 112h-7q-16 0 -21.5 5t-5.5 22v6q0 17 5.5 22t21.5 5
h11q146 0 146 -168v-129q0 -72 21 -112t59 -40h4q17 0 22 -5.5t5 -21.5z" />
    <glyph glyph-name="asciitilde" unicode="~" horiz-adv-x="542" 
d="M76 203h-8q-15 0 -20 4.5t-4 17.5q4 64 35 98t87 34q65 0 117 -52t94 -52q59 0 65 76q1 13 6 17t20 4h8q15 0 20 -4.5t4 -16.5q-4 -63 -35.5 -98t-85.5 -35q-61 0 -117 51q-48 52 -95 52q-56 0 -65 -75q-2 -13 -6.5 -17t-19.5 -4z" />
    <glyph glyph-name="uni00A0" unicode="&#xa0;" horiz-adv-x="0" 
 />
    <glyph glyph-name="exclamdown" unicode="&#xa1;" horiz-adv-x="258" 
d="M133 -160h-11q-20 0 -26 6t-6 26v199q0 120 11 227q2 13 7 18.5t17 5.5h6q12 0 17 -5.5t7 -18.5q10 -80 10 -227v-199q0 -20 -6.5 -26t-25.5 -6zM167 481q15 -15 15 -37t-16 -38q-15 -15 -37 -15t-38 15q-15 16 -15 38t15 37q15 16 38 16t38 -16z" />
    <glyph glyph-name="cent" unicode="&#xa2;" horiz-adv-x="420" 
d="M230 8v55q-93 8 -137 58.5t-44 148.5v93q0 191 181 207v55q0 17 5 22t22 5h7q16 0 21.5 -5t5.5 -22v-54q17 -2 58 -11q19 -5 24 -11.5t5 -24.5v-10q0 -19 -7 -24.5t-25 0.5q-39 11 -79 11q-78 0 -110.5 -32.5t-32.5 -107.5v-90q0 -75 34 -107t112 -32q47 0 88 11
q17 4 23.5 -1t6.5 -24v-9q0 -18 -6 -25t-25 -12q-35 -8 -66 -10v-54q0 -16 -5.5 -21.5t-21.5 -5.5h-7q-17 0 -22 5.5t-5 21.5z" />
    <glyph glyph-name="sterling" unicode="&#xa3;" horiz-adv-x="496" 
d="M461 42v-11q0 -19 -6 -25t-25 -6h-222q-57 0 -82.5 26t-25.5 82v188h-57q-14 0 -19 5t-5 19v9q0 14 5 19t19 5h57v87q0 111 47 165t146 54q57 0 97 -12q20 -5 26 -12t6 -25v-9q0 -19 -6.5 -24.5t-24.5 -1.5q-55 11 -96 11q-65 0 -91.5 -35.5t-26.5 -121.5v-76h143
q14 0 19 -5t5 -19v-9q0 -14 -5 -19t-19 -5h-143v-176q0 -47 48 -47h205q19 0 25 -6t6 -25z" />
    <glyph glyph-name="currency" unicode="&#xa4;" horiz-adv-x="638" 
d="M320 181q-37 0 -67 18l-120 -121q-13 -14 -22 -14t-22 14l-8 8q-13 14 -13 22t13 22l116 115q-21 30 -21 71q0 40 21 71l-115 115q-14 14 -14 22t14 22l7 7q13 13 22 13t22 -13l120 -120q30 18 67 18q36 0 66 -18l119 120q13 13 22 13t22 -13l7 -7q14 -14 14 -22t-14 -22
l-114 -114q20 -32 20 -72t-21 -72l115 -114q14 -14 14 -22t-14 -22l-7 -7q-13 -13 -22 -13t-22 13l-120 120q-30 -18 -65 -18zM320 234q34 0 58 24t24 58t-24 58t-58 24q-35 0 -59 -23.5t-24 -58.5t24 -58.5t59 -23.5z" />
    <glyph glyph-name="yen" unicode="&#xa5;" horiz-adv-x="600" 
d="M94 257v7q0 14 5 19t19 5h128q-30 7 -47 27q-18 22 -43 74l-109 227q-10 20 -5.5 27t26.5 7h10q23 0 33.5 -7t20.5 -28l99 -215q19 -42 32.5 -55t40.5 -13q26 0 40 13t33 55l98 215q10 21 20.5 28t33.5 7h11q22 0 26.5 -7t-5.5 -27l-109 -227q-27 -57 -44 -74
q-17 -20 -46 -27h127q14 0 19 -5t5 -19v-7q0 -14 -5 -19t-19 -5h-146v-85h146q14 0 19 -5t5 -19v-7q0 -14 -5 -19t-19 -5h-146v-59q0 -20 -7 -27t-27 -7h-10q-20 0 -27 7t-7 27v59h-147q-14 0 -19 5t-5 19v7q0 14 5 19t19 5h147v85h-147q-14 0 -19 5t-5 19z" />
    <glyph glyph-name="brokenbar" unicode="&#xa6;" horiz-adv-x="225" 
d="M147 703v-326q0 -18 -6 -24t-24 -6h-9q-18 0 -24 6t-6 24v326q0 18 6 24t24 6h9q18 0 24 -6t6 -24zM147 144v-347q0 -18 -6 -24t-24 -6h-9q-18 0 -24 6t-6 24v347q0 18 6 24t24 6h9q18 0 24 -6t6 -24z" />
    <glyph glyph-name="section" unicode="&#xa7;" horiz-adv-x="534" 
d="M64 -150v14q0 19 6.5 24t24.5 -1q63 -25 155 -25q76 0 110 18t34 60q0 31 -21 52q-21 23 -73 56l-137 88q-53 33 -77 70.5t-24 90.5q0 99 85 124q-85 58 -85 142q0 142 202 142q75 0 142 -23q19 -7 24.5 -13t5.5 -24v-14q0 -19 -6.5 -24t-23.5 1q-58 23 -141 23
q-66 0 -94.5 -16.5t-28.5 -54.5q0 -29 14.5 -46.5t57.5 -44.5l140 -85q65 -40 92 -76.5t27 -89.5q0 -104 -96 -130q53 -40 74.5 -72t21.5 -76q0 -152 -225 -152q-86 0 -154 24q-19 6 -24.5 13t-5.5 25zM140 301q0 -32 16 -54.5t57 -50.5l105 -69q41 5 59.5 25t18.5 60
q0 59 -95 115l-95 57q-35 -5 -50.5 -25t-15.5 -58z" />
    <glyph glyph-name="dieresis" unicode="&#xa8;" horiz-adv-x="348" 
d="M48 794q0 19 13 32.5t32 13.5t32 -13t13 -33q0 -18 -13 -31t-32 -13t-32 13t-13 31zM210 794q0 20 13 33t33 13q18 0 31 -13.5t13 -32.5q0 -18 -13 -31t-31 -13q-19 0 -32.5 13t-13.5 31z" />
    <glyph glyph-name="copyright" unicode="&#xa9;" horiz-adv-x="830" 
d="M259 304v95q0 76 44.5 115.5t129.5 39.5q37 0 74 -9q15 -4 20 -9.5t5 -20.5v-8q0 -15 -5 -20t-20 -1q-31 9 -72 9q-58 0 -84.5 -24t-26.5 -74v-93q0 -51 28 -72.5t92 -21.5q42 0 72 8q24 8 24 -22v-9q0 -14 -6 -20t-22 -9q-29 -7 -69 -7q-96 0 -140 36t-44 117zM165 602
q104 104 249 104q147 0 251 -104q103 -103 103 -250t-103 -250t-251 -103q-146 0 -249 103t-103 250t103 250zM414 47q127 0 216 89q90 90 90 216q0 128 -90 216q-88 90 -216 90q-125 0 -215 -90q-89 -92 -89 -216t89 -216q92 -89 215 -89z" />
    <glyph glyph-name="guillemotleft" unicode="&#xab;" horiz-adv-x="479" 
d="M220 49h-11q-31 0 -51 24l-97 116q-31 34 -31 61q0 24 31 61l97 116q20 24 51 24h11q19 0 21 -5t-10 -19l-121 -147q-17 -20 -17 -30q0 -7 17 -30l121 -147q12 -14 10 -19t-21 -5zM405 49h-10q-31 0 -51 24l-98 116q-30 35 -30 61q0 24 30 61l98 116q20 24 51 24h10
q19 0 21 -5t-10 -19l-121 -147q-17 -20 -17 -30t17 -30l121 -147q12 -14 10 -19t-21 -5z" />
    <glyph glyph-name="logicalnot" unicode="&#xac;" horiz-adv-x="521" 
d="M475 356v-131q0 -18 -6 -24t-24 -6h-9q-18 0 -24 6t-6 24v123q0 36 -36 36h-318q-16 0 -22 6t-6 22v7q0 17 6 22.5t22 5.5h332q47 0 69 -21.5t22 -69.5z" />
    <glyph glyph-name="registered" unicode="&#xae;" horiz-adv-x="830" 
d="M165 602q104 104 249 104q147 0 251 -104q103 -103 103 -250t-103 -250t-251 -103q-146 0 -249 103t-103 250t103 250zM414 47q127 0 216 89q90 90 90 216q0 128 -90 216q-88 90 -216 90q-125 0 -215 -90q-89 -92 -89 -216t89 -216q92 -89 215 -89zM485 185l-70 130h-69
v-130q0 -17 -5 -22t-22 -5h-9q-16 0 -21.5 5t-5.5 22v261q0 52 23.5 76t76.5 24h48q132 0 132 -114q0 -92 -84 -111l76 -136q9 -17 6 -22t-22 -5h-8q-19 0 -28 5.5t-18 21.5zM430 489h-42q-42 0 -42 -42v-76h78q41 0 57.5 13.5t16.5 45.5q0 31 -16 45t-52 14z" />
    <glyph glyph-name="degree" unicode="&#xb0;" horiz-adv-x="386" 
d="M337 589q0 -61 -42 -103q-41 -41 -102 -41q-60 0 -104 41q-41 41 -41 103q0 61 42 102q42 42 103 42t102 -42q42 -42 42 -102zM281 589q0 38 -24.5 63.5t-62.5 25.5q-39 0 -64 -25.5t-25 -63.5q0 -39 25 -64.5t64 -25.5q34 0 60.5 27t26.5 63z" />
    <glyph glyph-name="plusminus" unicode="&#xb1;" horiz-adv-x="556" 
d="M501 75v-8q0 -17 -5.5 -22.5t-22.5 -5.5h-390q-17 0 -22.5 5.5t-5.5 22.5v8q0 17 5.5 22.5t22.5 5.5h160v181h-160q-17 0 -22.5 6t-5.5 22v8q0 16 5.5 22t22.5 6h160v158q0 18 6 24t24 6h9q18 0 24 -6t6 -24v-158h161q17 0 22.5 -6t5.5 -22v-8q0 -16 -5.5 -22t-22.5 -6
h-161v-181h161q17 0 22.5 -5.5t5.5 -22.5z" />
    <glyph glyph-name="acute" unicode="&#xb4;" horiz-adv-x="255" 
d="M187 857l-50 -83q-15 -24 -43 -24h-10q-17 0 -20 5t5 20l42 81q10 18 20 24t30 6h10q20 0 23.5 -6t-7.5 -23z" />
    <glyph glyph-name="mu" unicode="&#xb5;" horiz-adv-x="539" 
d="M69 -168v629q0 19 6.5 25.5t25.5 6.5h11q20 0 26 -6.5t6 -25.5v-289q0 -60 31 -85.5t103 -25.5t102 27t30 90v283q0 19 6 25.5t26 6.5h12q20 0 26 -6.5t6 -25.5v-283q0 -98 -56 -143t-139 -45q-105 0 -147 62v-220q0 -20 -6 -26t-26 -6h-11q-19 0 -25.5 6t-6.5 26z" />
    <glyph glyph-name="paragraph" unicode="&#xb6;" horiz-adv-x="543" 
d="M27 469q0 84 53 132.5t146 48.5h135q57 0 83 -26t26 -82v-601q0 -17 -5 -22t-22 -5h-8q-17 0 -22 5t-5 22v589q0 56 -56 56h-77v-349q0 -107 -24 -183q-22 -73 -94 -136q-19 -16 -36 6l-4 6q-15 22 6 40q50 45 70 107t20 160v47q-84 0 -135 53t-51 132z" />
    <glyph glyph-name="middot" unicode="&#xb7;" horiz-adv-x="189" 
d="M95 369q22 0 37.5 -15.5t15.5 -37.5t-15.5 -37.5t-37.5 -15.5t-38 15.5t-16 37.5t15.5 37.5t38.5 15.5z" />
    <glyph glyph-name="cedilla" unicode="&#xb8;" horiz-adv-x="227" 
d="M56 -59l22 84h45l-17 -67q90 10 90 -67q0 -44 -24 -63.5t-75 -19.5q-18 0 -40 5q-11 2 -14.5 6.5t-3.5 15.5v6q0 20 19 16q15 -3 32 -3q27 0 38 8t11 29q0 19 -10 26.5t-35 7.5q-16 0 -21 -1q-14 -2 -17 1t0 16z" />
    <glyph glyph-name="guillemotright" unicode="&#xbb;" horiz-adv-x="479" 
d="M271 49h-10q-19 0 -21 5t10 19l121 147q17 20 17 30t-17 30l-121 147q-12 14 -10 19t21 5h10q31 0 51 -24l98 -116q30 -38 30 -61q0 -26 -30 -61l-98 -116q-20 -24 -51 -24zM86 49h-10q-19 0 -21 5t10 19l121 147q16 19 16 30t-16 30l-121 147q-12 14 -10 19t21 5h10
q32 0 51 -24l98 -116q30 -35 30 -61t-30 -61l-98 -116q-19 -24 -51 -24z" />
    <glyph glyph-name="questiondown" unicode="&#xbf;" horiz-adv-x="408" 
d="M238 449q0 23 15 38t38 15q35 0 48 -33q14 -33 -11 -58q-24 -24 -57 -11q-33 14 -33 49zM47 21q0 71 32 112q30 37 94 76q69 42 81 91q5 21 31 21h10q17 0 23.5 -5t6.5 -19q0 -77 -110 -148q-40 -26 -62 -47q-28 -28 -28 -81q0 -61 29 -86.5t97 -25.5q41 0 85 11
q18 4 24 -0.5t6 -23.5v-15q0 -17 -6 -24.5t-25 -11.5q-43 -9 -82 -9q-107 0 -156.5 44t-49.5 141z" />
    <glyph glyph-name="Agrave" unicode="&#xc0;" horiz-adv-x="609" 
d="M450 512l134 -479q5 -19 0 -26t-25 -7h-10q-21 0 -29.5 6.5t-13.5 26.5l-47 168h-299l-46 -168q-5 -20 -13.5 -26.5t-29.5 -6.5h-11q-20 0 -25 7t0 26l134 479q24 86 51 116q28 31 90 31t89 -31q28 -30 51 -116zM248 521l-69 -249h261l-69 249q-11 41 -23.5 54.5
t-37.5 13.5q-26 0 -38.5 -13.5t-23.5 -54.5zM265 722l-50 83q-11 17 -7.5 23t23.5 6h10q20 0 30 -6t20 -24l42 -81q7 -15 4.5 -20t-19.5 -5h-10q-28 0 -43 24z" />
    <glyph glyph-name="Aacute" unicode="&#xc1;" horiz-adv-x="609" 
d="M450 512l134 -479q5 -19 0 -26t-25 -7h-10q-21 0 -29.5 6.5t-13.5 26.5l-47 168h-299l-46 -168q-5 -20 -13.5 -26.5t-29.5 -6.5h-11q-20 0 -25 7t0 26l134 479q24 86 51 116q28 31 90 31t89 -31q28 -30 51 -116zM248 521l-69 -249h261l-69 249q-11 41 -23.5 54.5
t-37.5 13.5q-26 0 -38.5 -13.5t-23.5 -54.5zM398 805l-50 -83q-15 -24 -43 -24h-10q-16 0 -19 5t4 20l42 81q10 18 20 24t30 6h10q20 0 23.5 -6t-7.5 -23z" />
    <glyph glyph-name="Acircumflex" unicode="&#xc2;" horiz-adv-x="609" 
d="M450 512l134 -479q5 -19 0 -26t-25 -7h-10q-21 0 -29.5 6.5t-13.5 26.5l-47 168h-299l-46 -168q-5 -20 -13.5 -26.5t-29.5 -6.5h-11q-20 0 -25 7t0 26l134 479q24 86 51 116q28 31 90 31t89 -31q28 -30 51 -116zM248 521l-69 -249h261l-69 249q-11 41 -23.5 54.5
t-37.5 13.5q-26 0 -38.5 -13.5t-23.5 -54.5zM201 724l38 59q19 29 33 39t38 10q25 0 39 -10t32 -39l38 -59q9 -14 6 -18.5t-19 -4.5h-8q-27 0 -41 23l-23 39q-24 42 -48 0l-22 -39q-14 -23 -41 -23h-9q-16 0 -18.5 4.5t5.5 18.5z" />
    <glyph glyph-name="Atilde" unicode="&#xc3;" horiz-adv-x="609" 
d="M450 512l134 -479q5 -19 0 -26t-25 -7h-10q-21 0 -29.5 6.5t-13.5 26.5l-47 168h-299l-46 -168q-5 -20 -13.5 -26.5t-29.5 -6.5h-11q-20 0 -25 7t0 26l134 479q24 86 51 116q28 31 90 31t89 -31q28 -30 51 -116zM248 521l-69 -249h261l-69 249q-11 41 -23.5 54.5
t-37.5 13.5q-26 0 -38.5 -13.5t-23.5 -54.5zM184 715h-7q-13 0 -17.5 4t-3.5 15q8 90 87 90q33 0 77 -32t60 -32q29 0 34 38q1 11 5.5 15t17.5 4h6q13 0 17.5 -4t3.5 -15q-6 -90 -87 -90q-33 0 -77 32t-59 32q-29 0 -34 -38q-1 -11 -5.5 -15t-17.5 -4z" />
    <glyph glyph-name="Adieresis" unicode="&#xc4;" horiz-adv-x="609" 
d="M450 512l134 -479q5 -19 0 -26t-25 -7h-10q-21 0 -29.5 6.5t-13.5 26.5l-47 168h-299l-46 -168q-5 -20 -13.5 -26.5t-29.5 -6.5h-11q-20 0 -25 7t0 26l134 479q24 86 51 116q28 31 90 31t89 -31q28 -30 51 -116zM248 521l-69 -249h261l-69 249q-11 41 -23.5 54.5
t-37.5 13.5q-26 0 -38.5 -13.5t-23.5 -54.5zM184 765q0 19 13 32.5t32 13.5t32 -13t13 -33q0 -18 -13 -31t-32 -13t-32 13t-13 31zM346 765q0 19 13.5 32.5t32.5 13.5q18 0 31 -13.5t13 -32.5q0 -18 -13 -31t-31 -13q-19 0 -32.5 13t-13.5 31z" />
    <glyph glyph-name="Aring" unicode="&#xc5;" horiz-adv-x="609" 
d="M450 512l134 -479q5 -19 0 -26t-25 -7h-10q-21 0 -29.5 6.5t-13.5 26.5l-47 168h-299l-46 -168q-5 -20 -13.5 -26.5t-29.5 -6.5h-11q-20 0 -25 7t0 26l134 479q24 86 51 116q28 31 90 31t89 -31q28 -30 51 -116zM248 521l-69 -249h261l-69 249q-11 41 -23.5 54.5
t-37.5 13.5q-26 0 -38.5 -13.5t-23.5 -54.5zM309 680q-37 0 -61.5 24t-24.5 62q0 40 23 63q24 24 63 24t63 -24q25 -24 25 -63t-24.5 -62.5t-63.5 -23.5zM309 720q21 0 34 13.5t13 32.5q0 47 -47 47q-21 0 -33 -13t-12 -34q0 -19 12.5 -32.5t32.5 -13.5z" />
    <glyph glyph-name="AE" unicode="&#xc6;" horiz-adv-x="864" 
d="M753 302h-273v-182q0 -47 48 -47h265q19 0 25 -6t6 -25v-11q0 -19 -6 -25t-25 -6h-282q-57 0 -82.5 26t-25.5 82v93h-240l-49 -168q-6 -20 -15 -26.5t-29 -6.5h-10q-20 0 -25 7t1 26l141 470q26 86 53 116q28 31 89 31h474q19 0 25 -6t6 -25v-11q0 -19 -6 -25t-25 -6
h-265q-48 0 -48 -47v-155h273q19 0 25 -6t6 -25v-11q0 -19 -6 -25t-25 -6zM255 511l-71 -239h219v257q0 34 11 48h-99q-24 0 -36.5 -13.5t-23.5 -52.5z" />
    <glyph glyph-name="Ccedilla" unicode="&#xc7;" horiz-adv-x="524" 
d="M135 399v-160q0 -90 42 -133t134 -43q75 0 144 26q17 7 23.5 2t6.5 -24v-12q0 -16 -6 -24t-24 -16q-51 -23 -130 -25l-8 -32q90 10 90 -67q0 -44 -24 -63.5t-75 -19.5q-18 0 -40 5q-11 2 -14.5 6.5t-3.5 15.5v6q0 20 19 16q15 -3 32 -3q27 0 38 8t11 29q0 19 -10 26.5
t-35 7.5q-16 0 -21 -1q-14 -2 -17 1t0 16l13 50q-114 7 -169 67.5t-55 180.5v160q0 260 255 260q72 0 139 -26q17 -7 23 -14.5t6 -23.5v-13q0 -36 -31 -23q-63 27 -140 27q-90 0 -131.5 -45t-41.5 -142z" />
    <glyph glyph-name="Egrave" unicode="&#xc8;" horiz-adv-x="542" 
d="M427 302h-273v-182q0 -25 11 -36t36 -11h266q19 0 25 -6t6 -25v-11q0 -19 -6 -25t-25 -6h-283q-57 0 -82.5 26t-25.5 82v434q0 56 25.5 82t82.5 26h283q19 0 25 -6t6 -25v-11q0 -19 -6 -25t-25 -6h-266q-25 0 -36 -11t-11 -36v-155h273q19 0 25 -6t6 -25v-11
q0 -19 -6 -25t-25 -6zM250 722l-50 83q-11 17 -7.5 23t23.5 6h10q20 0 30 -6t20 -24l42 -81q8 -15 5 -20t-20 -5h-10q-28 0 -43 24z" />
    <glyph glyph-name="Eacute" unicode="&#xc9;" horiz-adv-x="542" 
d="M427 302h-273v-182q0 -25 11 -36t36 -11h266q19 0 25 -6t6 -25v-11q0 -19 -6 -25t-25 -6h-283q-57 0 -82.5 26t-25.5 82v434q0 56 25.5 82t82.5 26h283q19 0 25 -6t6 -25v-11q0 -19 -6 -25t-25 -6h-266q-25 0 -36 -11t-11 -36v-155h273q19 0 25 -6t6 -25v-11
q0 -19 -6 -25t-25 -6zM364 805l-50 -83q-15 -24 -43 -24h-10q-17 0 -20 5t5 20l42 81q10 18 20 24t30 6h10q20 0 23.5 -6t-7.5 -23z" />
    <glyph glyph-name="Ecircumflex" unicode="&#xca;" horiz-adv-x="542" 
d="M427 302h-273v-182q0 -25 11 -36t36 -11h266q19 0 25 -6t6 -25v-11q0 -19 -6 -25t-25 -6h-283q-57 0 -82.5 26t-25.5 82v434q0 56 25.5 82t82.5 26h283q19 0 25 -6t6 -25v-11q0 -19 -6 -25t-25 -6h-266q-25 0 -36 -11t-11 -36v-155h273q19 0 25 -6t6 -25v-11
q0 -19 -6 -25t-25 -6zM182 724l38 59q19 29 33 39t38 10q25 0 39 -10t32 -39l38 -59q9 -14 6 -18.5t-19 -4.5h-8q-27 0 -41 23l-23 39q-24 42 -48 0l-22 -39q-14 -23 -41 -23h-9q-16 0 -18.5 4.5t5.5 18.5z" />
    <glyph glyph-name="Edieresis" unicode="&#xcb;" horiz-adv-x="542" 
d="M427 302h-273v-182q0 -25 11 -36t36 -11h266q19 0 25 -6t6 -25v-11q0 -19 -6 -25t-25 -6h-283q-57 0 -82.5 26t-25.5 82v434q0 56 25.5 82t82.5 26h283q19 0 25 -6t6 -25v-11q0 -19 -6 -25t-25 -6h-266q-25 0 -36 -11t-11 -36v-155h273q19 0 25 -6t6 -25v-11
q0 -19 -6 -25t-25 -6zM165 765q0 19 13 32.5t32 13.5t32 -13t13 -33q0 -18 -13 -31t-32 -13t-32 13t-13 31zM327 765q0 19 13.5 32.5t32.5 13.5q18 0 31 -13.5t13 -32.5q0 -18 -13 -31t-31 -13q-19 0 -32.5 13t-13.5 31z" />
    <glyph glyph-name="Igrave" unicode="&#xcc;" horiz-adv-x="242" 
d="M85 34v582q0 20 7 27t27 7h10q20 0 27 -7t7 -27v-582q0 -20 -7 -27t-27 -7h-10q-20 0 -27 7t-7 27zM80 722l-50 83q-11 17 -7.5 23t23.5 6h10q20 0 30 -6t20 -24l42 -81q8 -15 5 -20t-20 -5h-10q-28 0 -43 24z" />
    <glyph glyph-name="Iacute" unicode="&#xcd;" horiz-adv-x="242" 
d="M82 34v582q0 20 7 27t27 7h10q20 0 27 -7t7 -27v-582q0 -20 -7 -27t-27 -7h-10q-20 0 -27 7t-7 27zM214 805l-50 -83q-15 -24 -43 -24h-10q-17 0 -20 5t5 20l42 81q10 18 20 24t30 6h10q20 0 23.5 -6t-7.5 -23z" />
    <glyph glyph-name="Icircumflex" unicode="&#xce;" horiz-adv-x="242" 
d="M84 34v582q0 20 7 27t27 7h10q20 0 27 -7t7 -27v-582q0 -20 -7 -27t-27 -7h-10q-20 0 -27 7t-7 27zM14 724l38 59q19 29 33 39t38 10q25 0 39 -10t32 -39l38 -59q9 -14 6 -18.5t-19 -4.5h-8q-27 0 -41 23l-23 39q-24 42 -48 0l-22 -39q-14 -23 -41 -23h-9
q-16 0 -18.5 4.5t5.5 18.5z" />
    <glyph glyph-name="Idieresis" unicode="&#xcf;" horiz-adv-x="242" 
d="M82 34v582q0 20 7 27t27 7h10q20 0 27 -7t7 -27v-582q0 -20 -7 -27t-27 -7h-10q-20 0 -27 7t-7 27zM-5 765q0 19 13 32.5t32 13.5t32 -13t13 -33q0 -18 -13 -31t-32 -13t-32 13t-13 31zM157 765q0 19 13.5 32.5t32.5 13.5q18 0 31 -13.5t13 -32.5q0 -18 -13 -31t-31 -13
q-19 0 -32.5 13t-13.5 31z" />
    <glyph glyph-name="Eth" unicode="&#xd0;" horiz-adv-x="607" 
d="M87 108v189h-47q-14 0 -19 5t-5 19v8q0 14 5 19t19 5h47v189q0 56 26 82t83 26h84q153 0 218 -56q64 -55 64 -201v-136q0 -140 -65 -199q-64 -58 -217 -58h-84q-57 0 -83 26t-26 82zM213 73h67q118 0 160 39q43 40 43 145v136q0 104 -43 144q-40 40 -160 40h-67
q-48 0 -48 -47v-177h77q14 0 19 -5t5 -19v-8q0 -14 -5 -19t-19 -5h-77v-177q0 -47 48 -47z" />
    <glyph glyph-name="Ntilde" unicode="&#xd1;" horiz-adv-x="637" 
d="M76 34v513q0 59 24 85.5t75 26.5q44 0 66.5 -20t37.5 -72l147 -473q7 -21 14.5 -28.5t19.5 -7.5q24 0 24 38v520q0 20 7 27t27 7h9q20 0 27 -7t7 -27v-513q0 -59 -23.5 -85.5t-72.5 -26.5q-45 0 -69 21.5t-40 75.5l-145 465q-7 23 -13.5 31t-19.5 8q-26 0 -26 -40v-518
q0 -20 -7 -27t-27 -7h-8q-20 0 -27 7t-7 27zM192 715h-7q-13 0 -17.5 4t-3.5 15q8 90 87 90q31 0 78 -32t59 -32q29 0 34 38q1 11 5.5 15t17.5 4h6q13 0 17.5 -4t3.5 -15q-6 -90 -87 -90q-33 0 -77 32t-59 32q-29 0 -34 -38q-1 -11 -5.5 -15t-17.5 -4z" />
    <glyph glyph-name="Ograve" unicode="&#xd2;" 
d="M488 251v146q0 101 -36 144q-36 45 -141 45t-141 -45q-36 -43 -36 -144v-146q0 -99 36 -144q36 -44 141 -44t141 44q36 45 36 144zM311 -10q-144 0 -200 65q-55 64 -55 196v146q0 131 56 196t199 65t199 -65t56 -196v-146q0 -131 -56 -196t-199 -65zM274 722l-50 83
q-11 17 -7.5 23t23.5 6h10q20 0 30 -6t20 -24l42 -81q8 -15 5 -20t-20 -5h-10q-28 0 -43 24z" />
    <glyph glyph-name="Oacute" unicode="&#xd3;" 
d="M488 251v146q0 101 -36 144q-36 45 -141 45t-141 -45q-36 -43 -36 -144v-146q0 -99 36 -144q36 -44 141 -44t141 44q36 45 36 144zM311 -10q-144 0 -200 65q-55 64 -55 196v146q0 131 56 196t199 65t199 -65t56 -196v-146q0 -131 -56 -196t-199 -65zM382 805l-50 -83
q-15 -24 -43 -24h-10q-16 0 -19 5t4 20l42 81q10 18 20 24t30 6h10q20 0 23.5 -6t-7.5 -23z" />
    <glyph glyph-name="Ocircumflex" unicode="&#xd4;" 
d="M488 251v146q0 101 -36 144q-36 45 -141 45t-141 -45q-36 -43 -36 -144v-146q0 -99 36 -144q36 -44 141 -44t141 44q36 45 36 144zM311 -10q-144 0 -200 65q-55 64 -55 196v146q0 131 56 196t199 65t199 -65t56 -196v-146q0 -131 -56 -196t-199 -65zM202 724l38 59
q19 29 33 39t38 10q25 0 39 -10t32 -39l38 -59q9 -14 6 -18.5t-19 -4.5h-8q-27 0 -41 23l-23 39q-24 42 -48 0l-22 -39q-14 -23 -41 -23h-9q-16 0 -18.5 4.5t5.5 18.5z" />
    <glyph glyph-name="Otilde" unicode="&#xd5;" 
d="M488 251v146q0 101 -36 144q-36 45 -141 45t-141 -45q-36 -43 -36 -144v-146q0 -99 36 -144q36 -44 141 -44t141 44q36 45 36 144zM311 -10q-144 0 -200 65q-55 64 -55 196v146q0 131 56 196t199 65t199 -65t56 -196v-146q0 -131 -56 -196t-199 -65zM182 715h-7
q-13 0 -17.5 4t-3.5 15q8 90 87 90q31 0 78 -32t59 -32q29 0 34 38q1 11 5.5 15t17.5 4h6q13 0 17.5 -4t3.5 -15q-6 -90 -87 -90q-33 0 -77 32t-59 32q-29 0 -34 -38q-1 -11 -5.5 -15t-17.5 -4z" />
    <glyph glyph-name="Odieresis" unicode="&#xd6;" 
d="M488 251v146q0 101 -36 144q-36 45 -141 45t-141 -45q-36 -43 -36 -144v-146q0 -99 36 -144q36 -44 141 -44t141 44q36 45 36 144zM311 -10q-144 0 -200 65q-55 64 -55 196v146q0 131 56 196t199 65t199 -65t56 -196v-146q0 -131 -56 -196t-199 -65zM185 765
q0 19 13 32.5t32 13.5t32 -13t13 -33q0 -18 -13 -31t-32 -13t-32 13t-13 31zM347 765q0 19 13.5 32.5t32.5 13.5q18 0 31 -13.5t13 -32.5q0 -18 -13 -31t-31 -13q-19 0 -32.5 13t-13.5 31z" />
    <glyph glyph-name="multiply" unicode="&#xd7;" horiz-adv-x="532" 
d="M456 470l-144 -145l144 -145q11 -11 11 -19t-11 -19l-7 -7q-11 -11 -19 -11t-19 11l-145 144l-144 -144q-11 -11 -18.5 -11t-19.5 11l-8 7q-12 11 -11.5 19t11.5 19l144 145l-144 145q-11 11 -11.5 19t11.5 19l8 7q12 11 19.5 11t18.5 -11l144 -144l145 144q11 11 19 11
t19 -11l7 -7q11 -11 11 -19t-11 -19z" />
    <glyph glyph-name="Oslash" unicode="&#xd8;" 
d="M311 -10q-89 0 -143 27l-17 -29q-7 -13 -14.5 -14.5t-21.5 5.5l-6 3q-25 13 -10 36l18 31q-61 60 -61 202v146q0 131 56 196t199 65q89 0 142 -27l17 30q12 21 37 9l6 -3q23 -11 9 -36l-18 -32q62 -62 62 -202v-146q0 -131 -56 -196t-199 -65zM488 251v146q0 95 -30 134
l-258 -446q37 -22 111 -22q105 0 141 44q36 45 36 144zM134 397v-146q0 -92 29 -133l258 446q-40 22 -110 22q-105 0 -141 -45q-36 -43 -36 -144z" />
    <glyph glyph-name="Ugrave" unicode="&#xd9;" 
d="M66 207v409q0 20 7 27t27 7h10q20 0 27 -7t7 -27v-409q0 -77 40 -110.5t127 -33.5t127 33.5t40 110.5v409q0 20 7 27t27 7h10q20 0 27 -7t7 -27v-409q0 -217 -245 -217t-245 217zM262 722l-50 83q-11 17 -7.5 23t23.5 6h10q20 0 30 -6t20 -24l42 -81q8 -15 5 -20t-20 -5
h-10q-28 0 -43 24z" />
    <glyph glyph-name="Uacute" unicode="&#xda;" 
d="M66 207v409q0 20 7 27t27 7h10q20 0 27 -7t7 -27v-409q0 -77 40 -110.5t127 -33.5t127 33.5t40 110.5v409q0 20 7 27t27 7h10q20 0 27 -7t7 -27v-409q0 -217 -245 -217t-245 217zM374 805l-50 -83q-15 -24 -43 -24h-10q-16 0 -19 5t4 20l42 81q10 18 20 24t30 6h10
q20 0 23.5 -6t-7.5 -23z" />
    <glyph glyph-name="Ucircumflex" unicode="&#xdb;" 
d="M66 207v409q0 20 7 27t27 7h10q20 0 27 -7t7 -27v-409q0 -77 40 -110.5t127 -33.5t127 33.5t40 110.5v409q0 20 7 27t27 7h10q20 0 27 -7t7 -27v-409q0 -217 -245 -217t-245 217zM202 724l38 59q19 29 33 39t38 10q25 0 39 -10t32 -39l38 -59q9 -14 6 -18.5t-19 -4.5h-8
q-27 0 -41 23l-23 39q-24 42 -48 0l-22 -39q-14 -23 -41 -23h-9q-16 0 -18.5 4.5t5.5 18.5z" />
    <glyph glyph-name="Udieresis" unicode="&#xdc;" 
d="M66 207v409q0 20 7 27t27 7h10q20 0 27 -7t7 -27v-409q0 -77 40 -110.5t127 -33.5t127 33.5t40 110.5v409q0 20 7 27t27 7h10q20 0 27 -7t7 -27v-409q0 -217 -245 -217t-245 217zM185 765q0 19 13 32.5t32 13.5t32 -13t13 -33q0 -18 -13 -31t-32 -13t-32 13t-13 31z
M347 765q0 19 13.5 32.5t32.5 13.5q18 0 31 -13.5t13 -32.5q0 -18 -13 -31t-31 -13q-19 0 -32.5 13t-13.5 31z" />
    <glyph glyph-name="Yacute" unicode="&#xdd;" horiz-adv-x="606" 
d="M268 35v233q-32 8 -49 26q-15 15 -49 77l-133 246q-11 19 -6.5 26t26.5 7h11q23 0 34.5 -7t21.5 -27l112 -214q22 -44 35 -56t36 -12t36 13q14 14 35 55l112 214q10 20 21.5 27t34.5 7h11q22 0 26.5 -7t-6.5 -26l-133 -246q-34 -62 -49 -77q-17 -19 -48 -26v-233
q0 -21 -7 -28t-28 -7h-9q-21 0 -28 7t-7 28zM389 805l-50 -83q-15 -24 -43 -24h-10q-16 0 -19 5t4 20l42 81q10 18 20 24t30 6h10q20 0 23.5 -6t-7.5 -23z" />
    <glyph glyph-name="Thorn" unicode="&#xde;" horiz-adv-x="571" 
d="M76 34v565q0 20 7 27t27 7h10q20 0 27 -7t7 -27v-78h163q116 0 168.5 -48t52.5 -152q0 -103 -53 -152t-168 -49h-163v-86q0 -20 -7 -27t-27 -7h-10q-20 0 -27 7t-7 27zM317 448h-163v-255h163q80 0 111.5 29t31.5 99q0 69 -32.5 98t-110.5 29z" />
    <glyph glyph-name="germandbls" unicode="&#xdf;" horiz-adv-x="529" 
d="M480 143q0 -80 -47.5 -116.5t-147.5 -36.5q-28 0 -51 4q-18 4 -24.5 10.5t-6.5 21.5v17q0 19 6 24t24 1q37 -5 51 -5q64 0 90.5 17t26.5 57q0 29 -17.5 48.5t-42 31t-49 24t-42 35.5t-17.5 57q0 30 17 55.5t43 40.5q61 33 61 83q0 74 -99 74q-63 0 -90 -30.5t-27 -104.5
v-417q0 -20 -7 -27t-27 -7h-10q-20 0 -27 7t-7 27v413q0 110 48 161t149 51q175 0 175 -150q0 -74 -61 -111q-61 -33 -61 -65q0 -25 60 -52q31 -14 51.5 -27t39.5 -42.5t19 -68.5z" />
    <glyph glyph-name="agrave" unicode="&#xe0;" horiz-adv-x="483" 
d="M434 346v-198q0 -83 -50 -120.5t-159 -37.5q-91 0 -139.5 37.5t-48.5 112.5q0 77 49.5 111.5t154.5 34.5h118v60q0 48 -32 69.5t-99 21.5q-61 0 -110 -11q-18 -4 -25 1.5t-7 23.5v8q0 17 6 23.5t24 10.5q44 10 108 10q210 0 210 -157zM359 151v76h-117q-69 0 -99.5 -20
t-30.5 -67q0 -85 112 -85q73 0 104 21.5t31 74.5zM220 573l-50 83q-11 17 -7.5 23t23.5 6h10q20 0 30 -6t20 -24l42 -81q8 -15 5 -20t-20 -5h-10q-28 0 -43 24z" />
    <glyph glyph-name="aacute" unicode="&#xe1;" horiz-adv-x="483" 
d="M434 346v-198q0 -83 -50 -120.5t-159 -37.5q-91 0 -139.5 37.5t-48.5 112.5q0 77 49.5 111.5t154.5 34.5h118v60q0 48 -32 69.5t-99 21.5q-61 0 -110 -11q-18 -4 -25 1.5t-7 23.5v8q0 17 6 23.5t24 10.5q44 10 108 10q210 0 210 -157zM359 151v76h-117q-69 0 -99.5 -20
t-30.5 -67q0 -85 112 -85q73 0 104 21.5t31 74.5zM323 656l-50 -83q-15 -24 -43 -24h-10q-16 0 -19 5t4 20l42 81q10 18 20 24t30 6h10q20 0 23.5 -6t-7.5 -23z" />
    <glyph glyph-name="acircumflex" unicode="&#xe2;" horiz-adv-x="483" 
d="M434 346v-198q0 -83 -50 -120.5t-159 -37.5q-91 0 -139.5 37.5t-48.5 112.5q0 77 49.5 111.5t154.5 34.5h118v60q0 48 -32 69.5t-99 21.5q-61 0 -110 -11q-18 -4 -25 1.5t-7 23.5v8q0 17 6 23.5t24 10.5q44 10 108 10q210 0 210 -157zM359 151v76h-117q-69 0 -99.5 -20
t-30.5 -67q0 -85 112 -85q73 0 104 21.5t31 74.5zM130 575l38 59q19 29 33 39t38 10q25 0 39 -10t32 -39l38 -59q9 -13 6 -18t-19 -5h-8q-27 0 -41 23l-23 39q-24 42 -48 0l-22 -39q-14 -23 -41 -23h-9q-16 0 -18.5 5t5.5 18z" />
    <glyph glyph-name="atilde" unicode="&#xe3;" horiz-adv-x="483" 
d="M434 346v-198q0 -83 -50 -120.5t-159 -37.5q-91 0 -139.5 37.5t-48.5 112.5q0 77 49.5 111.5t154.5 34.5h118v60q0 48 -32 69.5t-99 21.5q-61 0 -110 -11q-18 -4 -25 1.5t-7 23.5v8q0 17 6 23.5t24 10.5q44 10 108 10q210 0 210 -157zM359 151v76h-117q-69 0 -99.5 -20
t-30.5 -67q0 -85 112 -85q73 0 104 21.5t31 74.5zM113 566h-7q-13 0 -17.5 4t-3.5 15q7 90 87 90q33 0 77 -32t60 -32q29 0 34 38q1 11 5.5 15t17.5 4h6q13 0 17.5 -4t3.5 -15q-6 -90 -87 -90q-33 0 -77 32t-59 32q-29 0 -34 -38q-1 -11 -5.5 -15t-17.5 -4z" />
    <glyph glyph-name="adieresis" unicode="&#xe4;" horiz-adv-x="483" 
d="M434 346v-198q0 -83 -50 -120.5t-159 -37.5q-91 0 -139.5 37.5t-48.5 112.5q0 77 49.5 111.5t154.5 34.5h118v60q0 48 -32 69.5t-99 21.5q-61 0 -110 -11q-18 -4 -25 1.5t-7 23.5v8q0 17 6 23.5t24 10.5q44 10 108 10q210 0 210 -157zM359 151v76h-117q-69 0 -99.5 -20
t-30.5 -67q0 -85 112 -85q73 0 104 21.5t31 74.5zM115 617q0 19 13 32.5t32 13.5t32 -13t13 -33q0 -18 -13 -31t-32 -13t-32 13t-13 31zM277 617q0 19 13.5 32.5t32.5 13.5q18 0 31 -13.5t13 -32.5q0 -18 -13 -31t-31 -13q-19 0 -32.5 13t-13.5 31z" />
    <glyph glyph-name="aring" unicode="&#xe5;" horiz-adv-x="483" 
d="M434 346v-198q0 -83 -50 -120.5t-159 -37.5q-91 0 -139.5 37.5t-48.5 112.5q0 77 49.5 111.5t154.5 34.5h118v60q0 48 -32 69.5t-99 21.5q-61 0 -110 -11q-18 -4 -25 1.5t-7 23.5v8q0 17 6 23.5t24 10.5q44 10 108 10q210 0 210 -157zM359 151v76h-117q-69 0 -99.5 -20
t-30.5 -67q0 -85 112 -85q73 0 104 21.5t31 74.5zM255 531q-37 0 -61.5 24t-24.5 62t23 63q24 24 63 24t63 -24q25 -24 25 -63t-24.5 -62.5t-63.5 -23.5zM255 571q21 0 34 13.5t13 32.5q0 47 -47 47q-21 0 -33 -13t-12 -34q0 -19 12.5 -32.5t32.5 -13.5z" />
    <glyph glyph-name="ae" unicode="&#xe6;" horiz-adv-x="814" 
d="M773 303q0 -31 -3 -52q-2 -20 -9.5 -26.5t-26.5 -6.5h-302v-30q0 -68 36.5 -97.5t118.5 -29.5q79 0 136 19q33 9 33 -26v-9q0 -17 -5.5 -23.5t-25.5 -12.5q-57 -19 -137 -19q-77 0 -125.5 24t-59.5 69h-4q-12 -93 -174 -93q-91 0 -139.5 37.5t-48.5 112.5
q0 77 49.5 111.5t154.5 34.5h118v60q0 48 -32 69.5t-99 21.5q-55 0 -110 -11q-18 -4 -25 1.5t-7 23.5v8q0 17 6 23.5t24 10.5q44 10 108 10q74 0 120.5 -24t54.5 -69h4q10 42 54.5 67.5t110.5 25.5q100 0 152.5 -51t52.5 -149zM359 151v76h-117q-69 0 -99.5 -20t-30.5 -67
q0 -85 112 -85q73 0 104 21.5t31 74.5zM432 314v-33h269v33q0 122 -135 122q-134 0 -134 -122z" />
    <glyph glyph-name="ccedilla" unicode="&#xe7;" horiz-adv-x="429" 
d="M49 197v99q0 101 56 154t167 53q52 0 88 -13q18 -6 24 -13.5t6 -24.5v-10q0 -19 -6 -24.5t-24 0.5q-40 14 -86 14q-81 0 -115.5 -32t-34.5 -105v-97q0 -75 36 -106t120 -31q54 0 90 13q17 6 23.5 0t6.5 -25v-10q0 -16 -6.5 -23.5t-25.5 -12.5q-40 -12 -90 -13l-8 -32
q90 10 90 -67q0 -44 -24 -63.5t-75 -19.5q-18 0 -40 5q-11 2 -14.5 6.5t-3.5 15.5v6q0 20 19 16q15 -3 32 -3q27 0 38 8t11 29q0 19 -10 26.5t-35 7.5q-16 0 -21 -1q-14 -2 -17 1t0 16l13 51q-94 8 -139 58.5t-45 146.5z" />
    <glyph glyph-name="egrave" unicode="&#xe8;" horiz-adv-x="507" 
d="M465 303q0 -35 -3 -54q-2 -19 -9 -25t-27 -6h-302v-30q0 -68 36.5 -97.5t119.5 -29.5q69 0 136 19q18 5 25 -1t7 -25v-9q0 -16 -5.5 -23t-25.5 -13q-61 -19 -137 -19q-120 0 -175.5 49.5t-55.5 159.5v93q0 211 211 211q100 0 152.5 -51t52.5 -149zM124 314v-33h270v33
q0 122 -135 122t-135 -122zM226 573l-50 83q-11 17 -7.5 23t23.5 6h10q20 0 30 -6t20 -24l42 -81q8 -15 5 -20t-20 -5h-10q-28 0 -43 24z" />
    <glyph glyph-name="eacute" unicode="&#xe9;" horiz-adv-x="507" 
d="M465 303q0 -35 -3 -54q-2 -19 -9 -25t-27 -6h-302v-30q0 -68 36.5 -97.5t119.5 -29.5q69 0 136 19q18 5 25 -1t7 -25v-9q0 -16 -5.5 -23t-25.5 -13q-61 -19 -137 -19q-120 0 -175.5 49.5t-55.5 159.5v93q0 211 211 211q100 0 152.5 -51t52.5 -149zM124 314v-33h270v33
q0 122 -135 122t-135 -122zM331 656l-50 -83q-15 -24 -43 -24h-10q-16 0 -19 5t4 20l42 81q10 18 20 24t30 6h10q20 0 23.5 -6t-7.5 -23z" />
    <glyph glyph-name="ecircumflex" unicode="&#xea;" horiz-adv-x="507" 
d="M465 303q0 -35 -3 -54q-2 -19 -9 -25t-27 -6h-302v-30q0 -68 36.5 -97.5t119.5 -29.5q69 0 136 19q18 5 25 -1t7 -25v-9q0 -16 -5.5 -23t-25.5 -13q-61 -19 -137 -19q-120 0 -175.5 49.5t-55.5 159.5v93q0 211 211 211q100 0 152.5 -51t52.5 -149zM124 314v-33h270v33
q0 122 -135 122t-135 -122zM142 575l38 59q19 29 33 39t38 10q25 0 39 -10t32 -39l38 -59q9 -13 6 -18t-19 -5h-8q-27 0 -41 23l-23 39q-24 42 -48 0l-22 -39q-14 -23 -41 -23h-9q-16 0 -18.5 5t5.5 18z" />
    <glyph glyph-name="edieresis" unicode="&#xeb;" horiz-adv-x="507" 
d="M465 303q0 -35 -3 -54q-2 -19 -9 -25t-27 -6h-302v-30q0 -68 36.5 -97.5t119.5 -29.5q69 0 136 19q18 5 25 -1t7 -25v-9q0 -16 -5.5 -23t-25.5 -13q-61 -19 -137 -19q-120 0 -175.5 49.5t-55.5 159.5v93q0 211 211 211q100 0 152.5 -51t52.5 -149zM124 314v-33h270v33
q0 122 -135 122t-135 -122zM124 617q0 19 13 32.5t32 13.5t32 -13t13 -33q0 -18 -13 -31t-32 -13t-32 13t-13 31zM286 617q0 19 13 32.5t33 13.5q18 0 31 -13.5t13 -32.5q0 -18 -13 -31t-31 -13q-19 0 -32.5 13t-13.5 31z" />
    <glyph glyph-name="igrave" unicode="&#xec;" horiz-adv-x="217" 
d="M74 32v429q0 19 6.5 25.5t25.5 6.5h11q20 0 26 -6.5t6 -25.5v-429q0 -20 -6 -26t-26 -6h-11q-19 0 -25.5 6t-6.5 26zM66 573l-50 83q-11 17 -7.5 23t23.5 6h10q20 0 30 -6t20 -24l42 -81q8 -15 5 -20t-20 -5h-10q-28 0 -43 24z" />
    <glyph glyph-name="iacute" unicode="&#xed;" horiz-adv-x="217" 
d="M71 32v429q0 19 6.5 25.5t25.5 6.5h11q20 0 26 -6.5t6 -25.5v-429q0 -20 -6 -26t-26 -6h-11q-19 0 -25.5 6t-6.5 26zM200 656l-50 -83q-15 -24 -43 -24h-10q-16 0 -19.5 5t4.5 20l42 81q10 18 20 24t30 6h10q20 0 23.5 -6t-7.5 -23z" />
    <glyph glyph-name="icircumflex" unicode="&#xee;" horiz-adv-x="217" 
d="M3 575l38 59q19 29 33 39t38 10q25 0 39 -10t32 -39l38 -59q9 -13 6 -18t-19 -5h-8q-27 0 -41 23l-23 39q-24 42 -48 0l-22 -39q-14 -23 -41 -23h-9q-16 0 -18.5 5t5.5 18zM75 32v429q0 19 6.5 25.5t25.5 6.5h11q20 0 26 -6.5t6 -25.5v-429q0 -20 -6 -26t-26 -6h-11
q-19 0 -25.5 6t-6.5 26z" />
    <glyph glyph-name="idieresis" unicode="&#xef;" horiz-adv-x="217" 
d="M71 32v429q0 19 6.5 25.5t25.5 6.5h11q20 0 26 -6.5t6 -25.5v-429q0 -20 -6 -26t-26 -6h-11q-19 0 -25.5 6t-6.5 26zM-17 617q0 19 13 32.5t32 13.5t32 -13t13 -33q0 -18 -13 -31t-32 -13t-32 13t-13 31zM145 617q0 19 13.5 32.5t32.5 13.5q18 0 31 -13.5t13 -32.5
q0 -18 -13 -31t-31 -13q-19 0 -32.5 13t-13.5 31z" />
    <glyph glyph-name="eth" unicode="&#xf0;" horiz-adv-x="529" 
d="M179 538l76 76q-49 23 -116 32q-18 2 -22.5 9t1.5 25l3 9q6 18 14.5 23t25.5 2q94 -17 147 -47l56 56q10 10 16 10t16 -10l5 -5q10 -10 10 -16t-10 -15l-49 -49q65 -51 93.5 -124.5t28.5 -188.5q0 -175 -44 -255q-47 -80 -187 -80q-201 0 -201 207q0 201 211 201
q66 0 141 -23q-4 78 -25.5 127.5t-68.5 82.5l-84 -84q-10 -9 -16 -9t-16 10l-5 5q-10 10 -10 16t10 15zM254 329q-70 0 -102 -30.5t-32 -101.5q0 -70 30 -102t94 -32q94 0 122 49t28 192q-60 25 -140 25z" />
    <glyph glyph-name="ntilde" unicode="&#xf1;" horiz-adv-x="535" 
d="M134 316v-284q0 -20 -6 -26t-26 -6h-11q-19 0 -25.5 6t-6.5 26v284q0 187 209 187q107 0 157.5 -46.5t50.5 -140.5v-284q0 -20 -6 -26t-26 -6h-12q-20 0 -26 6t-6 26v284q0 63 -29.5 89.5t-102.5 26.5t-103.5 -27t-30.5 -89zM142 566h-7q-13 0 -17.5 4t-3.5 15
q8 90 87 90q31 0 78 -32t59 -32q29 0 34 38q1 11 5.5 15t17.5 4h6q13 0 17.5 -4t3.5 -15q-6 -90 -87 -90q-33 0 -77 32t-59 32q-29 0 -34 -38q-1 -11 -5.5 -15t-17.5 -4z" />
    <glyph glyph-name="ograve" unicode="&#xf2;" horiz-adv-x="536" 
d="M412 200v93q0 75 -32 107t-111 32q-80 0 -112.5 -32t-32.5 -107v-93q0 -75 32.5 -107t112.5 -32q79 0 111 32t32 107zM269 -10q-114 0 -167 52t-53 158v93q0 210 220 210q113 0 165.5 -52t52.5 -158v-93q0 -210 -218 -210zM231 573l-50 83q-11 17 -7.5 23t23.5 6h10
q20 0 30 -6t20 -24l42 -81q5 -10 5.5 -15.5t-4.5 -7.5t-16 -2h-10q-28 0 -43 24z" />
    <glyph glyph-name="oacute" unicode="&#xf3;" horiz-adv-x="536" 
d="M412 200v93q0 75 -32 107t-111 32q-80 0 -112.5 -32t-32.5 -107v-93q0 -75 32.5 -107t112.5 -32q79 0 111 32t32 107zM269 -10q-114 0 -167 52t-53 158v93q0 210 220 210q113 0 165.5 -52t52.5 -158v-93q0 -210 -218 -210zM357 656l-50 -83q-15 -24 -43 -24h-10
q-16 0 -19 5t4 20l42 81q10 18 20 24t30 6h10q20 0 23.5 -6t-7.5 -23z" />
    <glyph glyph-name="ocircumflex" unicode="&#xf4;" horiz-adv-x="536" 
d="M160 575l38 59q19 29 33 39t38 10q25 0 39 -10t32 -39l38 -59q9 -13 6 -18t-19 -5h-8q-27 0 -41 23l-23 39q-24 42 -48 0l-22 -39q-14 -23 -41 -23h-9q-16 0 -18.5 5t5.5 18zM412 200v93q0 75 -32 107t-111 32q-80 0 -112.5 -32t-32.5 -107v-93q0 -75 32.5 -107
t112.5 -32q79 0 111 32t32 107zM269 -10q-114 0 -167 52t-53 158v93q0 210 220 210q113 0 165.5 -52t52.5 -158v-93q0 -210 -218 -210z" />
    <glyph glyph-name="otilde" unicode="&#xf5;" horiz-adv-x="536" 
d="M412 200v93q0 75 -32 107t-111 32q-80 0 -112.5 -32t-32.5 -107v-93q0 -75 32.5 -107t112.5 -32q79 0 111 32t32 107zM269 -10q-114 0 -167 52t-53 158v93q0 210 220 210q113 0 165.5 -52t52.5 -158v-93q0 -210 -218 -210zM143 566h-7q-13 0 -17.5 4t-3.5 15q7 90 87 90
q33 0 77 -32t60 -32q29 0 34 38q1 11 5.5 15t17.5 4h6q13 0 17.5 -4t3.5 -15q-6 -90 -87 -90q-33 0 -77 32t-59 32q-29 0 -34 -38q-1 -11 -5.5 -15t-17.5 -4z" />
    <glyph glyph-name="odieresis" unicode="&#xf6;" horiz-adv-x="536" 
d="M412 200v93q0 75 -32 107t-111 32q-80 0 -112.5 -32t-32.5 -107v-93q0 -75 32.5 -107t112.5 -32q79 0 111 32t32 107zM269 -10q-114 0 -167 52t-53 158v93q0 210 220 210q113 0 165.5 -52t52.5 -158v-93q0 -210 -218 -210zM143 617q0 19 13 32.5t32 13.5t32 -13t13 -33
q0 -18 -13 -31t-32 -13t-32 13t-13 31zM305 617q0 19 13.5 32.5t32.5 13.5q18 0 31 -13.5t13 -32.5q0 -18 -13 -31t-31 -13q-19 0 -32.5 13t-13.5 31z" />
    <glyph glyph-name="divide" unicode="&#xf7;" horiz-adv-x="556" 
d="M225 143q0 23 15.5 38t37.5 15t37.5 -15t15.5 -38q0 -22 -15.5 -37.5t-37.5 -15.5t-37.5 15.5t-15.5 37.5zM225 507q0 22 15.5 37.5t37.5 15.5t37.5 -15.5t15.5 -37.5q0 -23 -15.5 -38t-37.5 -15t-37.5 15t-15.5 38zM501 329v-8q0 -17 -5.5 -22.5t-22.5 -5.5h-390
q-17 0 -22.5 5.5t-5.5 22.5v8q0 17 5.5 22.5t22.5 5.5h390q17 0 22.5 -5.5t5.5 -22.5z" />
    <glyph glyph-name="oslash" unicode="&#xf8;" horiz-adv-x="536" 
d="M269 -10q-55 0 -108 17l-12 -20q-8 -13 -14.5 -15t-18.5 5l-5 3q-13 8 -14.5 14t5.5 19l11 19q-64 49 -64 168v93q0 210 220 210q59 0 106 -18l13 22q8 13 14 14.5t19 -5.5l5 -3q13 -9 15 -14.5t-6 -18.5l-12 -19q64 -49 64 -168v-93q0 -210 -218 -210zM412 200v93
q0 74 -31 105l-188 -326q35 -11 76 -11q79 0 111 32t32 107zM124 293v-93q0 -73 31 -104l188 325q-33 11 -74 11q-80 0 -112.5 -32t-32.5 -107z" />
    <glyph glyph-name="ugrave" unicode="&#xf9;" horiz-adv-x="523" 
d="M128 461v-284q0 -62 30.5 -89t103.5 -27q74 0 103.5 26.5t29.5 89.5v284q0 19 6.5 25.5t25.5 6.5h11q20 0 26 -6.5t6 -25.5v-284q0 -94 -50.5 -140.5t-157.5 -46.5q-209 0 -209 187v284q0 19 6.5 25.5t25.5 6.5h11q20 0 26 -6.5t6 -25.5zM226 573l-50 83q-11 17 -7.5 23
t23.5 6h10q20 0 30 -6t20 -24l42 -81q8 -15 5 -20t-20 -5h-10q-28 0 -43 24z" />
    <glyph glyph-name="uacute" unicode="&#xfa;" horiz-adv-x="523" 
d="M128 461v-284q0 -62 30.5 -89t103.5 -27q74 0 103.5 26.5t29.5 89.5v284q0 19 6.5 25.5t25.5 6.5h11q20 0 26 -6.5t6 -25.5v-284q0 -94 -50.5 -140.5t-157.5 -46.5q-209 0 -209 187v284q0 19 6.5 25.5t25.5 6.5h11q20 0 26 -6.5t6 -25.5zM343 656l-50 -83
q-15 -24 -43 -24h-10q-16 0 -19 5t4 20l42 81q10 18 20 24t30 6h10q20 0 23.5 -6t-7.5 -23z" />
    <glyph glyph-name="ucircumflex" unicode="&#xfb;" horiz-adv-x="523" 
d="M153 575l38 59q19 29 33 39t38 10q25 0 39 -10t32 -39l38 -59q9 -13 6 -18t-19 -5h-8q-27 0 -41 23l-23 39q-24 42 -48 0l-22 -39q-14 -23 -41 -23h-9q-16 0 -18.5 5t5.5 18zM128 461v-284q0 -62 30.5 -89t103.5 -27q74 0 103.5 26.5t29.5 89.5v284q0 19 6.5 25.5
t25.5 6.5h11q20 0 26 -6.5t6 -25.5v-284q0 -94 -50.5 -140.5t-157.5 -46.5q-209 0 -209 187v284q0 19 6.5 25.5t25.5 6.5h11q20 0 26 -6.5t6 -25.5z" />
    <glyph glyph-name="udieresis" unicode="&#xfc;" horiz-adv-x="523" 
d="M128 461v-284q0 -62 30.5 -89t103.5 -27q74 0 103.5 26.5t29.5 89.5v284q0 19 6.5 25.5t25.5 6.5h11q20 0 26 -6.5t6 -25.5v-284q0 -94 -50.5 -140.5t-157.5 -46.5q-209 0 -209 187v284q0 19 6.5 25.5t25.5 6.5h11q20 0 26 -6.5t6 -25.5zM136 617q0 19 13 32.5t32 13.5
t32 -13t13 -33q0 -18 -13 -31t-32 -13t-32 13t-13 31zM298 617q0 19 13 32.5t33 13.5q18 0 31 -13.5t13 -32.5q0 -18 -13 -31t-31 -13q-19 0 -32.5 13t-13.5 31z" />
    <glyph glyph-name="yacute" unicode="&#xfd;" horiz-adv-x="518" 
d="M117 460l94 -345q9 -33 21.5 -44t39.5 -11q23 0 35.5 12t20.5 43l83 345q4 19 13 26t29 7h9q21 0 26 -6.5t0 -26.5l-115 -460q-51 -202 -201 -212q-17 -2 -24.5 4t-11.5 24l-2 9q-4 17 1.5 22.5t24.5 7.5q53 6 84.5 41t53.5 110q-20 -11 -50 -11q-47 0 -70.5 26t-41.5 91
l-95 348q-5 20 0 26.5t25 6.5h8q20 0 29 -6.5t14 -26.5zM358 656l-50 -83q-15 -24 -43 -24h-10q-16 0 -19 5t4 20l42 81q10 18 20 24t30 6h10q20 0 23.5 -6t-7.5 -23z" />
    <glyph glyph-name="thorn" unicode="&#xfe;" horiz-adv-x="552" 
d="M503 292v-91q0 -211 -207 -211q-117 0 -156 74v-232q0 -20 -6 -26t-26 -6h-11q-19 0 -25.5 6t-6.5 26v819q0 19 6.5 25.5t25.5 6.5h11q20 0 26 -6.5t6 -25.5v-221q40 73 156 73q207 0 207 -211zM427 200v93q0 76 -32 107.5t-111 31.5q-78 0 -111 -31.5t-33 -102.5v-98
q0 -75 32.5 -107t111.5 -32t111 32t32 107z" />
    <glyph glyph-name="ydieresis" unicode="&#xff;" horiz-adv-x="518" 
d="M117 460l94 -345q9 -33 21.5 -44t39.5 -11q23 0 35.5 12t20.5 43l83 345q4 19 13 26t29 7h9q21 0 26 -6.5t0 -26.5l-115 -460q-51 -202 -201 -212q-17 -2 -24.5 4t-11.5 24l-2 9q-4 17 1.5 22.5t24.5 7.5q53 6 84.5 41t53.5 110q-20 -11 -50 -11q-47 0 -70.5 26t-41.5 91
l-95 348q-5 20 0 26.5t25 6.5h8q20 0 29 -6.5t14 -26.5zM137 617q0 19 13 32.5t32 13.5t32 -13t13 -33q0 -18 -13 -31t-32 -13t-32 13t-13 31zM299 617q0 19 13 32.5t33 13.5q18 0 31 -13.5t13 -32.5q0 -18 -13 -31t-31 -13q-19 0 -32.5 13t-13.5 31z" />
    <glyph glyph-name="Amacron" unicode="&#x100;" horiz-adv-x="609" 
d="M437 749v-8q0 -17 -5.5 -22.5t-22.5 -5.5h-200q-17 0 -22.5 5.5t-5.5 22.5v8q0 17 5.5 22.5t22.5 5.5h200q17 0 22.5 -5.5t5.5 -22.5zM450 512l134 -479q5 -19 0 -26t-25 -7h-10q-21 0 -29.5 6.5t-13.5 26.5l-47 168h-299l-46 -168q-5 -20 -13.5 -26.5t-29.5 -6.5h-11
q-20 0 -25 7t0 26l134 479q24 86 51 116q28 31 90 31t89 -31q28 -30 51 -116zM248 521l-69 -249h261l-69 249q-11 41 -23.5 54.5t-37.5 13.5q-26 0 -38.5 -13.5t-23.5 -54.5z" />
    <glyph glyph-name="amacron" unicode="&#x101;" horiz-adv-x="483" 
d="M369 609v-8q0 -17 -5.5 -22.5t-22.5 -5.5h-200q-17 0 -22.5 5.5t-5.5 22.5v8q0 17 5.5 22.5t22.5 5.5h200q17 0 22.5 -5.5t5.5 -22.5zM434 346v-198q0 -83 -50 -120.5t-159 -37.5q-91 0 -139.5 37.5t-48.5 112.5q0 77 49.5 111.5t154.5 34.5h118v60q0 48 -32 69.5
t-99 21.5q-61 0 -110 -11q-18 -4 -25 1.5t-7 23.5v8q0 17 6 23.5t24 10.5q44 10 108 10q210 0 210 -157zM359 151v76h-117q-69 0 -99.5 -20t-30.5 -67q0 -85 112 -85q73 0 104 21.5t31 74.5z" />
    <glyph glyph-name="Abreve" unicode="&#x102;" horiz-adv-x="609" 
d="M450 512l134 -479q5 -19 0 -26t-25 -7h-10q-21 0 -29.5 6.5t-13.5 26.5l-47 168h-299l-46 -168q-5 -20 -13.5 -26.5t-29.5 -6.5h-11q-20 0 -25 7t0 26l134 479q24 86 51 116q28 31 90 31t89 -31q28 -30 51 -116zM248 521l-69 -249h261l-69 249q-11 41 -23.5 54.5
t-37.5 13.5q-26 0 -38.5 -13.5t-23.5 -54.5zM182 808v-4q0 14 5 19t19 5h8q14 0 19 -5t5 -19v4q0 -28 16.5 -40t54.5 -12t54.5 12.5t16.5 40.5v-5q0 14 5 19t19 5h8q14 0 19 -5t5 -19v4q0 -101 -127 -101t-127 101z" />
    <glyph glyph-name="abreve" unicode="&#x103;" horiz-adv-x="483" 
d="M434 346v-198q0 -83 -50 -120.5t-159 -37.5q-91 0 -139.5 37.5t-48.5 112.5q0 77 49.5 111.5t154.5 34.5h118v60q0 48 -32 69.5t-99 21.5q-61 0 -110 -11q-18 -4 -25 1.5t-7 23.5v8q0 17 6 23.5t24 10.5q44 10 108 10q210 0 210 -157zM359 151v76h-117q-69 0 -99.5 -20
t-30.5 -67q0 -85 112 -85q73 0 104 21.5t31 74.5zM114 651v-4q0 14 5 19t19 5h8q14 0 19 -5t5 -19v4q0 -28 16.5 -40t54.5 -12t54.5 12.5t16.5 40.5v-5q0 14 5 19t19 5h8q14 0 19 -5t5 -19v4q0 -101 -127 -101t-127 101z" />
    <glyph glyph-name="Aogonek" unicode="&#x104;" horiz-adv-x="609" 
d="M450 512l134 -479q7 -22 -4 -30q-47 -32 -62.5 -53t-15.5 -51q0 -24 9.5 -33.5t31.5 -9.5q1 0 23 2q14 2 18.5 -1.5t4.5 -16.5v-7q0 -13 -5 -18.5t-19 -7.5q-17 -3 -35 -3q-47 0 -68.5 20t-21.5 66q0 42 18 65t65 49q-11 6 -17 29l-47 168h-299l-46 -168
q-5 -20 -13.5 -26.5t-29.5 -6.5h-11q-20 0 -25 7t0 26l134 479q24 86 51 116q28 31 90 31t89 -31q28 -30 51 -116zM248 521l-69 -249h261l-69 249q-11 41 -23.5 54.5t-37.5 13.5q-26 0 -38.5 -13.5t-23.5 -54.5z" />
    <glyph glyph-name="aogonek" unicode="&#x105;" horiz-adv-x="483" 
d="M434 346v-198q0 -112 -98 -144q-38 -12 -66 -44q-27 -31 -27 -61q0 -24 9.5 -33.5t31.5 -9.5q1 0 23 2q14 2 18.5 -1.5t4.5 -16.5v-7q0 -13 -5 -18.5t-19 -7.5q-16 -3 -35 -3q-47 0 -68.5 20t-21.5 66q0 35 15 57.5t51 43.5q-3 -1 -22 -1q-91 0 -139.5 37.5t-48.5 112.5
q0 77 49.5 111.5t154.5 34.5h118v60q0 48 -32 69.5t-99 21.5q-61 0 -110 -11q-18 -4 -25 1.5t-7 23.5v8q0 17 6 23.5t24 10.5q44 10 108 10q210 0 210 -157zM359 151v76h-117q-69 0 -99.5 -20t-30.5 -67q0 -85 112 -85q73 0 104 21.5t31 74.5z" />
    <glyph glyph-name="Cacute" unicode="&#x106;" horiz-adv-x="524" 
d="M135 399v-160q0 -90 42 -133t134 -43q75 0 144 26q17 7 23.5 2t6.5 -24v-12q0 -16 -6 -24t-24 -16q-53 -25 -142 -25q-132 0 -194.5 60.5t-62.5 188.5v160q0 260 255 260q72 0 139 -26q17 -7 23 -14.5t6 -23.5v-13q0 -36 -31 -23q-63 27 -140 27q-90 0 -131.5 -45
t-41.5 -142zM361 805l-50 -83q-15 -24 -43 -24h-10q-17 0 -20 5t5 20l42 81q10 18 20 24t30 6h10q20 0 23.5 -6t-7.5 -23z" />
    <glyph glyph-name="cacute" unicode="&#x107;" horiz-adv-x="429" 
d="M49 197v99q0 101 56 154t167 53q52 0 88 -13q18 -6 24 -13.5t6 -24.5v-10q0 -19 -6 -24.5t-24 0.5q-40 14 -86 14q-81 0 -115.5 -32t-34.5 -105v-97q0 -75 36 -106t120 -31q54 0 90 13q17 6 23.5 0t6.5 -25v-10q0 -16 -6.5 -23.5t-25.5 -12.5q-39 -13 -93 -13
q-115 0 -170.5 50.5t-55.5 156.5zM331 656l-50 -83q-15 -24 -43 -24h-10q-16 0 -19 5t4 20l42 81q10 18 20 24t30 6h10q20 0 23.5 -6t-7.5 -23z" />
    <glyph glyph-name="Ccaron" unicode="&#x10c;" horiz-adv-x="524" 
d="M135 399v-160q0 -90 42 -133t134 -43q75 0 144 26q17 7 23.5 2t6.5 -24v-12q0 -16 -6 -24t-24 -16q-53 -25 -142 -25q-132 0 -194.5 60.5t-62.5 188.5v160q0 260 255 260q72 0 139 -26q17 -7 23 -14.5t6 -23.5v-13q0 -36 -31 -23q-63 27 -140 27q-90 0 -131.5 -45
t-41.5 -142zM223 750l-38 59q-9 13 -6 18t19 5h9q27 0 41 -23l22 -39q24 -42 48 0l23 39q14 23 41 23h8q16 0 18.5 -5t-5.5 -18l-38 -59q-18 -29 -32 -39t-39 -10q-24 0 -38 10t-33 39z" />
    <glyph glyph-name="ccaron" unicode="&#x10d;" horiz-adv-x="418" 
d="M49 197v99q0 101 56 154t167 53q52 0 88 -13q18 -6 24 -13.5t6 -24.5v-10q0 -19 -6 -24.5t-24 0.5q-40 14 -86 14q-81 0 -115.5 -32t-34.5 -105v-97q0 -75 36 -106t120 -31q54 0 90 13q17 6 23.5 0t6.5 -25v-10q0 -16 -6.5 -23.5t-25.5 -12.5q-39 -13 -93 -13
q-115 0 -170.5 50.5t-55.5 156.5zM172 601l-38 59q-9 14 -6 18.5t19 4.5h9q27 0 41 -23l22 -39q24 -42 48 0l23 39q14 23 41 23h8q16 0 18.5 -5t-5.5 -18l-38 -59q-18 -29 -32 -39t-39 -10q-24 0 -38 10t-33 39z" />
    <glyph glyph-name="Dcaron" unicode="&#x10e;" horiz-adv-x="607" 
d="M76 108v434q0 56 25.5 82t82.5 26h85q153 0 218 -56q64 -55 64 -201v-136q0 -140 -65 -199q-64 -58 -217 -58h-85q-57 0 -82.5 26t-25.5 82zM201 73h68q118 0 160 39q42 40 42 145v136q0 104 -43 144q-40 40 -159 40h-68q-25 0 -36 -11t-11 -36v-410q0 -25 11 -36t36 -11
zM213 750l-38 59q-9 13 -6 18t19 5h9q27 0 41 -23l22 -39q24 -42 48 0l23 39q14 23 41 23h8q16 0 18.5 -5t-5.5 -18l-38 -59q-18 -29 -32 -39t-39 -10q-24 0 -38 10t-33 39z" />
    <glyph glyph-name="dcaron" unicode="&#x10f;" horiz-adv-x="581" 
d="M487 668v-469q0 -209 -219 -209q-111 0 -165 52t-54 157v93q0 211 207 211q116 0 156 -73v238q0 20 6 26t26 6h11q19 0 25.5 -6t6.5 -26zM124 293v-93q0 -75 32 -107t112 -32q79 0 111.5 32t32.5 107v93q0 75 -32.5 107t-111.5 32t-111.5 -32t-32.5 -107zM547 501
q-7 -12 -19 -9q-10 3 -10 20q2 35 13 109q18 103 57 103q16 0 25.5 -11.5t9.5 -30.5q0 -27 -28 -87q-32 -68 -48 -94z" />
    <glyph glyph-name="Dcroat" unicode="&#x110;" horiz-adv-x="607" 
d="M77 108v189h-37q-14 0 -19 5t-5 19v8q0 14 5 19t19 5h37v189q0 56 26 82t83 26h84q153 0 218 -56q64 -55 64 -201v-136q0 -140 -65 -199q-64 -58 -217 -58h-84q-57 0 -83 26t-26 82zM203 73h67q118 0 160 39q43 40 43 145v136q0 104 -43 144q-40 40 -160 40h-67
q-48 0 -48 -47v-177h77q14 0 19 -5t5 -19v-8q0 -14 -5 -19t-19 -5h-77v-177q0 -47 48 -47z" />
    <glyph glyph-name="dslash" unicode="&#x111;" horiz-adv-x="540" 
d="M487 668v-50h25q16 0 22 -6t6 -22v-8q0 -16 -6 -22t-22 -6h-25v-355q0 -209 -219 -209q-111 0 -165 52t-54 157v93q0 211 207 211q116 0 156 -73v124h-129q-17 0 -22.5 6t-5.5 22v8q0 16 5.5 22t22.5 6h129v50q0 20 6 26t26 6h11q19 0 25.5 -6t6.5 -26zM124 293v-93
q0 -75 32 -107t112 -32q79 0 111.5 32t32.5 107v93q0 75 -32.5 107t-111.5 32t-111.5 -32t-32.5 -107z" />
    <glyph glyph-name="Emacron" unicode="&#x112;" horiz-adv-x="542" 
d="M427 749v-8q0 -17 -5.5 -22.5t-22.5 -5.5h-200q-17 0 -22.5 5.5t-5.5 22.5v8q0 17 5.5 22.5t22.5 5.5h200q17 0 22.5 -5.5t5.5 -22.5zM427 302h-273v-182q0 -25 11 -36t36 -11h266q19 0 25 -6t6 -25v-11q0 -19 -6 -25t-25 -6h-283q-57 0 -82.5 26t-25.5 82v434
q0 56 25.5 82t82.5 26h283q19 0 25 -6t6 -25v-11q0 -19 -6 -25t-25 -6h-266q-25 0 -36 -11t-11 -36v-155h273q19 0 25 -6t6 -25v-11q0 -19 -6 -25t-25 -6z" />
    <glyph glyph-name="emacron" unicode="&#x113;" horiz-adv-x="514" 
d="M383 609v-8q0 -17 -5.5 -22.5t-22.5 -5.5h-200q-17 0 -22.5 5.5t-5.5 22.5v8q0 17 5.5 22.5t22.5 5.5h200q17 0 22.5 -5.5t5.5 -22.5zM465 303q0 -35 -3 -54q-2 -19 -9 -25t-27 -6h-302v-30q0 -68 36.5 -97.5t119.5 -29.5q69 0 136 19q18 5 25 -1t7 -25v-9
q0 -16 -5.5 -23t-25.5 -13q-61 -19 -137 -19q-120 0 -175.5 49.5t-55.5 159.5v93q0 211 211 211q100 0 152.5 -51t52.5 -149zM124 314v-33h270v33q0 122 -135 122t-135 -122z" />
    <glyph glyph-name="Edotaccent" unicode="&#x116;" horiz-adv-x="542" 
d="M427 302h-273v-182q0 -25 11 -36t36 -11h266q19 0 25 -6t6 -25v-11q0 -19 -6 -25t-25 -6h-283q-57 0 -82.5 26t-25.5 82v434q0 56 25.5 82t82.5 26h283q19 0 25 -6t6 -25v-11q0 -19 -6 -25t-25 -6h-266q-25 0 -36 -11t-11 -36v-155h273q19 0 25 -6t6 -25v-11
q0 -19 -6 -25t-25 -6zM301 712q-21 0 -35 14t-14 35t14 35t35 14t35 -14t14 -35t-14 -35t-35 -14z" />
    <glyph glyph-name="edotaccent" unicode="&#x117;" horiz-adv-x="514" 
d="M465 303q0 -35 -3 -54q-2 -19 -9 -25t-27 -6h-302v-30q0 -68 36.5 -97.5t119.5 -29.5q69 0 136 19q18 5 25 -1t7 -25v-9q0 -16 -5.5 -23t-25.5 -13q-61 -19 -137 -19q-120 0 -175.5 49.5t-55.5 159.5v93q0 211 211 211q100 0 152.5 -51t52.5 -149zM124 314v-33h270v33
q0 122 -135 122t-135 -122zM260 576q-21 0 -35 14t-14 35t14 35t35 14t35 -14t14 -35t-14 -35t-35 -14z" />
    <glyph glyph-name="Eogonek" unicode="&#x118;" horiz-adv-x="542" 
d="M427 302h-273v-182q0 -25 11 -36t36 -11h266q19 0 25 -6t6 -25v-11q0 -20 -11 -28q-48 -29 -64 -50t-16 -54q0 -24 9.5 -33.5t31.5 -9.5q1 0 23 2q14 2 18.5 -1.5t4.5 -16.5v-7q0 -13 -5 -18.5t-19 -7.5q-16 -3 -35 -3q-47 0 -68.5 20t-21.5 66q0 40 17.5 64t60.5 46
h-239q-57 0 -82.5 26t-25.5 82v434q0 56 25.5 82t82.5 26h283q19 0 25 -6t6 -25v-11q0 -19 -6 -25t-25 -6h-266q-25 0 -36 -11t-11 -36v-155h273q19 0 25 -6t6 -25v-11q0 -19 -6 -25t-25 -6z" />
    <glyph glyph-name="eogonek" unicode="&#x119;" horiz-adv-x="507" 
d="M465 303q0 -35 -3 -54q-2 -19 -9 -25t-27 -6h-302v-30q0 -68 36.5 -97.5t119.5 -29.5q69 0 136 19q18 5 25 -1t7 -25v-9q0 -22 -13 -29q-54 -34 -74 -58q-18 -26 -18 -59q0 -24 9.5 -33.5t31.5 -9.5q1 0 23 2q14 2 18.5 -1.5t4.5 -16.5v-7q0 -13 -5 -18.5t-19 -7.5
q-17 -3 -35 -3q-47 0 -68.5 20t-21.5 66q0 65 81 107q-35 -7 -82 -7q-120 0 -175.5 49.5t-55.5 159.5v93q0 211 211 211q100 0 152.5 -51t52.5 -149zM124 314v-33h270v33q0 122 -135 122t-135 -122z" />
    <glyph glyph-name="Ecaron" unicode="&#x11a;" horiz-adv-x="542" 
d="M427 302h-273v-182q0 -25 11 -36t36 -11h266q19 0 25 -6t6 -25v-11q0 -19 -6 -25t-25 -6h-283q-57 0 -82.5 26t-25.5 82v434q0 56 25.5 82t82.5 26h283q19 0 25 -6t6 -25v-11q0 -19 -6 -25t-25 -6h-266q-25 0 -36 -11t-11 -36v-155h273q19 0 25 -6t6 -25v-11
q0 -19 -6 -25t-25 -6zM223 750l-38 59q-9 13 -6 18t19 5h9q27 0 41 -23l22 -39q24 -42 48 0l23 39q14 23 41 23h8q16 0 18.5 -5t-5.5 -18l-38 -59q-18 -29 -32 -39t-39 -10q-24 0 -38 10t-33 39z" />
    <glyph glyph-name="ecaron" unicode="&#x11b;" horiz-adv-x="514" 
d="M465 303q0 -35 -3 -54q-2 -19 -9 -25t-27 -6h-302v-30q0 -68 36.5 -97.5t119.5 -29.5q69 0 136 19q18 5 25 -1t7 -25v-9q0 -16 -5.5 -23t-25.5 -13q-61 -19 -137 -19q-120 0 -175.5 49.5t-55.5 159.5v93q0 211 211 211q100 0 152.5 -51t52.5 -149zM124 314v-33h270v33
q0 122 -135 122t-135 -122zM183 601l-38 59q-9 14 -6 18.5t19 4.5h9q27 0 41 -23l22 -39q24 -42 48 0l23 39q14 23 41 23h8q16 0 18.5 -5t-5.5 -18l-38 -59q-18 -29 -32 -39t-39 -10q-24 0 -38 10t-33 39z" />
    <glyph glyph-name="Gcommaaccent" unicode="&#x122;" horiz-adv-x="577" 
d="M450 126v199q0 19 6 25.5t26 6.5h10q20 0 26 -6.5t6 -25.5v-192q0 -66 -22 -96t-78 -40q-41 -7 -86 -7q-148 0 -215 59.5t-67 192.5v160q0 257 276 257q76 0 148 -26q24 -10 28 -17q2 -5 4 -21v-13q0 -38 -30 -24q-65 28 -151 28q-104 0 -150 -44.5t-46 -144.5v-160
q0 -90 47 -132t152 -42q46 0 71 6q24 4 34.5 17t10.5 40zM267 -256q-9 -10 -20 -5q-8 5 -5 22q0 2 13 41q14 39 15 67q5 54 10 66q6 14 26 16q16 1 26.5 -9.5t12.5 -29.5q7 -16 -9 -61q-19 -57 -69 -107z" />
    <glyph glyph-name="gcommaaccent" unicode="&#x123;" horiz-adv-x="505" 
d="M462 330v-12q0 -174 -207 -174q-77 0 -106 -8q-24 -8 -24 -30q0 -21 25 -28q26 -6 105 -6q125 0 171 -31q48 -30 48 -106q0 -85 -49 -119q-46 -34 -170 -34q-127 0 -173 34q-47 33 -47 105t56 107q-41 20 -41 66q0 66 81 78q-84 34 -84 146v12q0 82 55 127.5t153 45.5
q55 0 103 -20l57 51q13 11 21 11t20 -11l7 -7q12 -11 12 -19t-12 -20l-45 -46q44 -41 44 -112zM386 318v12q0 106 -131 106q-133 0 -133 -106v-12q0 -57 30.5 -82.5t102.5 -25.5t101.5 25.5t29.5 82.5zM255 6q-56 0 -98 5q-47 -23 -47 -82q0 -48 31 -65t114 -17q82 0 113 18
t31 67q0 46 -30 60q-31 14 -114 14zM292 778q9 10 20 5q8 -5 5 -22q0 -2 -13 -41q-14 -39 -15 -67q-5 -54 -10 -66q-6 -14 -26 -16q-16 -1 -26.5 9.5t-12.5 29.5q-7 16 9 61q19 57 69 107z" />
    <glyph glyph-name="Imacron" unicode="&#x12a;" horiz-adv-x="242" 
d="M242 749v-8q0 -17 -5.5 -22.5t-22.5 -5.5h-186q-17 0 -22.5 5.5t-5.5 22.5v8q0 17 5.5 22.5t22.5 5.5h186q17 0 22.5 -5.5t5.5 -22.5zM82 34v582q0 20 7 27t27 7h10q20 0 27 -7t7 -27v-582q0 -20 -7 -27t-27 -7h-10q-20 0 -27 7t-7 27z" />
    <glyph glyph-name="imacron" unicode="&#x12b;" horiz-adv-x="217" 
d="M217 609v-8q0 -17 -5.5 -22.5t-22.5 -5.5h-161q-17 0 -22.5 5.5t-5.5 22.5v8q0 17 5.5 22.5t22.5 5.5h161q17 0 22.5 -5.5t5.5 -22.5zM71 32v429q0 19 6.5 25.5t25.5 6.5h11q20 0 26 -6.5t6 -25.5v-429q0 -20 -6 -26t-26 -6h-11q-19 0 -25.5 6t-6.5 26z" />
    <glyph glyph-name="Iogonek" unicode="&#x12e;" horiz-adv-x="242" 
d="M82 34v582q0 20 7 27t27 7h10q20 0 27 -7t7 -27v-582q0 -28 -15 -32q-17 -15 -38 -48q-19 -32 -19 -55q0 -24 9.5 -33.5t31.5 -9.5q1 0 23 2q14 2 18.5 -1.5t4.5 -16.5v-7q0 -13 -5 -18.5t-19 -7.5q-17 -3 -35 -3q-47 0 -68.5 20t-21.5 66q0 63 67 114q-11 6 -11 30z" />
    <glyph glyph-name="iogonek" unicode="&#x12f;" horiz-adv-x="218" 
d="M72 32v429q0 19 6 25.5t26 6.5h11q19 0 25.5 -6.5t6.5 -25.5v-429q0 -26 -15 -31q-20 -17 -39 -48q-18 -31 -18 -54q0 -24 9.5 -33.5t31.5 -9.5q1 0 23 2q14 2 18.5 -1.5t4.5 -16.5v-7q0 -13 -5 -18.5t-19 -7.5q-16 -3 -35 -3q-47 0 -68.5 20t-21.5 66q0 63 67 114
q-8 5 -8 28zM110 696q20 0 34 -14.5t14 -34.5t-14 -34t-34 -14q-21 0 -35.5 14t-14.5 34t14.5 34.5t35.5 14.5z" />
    <glyph glyph-name="dotlessi" unicode="&#x131;" horiz-adv-x="217" 
d="M71 32v429q0 19 6.5 25.5t25.5 6.5h11q20 0 26 -6.5t6 -25.5v-429q0 -20 -6 -26t-26 -6h-11q-19 0 -25.5 6t-6.5 26z" />
    <glyph glyph-name="Kcommaaccent" unicode="&#x136;" horiz-adv-x="553" 
d="M248 439l152 180q17 19 30 25t38 6h12q25 0 28 -6t-13 -25l-183 -218q-38 -47 -38 -62q0 -14 38 -61l203 -246q16 -20 13 -26t-28 -6h-12q-24 0 -37.5 6.5t-29.5 25.5l-173 208q-49 58 -49 101t49 98zM76 34v582q0 20 7 27t27 7h10q20 0 27 -7t7 -27v-582q0 -20 -7 -27
t-27 -7h-10q-20 0 -27 7t-7 27zM236 -256q-9 -10 -20 -5q-8 5 -5 22q0 2 13 41q14 39 15 67q5 54 10 66q6 14 26 16q16 1 26.5 -9.5t12.5 -29.5q7 -16 -9 -61q-19 -57 -69 -107z" />
    <glyph glyph-name="kcommaaccent" unicode="&#x137;" horiz-adv-x="483" 
d="M69 32v636q0 20 6.5 26t25.5 6h11q20 0 26 -6t6 -26v-636q0 -20 -6 -26t-26 -6h-11q-19 0 -25.5 6t-6.5 26zM218 344l114 119q17 18 31.5 24t39.5 6h12q25 0 27.5 -6t-14.5 -24l-156 -164q-21 -23 -21 -38q0 -19 20 -39l177 -191q18 -19 15 -25t-28 -6h-12q-26 0 -40 6
t-31 25l-134 145q-41 44 -41 87q0 37 41 81zM217 -256q-9 -10 -20 -5q-8 5 -5 22q0 2 13 41q14 39 15 67q5 54 10 66q6 14 26 16q16 1 26.5 -9.5t12.5 -29.5q7 -16 -9 -61q-19 -57 -69 -107z" />
    <glyph glyph-name="Lacute" unicode="&#x139;" horiz-adv-x="480" 
d="M76 108v508q0 20 7 27t27 7h10q20 0 27 -7t7 -27v-496q0 -25 11 -36t36 -11h226q19 0 25 -6t6 -25v-11q0 -19 -6 -25t-25 -6h-243q-57 0 -82.5 26t-25.5 82zM208 805l-50 -83q-15 -24 -43 -24h-10q-16 0 -19 5t4 20l42 81q10 18 20 24t30 6h10q20 0 23.5 -6t-7.5 -23z
" />
    <glyph glyph-name="lacute" unicode="&#x13a;" horiz-adv-x="237" 
d="M194 855l-50 -83q-15 -24 -43 -24h-10q-16 0 -19 5t4 20l42 81q10 18 20 24t30 6h10q20 0 23.5 -6t-7.5 -23zM62 128v540q0 20 6 26t26 6h11q19 0 25.5 -6t6.5 -26v-527q0 -76 51 -76h5q20 0 25.5 -4.5t5.5 -21.5v-7q0 -19 -5.5 -26.5t-22.5 -10.5q-3 -1 -18 -1
q-55 0 -85.5 34t-30.5 100z" />
    <glyph glyph-name="Lcommaaccent" unicode="&#x13b;" horiz-adv-x="480" 
d="M76 108v508q0 20 7 27t27 7h10q20 0 27 -7t7 -27v-496q0 -25 11 -36t36 -11h226q19 0 25 -6t6 -25v-11q0 -19 -6 -25t-25 -6h-243q-57 0 -82.5 26t-25.5 82zM227 -256q-9 -10 -20 -5q-8 5 -5 22q0 2 13 41q14 39 15 67q5 54 10 66q6 14 26 16q16 1 26.5 -9.5t12.5 -29.5
q7 -16 -9 -61q-19 -57 -69 -107z" />
    <glyph glyph-name="lcommaaccent" unicode="&#x13c;" horiz-adv-x="237" 
d="M62 128v540q0 20 6 26t26 6h11q19 0 25.5 -6t6.5 -26v-527q0 -76 51 -76h5q20 0 25.5 -4.5t5.5 -21.5v-7q0 -19 -5.5 -26.5t-22.5 -10.5q-3 -1 -18 -1q-55 0 -85.5 34t-30.5 100zM97 -256q-9 -10 -20 -5q-8 5 -5 22q0 2 13 41q14 39 15 67q5 54 10 66q6 14 26 16
q16 1 26.5 -9.5t12.5 -29.5q7 -16 -9 -61q-19 -57 -69 -107z" />
    <glyph glyph-name="Lcaron" unicode="&#x13d;" horiz-adv-x="480" 
d="M76 108v508q0 20 7 27t27 7h10q20 0 27 -7t7 -27v-496q0 -25 11 -36t36 -11h226q19 0 25 -6t6 -25v-11q0 -19 -6 -25t-25 -6h-243q-57 0 -82.5 26t-25.5 82zM238 556q-7 -12 -19 -9q-10 3 -10 20q2 35 13 109q18 103 57 103q16 0 25.5 -11.5t9.5 -30.5q0 -27 -28 -87
q-32 -68 -48 -94z" />
    <glyph glyph-name="lcaron" unicode="&#x13e;" horiz-adv-x="237" 
d="M62 128v540q0 20 6 26t26 6h11q19 0 25.5 -6t6.5 -26v-527q0 -76 51 -76h5q20 0 25.5 -4.5t5.5 -21.5v-7q0 -19 -5.5 -26.5t-22.5 -10.5q-3 -1 -18 -1q-55 0 -85.5 34t-30.5 100zM208 556q-7 -12 -19 -9q-10 3 -10 20q2 35 13 109q18 103 57 103q16 0 25.5 -11.5
t9.5 -30.5q0 -27 -28 -87q-32 -68 -48 -94z" />
    <glyph glyph-name="Lslash" unicode="&#x141;" horiz-adv-x="488" 
d="M86 108v211l-31 -11q-24 -10 -31 15l-3 9q-5 14 -2.5 19.5t16.5 10.5l51 18v236q0 20 7 27t27 7h10q20 0 27 -7t7 -27v-208l87 32q21 9 32 -14l3 -9q5 -13 2 -19t-17 -11l-107 -39v-228q0 -25 11 -36t36 -11h226q19 0 25 -6t6 -25v-11q0 -19 -6 -25t-25 -6h-243
q-57 0 -82.5 26t-25.5 82z" />
    <glyph glyph-name="lslash" unicode="&#x142;" horiz-adv-x="257" 
d="M81 128v204l-29 -11q-23 -10 -31 14l-3 9q-5 14 -2.5 19.5t16.5 10.5l49 18v276q0 20 6.5 26t25.5 6h11q20 0 26 -6t6 -26v-249l45 17q21 9 32 -14l3 -9q5 -14 2.5 -19.5t-16.5 -10.5l-66 -24v-218q0 -76 51 -76h5q20 0 25.5 -4.5t5.5 -21.5v-7q0 -19 -5.5 -26.5
t-22.5 -10.5q-3 -1 -18 -1q-55 0 -85.5 34t-30.5 100z" />
    <glyph glyph-name="Nacute" unicode="&#x143;" horiz-adv-x="636" 
d="M76 34v513q0 59 24 85.5t75 26.5q44 0 66.5 -20t37.5 -72l147 -473q7 -21 14.5 -28.5t19.5 -7.5q24 0 24 38v520q0 20 7 27t27 7h9q20 0 27 -7t7 -27v-513q0 -59 -23.5 -85.5t-72.5 -26.5q-45 0 -69 21.5t-40 75.5l-145 465q-7 23 -13.5 31t-19.5 8q-26 0 -26 -40v-518
q0 -20 -7 -27t-27 -7h-8q-20 0 -27 7t-7 27zM402 805l-50 -83q-15 -24 -43 -24h-10q-17 0 -20 5t5 20l42 81q10 18 20 24t30 6h10q20 0 23.5 -6t-7.5 -23z" />
    <glyph glyph-name="nacute" unicode="&#x144;" horiz-adv-x="535" 
d="M134 316v-284q0 -20 -6 -26t-26 -6h-11q-19 0 -25.5 6t-6.5 26v284q0 187 209 187q107 0 157.5 -46.5t50.5 -140.5v-284q0 -20 -6 -26t-26 -6h-12q-20 0 -26 6t-6 26v284q0 63 -29.5 89.5t-102.5 26.5t-103.5 -27t-30.5 -89zM334 656l-50 -83q-15 -24 -43 -24h-10
q-17 0 -20 5t5 20l42 81q10 18 20 24t30 6h10q20 0 23.5 -6t-7.5 -23z" />
    <glyph glyph-name="Ncommaaccent" unicode="&#x145;" horiz-adv-x="637" 
d="M76 34v513q0 59 24 85.5t75 26.5q44 0 66.5 -20t37.5 -72l147 -473q7 -21 14.5 -28.5t19.5 -7.5q24 0 24 38v520q0 20 7 27t27 7h9q20 0 27 -7t7 -27v-513q0 -59 -23.5 -85.5t-72.5 -26.5q-45 0 -69 21.5t-40 75.5l-145 465q-7 23 -13.5 31t-19.5 8q-26 0 -26 -40v-518
q0 -20 -7 -27t-27 -7h-8q-20 0 -27 7t-7 27zM267 -256q-9 -10 -20 -5q-8 5 -5 22q0 2 13 41q14 39 15 67q5 54 10 66q6 14 26 16q16 1 26.5 -9.5t12.5 -29.5q7 -16 -9 -61q-19 -57 -69 -107z" />
    <glyph glyph-name="ncommaaccent" unicode="&#x146;" horiz-adv-x="535" 
d="M134 316v-284q0 -20 -6 -26t-26 -6h-11q-19 0 -25.5 6t-6.5 26v284q0 187 209 187q107 0 157.5 -46.5t50.5 -140.5v-284q0 -20 -6 -26t-26 -6h-12q-20 0 -26 6t-6 26v284q0 63 -29.5 89.5t-102.5 26.5t-103.5 -27t-30.5 -89zM217 -256q-9 -10 -20 -5q-8 5 -5 22
q0 2 13 41q14 39 15 67q5 54 10 66q6 14 26 16q16 1 26.5 -9.5t12.5 -29.5q7 -16 -9 -61q-19 -57 -69 -107z" />
    <glyph glyph-name="Ncaron" unicode="&#x147;" horiz-adv-x="637" 
d="M76 34v513q0 59 24 85.5t75 26.5q44 0 66.5 -20t37.5 -72l147 -473q7 -21 14.5 -28.5t19.5 -7.5q24 0 24 38v520q0 20 7 27t27 7h9q20 0 27 -7t7 -27v-513q0 -59 -23.5 -85.5t-72.5 -26.5q-45 0 -69 21.5t-40 75.5l-145 465q-7 23 -13.5 31t-19.5 8q-26 0 -26 -40v-518
q0 -20 -7 -27t-27 -7h-8q-20 0 -27 7t-7 27zM251 750l-38 59q-9 13 -6 18t19 5h9q27 0 41 -23l22 -39q24 -42 48 0l23 39q14 23 41 23h8q16 0 18.5 -5t-5.5 -18l-38 -59q-18 -29 -32 -39t-39 -10q-24 0 -38 10t-33 39z" />
    <glyph glyph-name="ncaron" unicode="&#x148;" horiz-adv-x="535" 
d="M134 316v-284q0 -20 -6 -26t-26 -6h-11q-19 0 -25.5 6t-6.5 26v284q0 187 209 187q107 0 157.5 -46.5t50.5 -140.5v-284q0 -20 -6 -26t-26 -6h-12q-20 0 -26 6t-6 26v284q0 63 -29.5 89.5t-102.5 26.5t-103.5 -27t-30.5 -89zM189 601l-38 59q-9 14 -6 18.5t19 4.5h9
q27 0 41 -23l22 -39q24 -42 48 0l23 39q14 23 41 23h8q16 0 18.5 -5t-5.5 -18l-38 -59q-18 -29 -32 -39t-39 -10q-24 0 -38 10t-33 39z" />
    <glyph glyph-name="Omacron" unicode="&#x14c;" 
d="M437 749v-8q0 -17 -5.5 -22.5t-22.5 -5.5h-200q-17 0 -22.5 5.5t-5.5 22.5v8q0 17 5.5 22.5t22.5 5.5h200q17 0 22.5 -5.5t5.5 -22.5zM488 251v146q0 101 -36 144q-36 45 -141 45t-141 -45q-36 -43 -36 -144v-146q0 -99 36 -144q36 -44 141 -44t141 44q36 45 36 144z
M311 -10q-144 0 -200 65q-55 64 -55 196v146q0 131 56 196t199 65t199 -65t56 -196v-146q0 -131 -56 -196t-199 -65z" />
    <glyph glyph-name="omacron" unicode="&#x14d;" horiz-adv-x="536" 
d="M392 609v-8q0 -17 -5.5 -22.5t-22.5 -5.5h-200q-17 0 -22.5 5.5t-5.5 22.5v8q0 17 5.5 22.5t22.5 5.5h200q17 0 22.5 -5.5t5.5 -22.5zM412 200v93q0 75 -32 107t-111 32q-80 0 -112.5 -32t-32.5 -107v-93q0 -75 32.5 -107t112.5 -32q79 0 111 32t32 107zM269 -10
q-114 0 -167 52t-53 158v93q0 210 220 210q113 0 165.5 -52t52.5 -158v-93q0 -210 -218 -210z" />
    <glyph glyph-name="Ohungarumlaut" unicode="&#x150;" 
d="M488 251v146q0 101 -36 144q-36 45 -141 45t-141 -45q-36 -43 -36 -144v-146q0 -99 36 -144q36 -44 141 -44t141 44q36 45 36 144zM311 -10q-144 0 -200 65q-55 64 -55 196v146q0 131 56 196t199 65t199 -65t56 -196v-146q0 -131 -56 -196t-199 -65zM446 805l-50 -83
q-15 -24 -43 -24h-10q-16 0 -19 5t4 20l42 81q10 18 20 24t30 6h10q20 0 23.5 -6t-7.5 -23zM315 805l-50 -83q-15 -24 -43 -24h-10q-17 0 -20 5t5 20l42 81q10 18 20 24t30 6h10q20 0 23.5 -6t-7.5 -23z" />
    <glyph glyph-name="ohungarumlaut" unicode="&#x151;" horiz-adv-x="536" 
d="M412 200v93q0 75 -32 107t-111 32q-80 0 -112.5 -32t-32.5 -107v-93q0 -75 32.5 -107t112.5 -32q79 0 111 32t32 107zM269 -10q-114 0 -167 52t-53 158v93q0 210 220 210q113 0 165.5 -52t52.5 -158v-93q0 -210 -218 -210zM415 656l-50 -83q-15 -24 -43 -24h-10
q-16 0 -19 5t4 20l42 81q10 18 20 24t30 6h10q20 0 23.5 -6t-7.5 -23zM284 656l-50 -83q-15 -24 -43 -24h-10q-17 0 -20 5t5 20l42 81q10 18 20 24t30 6h10q20 0 23.5 -6t-7.5 -23z" />
    <glyph glyph-name="OE" unicode="&#x152;" horiz-adv-x="952" 
d="M311 -10q-144 0 -200 65q-55 64 -55 196v146q0 131 56 196t199 65q152 0 193 -84q10 76 101 76h272q19 0 25 -6t6 -25v-11q0 -19 -6 -25t-25 -6h-265q-25 0 -36 -11t-11 -36v-155h272q19 0 25 -6t6 -25v-11q0 -19 -6 -25t-25 -6h-272v-182q0 -25 11 -36t36 -11h265
q19 0 25 -6t6 -25v-11q0 -19 -6 -25t-25 -6h-272q-89 0 -101 75q-39 -85 -193 -85zM488 251v146q0 101 -36 144q-36 45 -141 45t-141 -45q-36 -43 -36 -144v-146q0 -99 36 -144q36 -44 141 -44t141 44q36 45 36 144z" />
    <glyph glyph-name="oe" unicode="&#x153;" horiz-adv-x="868" 
d="M269 -10q-114 0 -167 52t-53 158v93q0 210 220 210q145 0 180 -102q35 102 173 102q99 0 151.5 -50.5t52.5 -149.5q0 -30 -3 -54q-2 -19 -9 -25t-27 -6h-302v-30q0 -68 36.5 -97.5t119.5 -29.5q72 0 136 19q19 6 25.5 1.5t6.5 -23.5v-9q0 -18 -6.5 -26t-24.5 -14
q-56 -19 -137 -19q-157 0 -193 102q-37 -102 -179 -102zM412 200v93q0 75 -32 107t-111 32q-80 0 -112.5 -32t-32.5 -107v-93q0 -75 32.5 -107t112.5 -32q79 0 111 32t32 107zM485 314v-33h270v33q0 122 -135 122t-135 -122z" />
    <glyph glyph-name="Racute" unicode="&#x154;" horiz-adv-x="603" 
d="M549 456q0 -84 -34.5 -129.5t-111.5 -57.5l148 -236q13 -19 9 -26t-27 -7h-11q-23 0 -35 6.5t-25 26.5l-143 230h-165v-229q0 -20 -7 -27t-27 -7h-10q-20 0 -27 7t-7 27v508q0 56 25.5 82t82.5 26h154q112 0 161.5 -47t49.5 -147zM338 577h-137q-25 0 -36 -11t-11 -36
v-194h184q74 0 103.5 27.5t29.5 92.5q0 67 -29 94t-104 27zM378 805l-50 -83q-15 -24 -43 -24h-10q-16 0 -19 5t4 20l42 81q10 18 20 24t30 6h10q20 0 23.5 -6t-7.5 -23z" />
    <glyph glyph-name="racute" unicode="&#x155;" horiz-adv-x="309" 
d="M134 326v-294q0 -20 -6 -26t-26 -6h-11q-19 0 -25.5 6t-6.5 26v298q0 173 171 173q8 0 32 -2q19 -2 24.5 -9t5.5 -26v-10q0 -19 -6 -24t-25 -2q-6 0 -13.5 0.5t-11.5 1t-6 0.5q-53 0 -74.5 -24.5t-21.5 -81.5zM250 656l-50 -83q-15 -24 -43 -24h-10q-16 0 -19 5t4 20
l42 81q10 18 20 24t30 6h10q20 0 23.5 -6t-7.5 -23z" />
    <glyph glyph-name="Rcommaaccent" unicode="&#x156;" horiz-adv-x="603" 
d="M549 456q0 -84 -34.5 -129.5t-111.5 -57.5l148 -236q13 -19 9 -26t-27 -7h-11q-23 0 -35 6.5t-25 26.5l-143 230h-165v-229q0 -20 -7 -27t-27 -7h-10q-20 0 -27 7t-7 27v508q0 56 25.5 82t82.5 26h154q112 0 161.5 -47t49.5 -147zM338 577h-137q-25 0 -36 -11t-11 -36
v-194h184q74 0 103.5 27.5t29.5 92.5q0 67 -29 94t-104 27zM267 -256q-9 -10 -20 -5q-8 5 -5 22q0 2 13 41q14 39 15 67q5 54 10 66q6 14 26 16q16 1 26.5 -9.5t12.5 -29.5q7 -16 -9 -61q-19 -57 -69 -107z" />
    <glyph glyph-name="rcommaaccent" unicode="&#x157;" horiz-adv-x="309" 
d="M134 326v-294q0 -20 -6 -26t-26 -6h-11q-19 0 -25.5 6t-6.5 26v298q0 173 171 173q8 0 32 -2q19 -2 24.5 -9t5.5 -26v-10q0 -19 -6 -24t-25 -2q-6 0 -13.5 0.5t-11.5 1t-6 0.5q-53 0 -74.5 -24.5t-21.5 -81.5zM57 -256q-9 -10 -20 -5q-8 5 -5 22q0 2 13 41q14 39 15 67
q5 54 10 66q6 14 26 16q16 1 26.5 -9.5t12.5 -29.5q7 -16 -9 -61q-19 -57 -69 -107z" />
    <glyph glyph-name="Rcaron" unicode="&#x158;" horiz-adv-x="603" 
d="M549 456q0 -84 -34.5 -129.5t-111.5 -57.5l148 -236q13 -19 9 -26t-27 -7h-11q-23 0 -35 6.5t-25 26.5l-143 230h-165v-229q0 -20 -7 -27t-27 -7h-10q-20 0 -27 7t-7 27v508q0 56 25.5 82t82.5 26h154q112 0 161.5 -47t49.5 -147zM338 577h-137q-25 0 -36 -11t-11 -36
v-194h184q74 0 103.5 27.5t29.5 92.5q0 67 -29 94t-104 27zM226 750l-38 59q-9 13 -6 18t19 5h9q27 0 41 -23l22 -39q24 -42 48 0l23 39q14 23 41 23h8q16 0 18.5 -5t-5.5 -18l-38 -59q-18 -29 -32 -39t-39 -10q-24 0 -38 10t-33 39z" />
    <glyph glyph-name="rcaron" unicode="&#x159;" horiz-adv-x="309" 
d="M134 326v-294q0 -20 -6 -26t-26 -6h-11q-19 0 -25.5 6t-6.5 26v298q0 173 171 173q8 0 32 -2q19 -2 24.5 -9t5.5 -26v-10q0 -19 -6 -24t-25 -2q-6 0 -13.5 0.5t-11.5 1t-6 0.5q-53 0 -74.5 -24.5t-21.5 -81.5zM109 601l-38 59q-9 14 -6 18.5t19 4.5h9q27 0 41 -23l22 -39
q24 -42 48 0l23 39q14 23 41 23h8q16 0 18.5 -5t-5.5 -18l-38 -59q-18 -29 -32 -39t-39 -10q-24 0 -38 10t-33 39z" />
    <glyph glyph-name="Sacute" unicode="&#x15a;" horiz-adv-x="518" 
d="M49 51v14q0 35 30 25q73 -26 166 -26q79 0 114 19.5t35 65.5q0 35 -18.5 57t-73.5 55l-148 91q-99 60 -99 159q0 77 51 112.5t158 35.5q88 0 150 -24q19 -7 24.5 -13.5t5.5 -23.5v-13q0 -35 -30 -24q-64 24 -150 24q-69 0 -99 -18t-30 -59q0 -30 14.5 -49t55.5 -46
l151 -94q64 -40 90.5 -77t26.5 -92q0 -160 -230 -160q-96 0 -162 24q-24 10 -27 16t-5 21zM335 805l-50 -83q-15 -24 -43 -24h-10q-16 0 -19 5t4 20l42 81q10 18 20 24t30 6h10q20 0 23.5 -6t-7.5 -23z" />
    <glyph glyph-name="sacute" unicode="&#x15b;" horiz-adv-x="458" 
d="M47 46v8q0 19 7 24.5t25 1.5q74 -20 147 -20q60 0 84.5 12.5t24.5 44.5q0 24 -14 39t-51 33l-122 58q-51 25 -72 53t-21 77q0 65 43 95.5t134 30.5q72 0 125 -19q18 -6 24 -13t6 -24v-9q0 -19 -7.5 -24t-24.5 0q-56 19 -125 19q-55 0 -78 -13t-23 -43q0 -42 53 -66
l127 -58q55 -25 77.5 -54.5t22.5 -79.5q0 -67 -46 -98t-143 -31q-74 0 -141 19q-19 5 -25.5 13t-6.5 24zM292 656l-50 -83q-15 -24 -43 -24h-10q-16 0 -19 5t4 20l42 81q10 18 20 24t30 6h10q20 0 23.5 -6t-7.5 -23z" />
    <glyph glyph-name="Scedilla" unicode="&#x15e;" horiz-adv-x="518" 
d="M197 -59l13 50q-72 3 -129 23q-24 10 -27 16t-5 21v14q0 35 30 25q73 -26 166 -26q79 0 114 19.5t35 65.5q0 35 -18.5 57t-73.5 55l-148 91q-99 60 -99 159q0 77 51 112.5t158 35.5q88 0 150 -24q19 -7 24.5 -13.5t5.5 -23.5v-13q0 -35 -30 -24q-64 24 -150 24
q-69 0 -99 -18t-30 -59q0 -30 14.5 -49t55.5 -46l151 -94q64 -40 90.5 -77t26.5 -92q0 -155 -218 -160l-8 -32q90 10 90 -67q0 -44 -24 -63.5t-75 -19.5q-18 0 -40 5q-11 2 -14.5 6.5t-3.5 15.5v6q0 20 19 16q15 -3 32 -3q27 0 38 8t11 29q0 19 -10 26.5t-35 7.5
q-16 0 -21 -1q-14 -2 -17 1t0 16z" />
    <glyph glyph-name="scedilla" unicode="&#x15f;" horiz-adv-x="458" 
d="M167 -59l13 51q-46 3 -101 17q-19 5 -25.5 13t-6.5 24v8q0 19 7 24.5t25 1.5q74 -20 147 -20q60 0 84.5 12.5t24.5 44.5q0 24 -14 39t-51 33l-122 58q-51 25 -72 53t-21 77q0 65 43 95.5t134 30.5q72 0 125 -19q18 -6 24 -13t6 -24v-9q0 -19 -7.5 -24t-24.5 0
q-56 19 -125 19q-55 0 -78 -13t-23 -43q0 -42 53 -66l127 -58q55 -25 77.5 -54.5t22.5 -79.5q0 -66 -45 -97t-139 -32l-8 -32q90 10 90 -67q0 -44 -24 -63.5t-75 -19.5q-18 0 -40 5q-11 2 -14.5 6.5t-3.5 15.5v6q0 20 19 16q15 -3 32 -3q27 0 38 8t11 29q0 19 -10 26.5
t-35 7.5q-16 0 -21 -1q-14 -2 -17 1t0 16z" />
    <glyph glyph-name="Scaron" unicode="&#x160;" horiz-adv-x="518" 
d="M49 51v14q0 35 30 25q73 -26 166 -26q79 0 114 19.5t35 65.5q0 35 -18.5 57t-73.5 55l-148 91q-99 60 -99 159q0 77 51 112.5t158 35.5q88 0 150 -24q19 -7 24.5 -13.5t5.5 -23.5v-13q0 -35 -30 -24q-64 24 -150 24q-69 0 -99 -18t-30 -59q0 -30 14.5 -49t55.5 -46
l151 -94q64 -40 90.5 -77t26.5 -92q0 -160 -230 -160q-96 0 -162 24q-24 10 -27 16t-5 21zM190 750l-38 59q-9 13 -6 18t19 5h9q27 0 41 -23l22 -39q24 -42 48 0l23 39q14 23 41 23h8q16 0 18.5 -5t-5.5 -18l-38 -59q-18 -29 -32 -39t-39 -10q-24 0 -38 10t-33 39z" />
    <glyph glyph-name="scaron" unicode="&#x161;" horiz-adv-x="458" 
d="M47 46v8q0 19 7 24.5t25 1.5q74 -20 147 -20q60 0 84.5 12.5t24.5 44.5q0 24 -14 39t-51 33l-122 58q-51 25 -72 53t-21 77q0 65 43 95.5t134 30.5q72 0 125 -19q18 -6 24 -13t6 -24v-9q0 -19 -7.5 -24t-24.5 0q-56 19 -125 19q-55 0 -78 -13t-23 -43q0 -42 53 -66
l127 -58q55 -25 77.5 -54.5t22.5 -79.5q0 -67 -46 -98t-143 -31q-74 0 -141 19q-19 5 -25.5 13t-6.5 24zM159 601l-38 59q-9 14 -6 18.5t19 4.5h9q27 0 41 -23l22 -39q24 -42 48 0l23 39q14 23 41 23h8q16 0 18.5 -4.5t-5.5 -18.5l-38 -59q-18 -29 -32 -39t-39 -10
q-24 0 -38 10t-33 39z" />
    <glyph glyph-name="Tcedilla" unicode="&#x162;" horiz-adv-x="554" 
d="M29 608v11q0 19 6 25t25 6h434q19 0 25 -6t6 -25v-11q0 -19 -6 -25t-25 -6h-178v-543q0 -20 -7 -27t-27 -7h-10q-20 0 -27 7t-7 27v543h-178q-19 0 -25 6t-6 25zM237 -256q-9 -10 -20 -5q-8 5 -5 22q0 2 13 41q14 39 15 67q5 54 10 66q6 14 26 16q16 1 26.5 -9.5
t12.5 -29.5q7 -16 -9 -61q-19 -57 -69 -107z" />
    <glyph glyph-name="tcedilla" unicode="&#x163;" horiz-adv-x="402" 
d="M14 449v5q0 17 5.5 23t21.5 8l57 8l11 103q1 16 7 21.5t23 5.5h7q16 0 21.5 -5.5t5.5 -21.5v-103h162q19 0 25 -6t6 -25v-9q0 -19 -6 -25t-25 -6h-162v-254q0 -55 22.5 -80.5t69.5 -25.5q56 0 89 10q17 4 23.5 -1.5t6.5 -24.5v-9q0 -15 -6.5 -23t-24.5 -13
q-37 -10 -87 -10q-168 0 -168 177v254h-57q-17 0 -22 5t-5 22zM197 -256q-9 -10 -20 -5q-8 5 -5 22q0 2 13 41q14 39 15 67q5 54 10 66q6 14 26 16q16 1 26.5 -9.5t12.5 -29.5q7 -16 -9 -61q-19 -57 -69 -107z" />
    <glyph glyph-name="Tcaron" unicode="&#x164;" horiz-adv-x="554" 
d="M29 608v11q0 19 6 25t25 6h434q19 0 25 -6t6 -25v-11q0 -19 -6 -25t-25 -6h-178v-543q0 -20 -7 -27t-27 -7h-10q-20 0 -27 7t-7 27v543h-178q-19 0 -25 6t-6 25zM208 750l-38 59q-9 13 -6 18t19 5h9q27 0 41 -23l22 -39q24 -42 48 0l23 39q14 23 41 23h8q16 0 18.5 -5
t-5.5 -18l-38 -59q-18 -29 -32 -39t-39 -10q-24 0 -38 10t-33 39z" />
    <glyph glyph-name="tcaron" unicode="&#x165;" horiz-adv-x="402" 
d="M14 449v5q0 17 5.5 23t21.5 8l57 8l11 103q1 16 7 21.5t23 5.5h7q16 0 21.5 -5.5t5.5 -21.5v-103h162q19 0 25 -6t6 -25v-9q0 -19 -6 -25t-25 -6h-162v-254q0 -55 22.5 -80.5t69.5 -25.5q56 0 89 10q17 4 23.5 -1.5t6.5 -24.5v-9q0 -15 -6.5 -23t-24.5 -13
q-37 -10 -87 -10q-168 0 -168 177v254h-57q-17 0 -22 5t-5 22zM278 556q-7 -12 -19 -9q-10 3 -10 20q2 35 13 109q18 103 57 103q16 0 25.5 -11.5t9.5 -30.5q0 -27 -28 -87q-32 -68 -48 -94z" />
    <glyph glyph-name="Umacron" unicode="&#x16a;" 
d="M437 749v-8q0 -17 -5.5 -22.5t-22.5 -5.5h-200q-17 0 -22.5 5.5t-5.5 22.5v8q0 17 5.5 22.5t22.5 5.5h200q17 0 22.5 -5.5t5.5 -22.5zM66 207v409q0 20 7 27t27 7h10q20 0 27 -7t7 -27v-409q0 -77 40 -110.5t127 -33.5t127 33.5t40 110.5v409q0 20 7 27t27 7h10
q20 0 27 -7t7 -27v-409q0 -217 -245 -217t-245 217z" />
    <glyph glyph-name="umacron" unicode="&#x16b;" horiz-adv-x="523" 
d="M389 609v-8q0 -17 -5.5 -22.5t-22.5 -5.5h-200q-17 0 -22.5 5.5t-5.5 22.5v8q0 17 5.5 22.5t22.5 5.5h200q17 0 22.5 -5.5t5.5 -22.5zM128 461v-284q0 -62 30.5 -89t103.5 -27q74 0 103.5 26.5t29.5 89.5v284q0 19 6.5 25.5t25.5 6.5h11q20 0 26 -6.5t6 -25.5v-284
q0 -94 -50.5 -140.5t-157.5 -46.5q-209 0 -209 187v284q0 19 6.5 25.5t25.5 6.5h11q20 0 26 -6.5t6 -25.5z" />
    <glyph glyph-name="Uring" unicode="&#x16e;" 
d="M66 207v409q0 20 7 27t27 7h10q20 0 27 -7t7 -27v-409q0 -77 40 -110.5t127 -33.5t127 33.5t40 110.5v409q0 20 7 27t27 7h10q20 0 27 -7t7 -27v-409q0 -217 -245 -217t-245 217zM308 680q-37 0 -61.5 24t-24.5 62q0 40 24 63.5t62 23.5q39 0 63.5 -24t24.5 -63
t-24.5 -62.5t-63.5 -23.5zM308 720q21 0 34 13.5t13 32.5q0 47 -47 47q-21 0 -33 -13t-12 -34q0 -19 12.5 -32.5t32.5 -13.5z" />
    <glyph glyph-name="uring" unicode="&#x16f;" horiz-adv-x="523" 
d="M128 461v-284q0 -62 30.5 -89t103.5 -27q74 0 103.5 26.5t29.5 89.5v284q0 19 6.5 25.5t25.5 6.5h11q20 0 26 -6.5t6 -25.5v-284q0 -94 -50.5 -140.5t-157.5 -46.5q-209 0 -209 187v284q0 19 6.5 25.5t25.5 6.5h11q20 0 26 -6.5t6 -25.5zM257 531q-37 0 -61.5 24
t-24.5 62t23 63q24 24 63 24t63 -24q25 -24 25 -63t-24.5 -62.5t-63.5 -23.5zM257 571q21 0 34 13.5t13 32.5q0 47 -47 47q-21 0 -33 -13t-12 -34q0 -19 12.5 -32.5t32.5 -13.5z" />
    <glyph glyph-name="Uhungarumlaut" unicode="&#x170;" 
d="M66 207v409q0 20 7 27t27 7h10q20 0 27 -7t7 -27v-409q0 -77 40 -110.5t127 -33.5t127 33.5t40 110.5v409q0 20 7 27t27 7h10q20 0 27 -7t7 -27v-409q0 -217 -245 -217t-245 217zM452 805l-50 -83q-15 -24 -43 -24h-10q-16 0 -19 5t4 20l42 81q10 18 20 24t30 6h10
q20 0 23.5 -6t-7.5 -23zM321 805l-50 -83q-15 -24 -43 -24h-10q-17 0 -20 5t5 20l42 81q10 18 20 24t30 6h10q20 0 23.5 -6t-7.5 -23z" />
    <glyph glyph-name="uhungarumlaut" unicode="&#x171;" horiz-adv-x="523" 
d="M128 461v-284q0 -62 30.5 -89t103.5 -27q74 0 103.5 26.5t29.5 89.5v284q0 19 6.5 25.5t25.5 6.5h11q20 0 26 -6.5t6 -25.5v-284q0 -94 -50.5 -140.5t-157.5 -46.5q-209 0 -209 187v284q0 19 6.5 25.5t25.5 6.5h11q20 0 26 -6.5t6 -25.5zM405 656l-50 -83
q-15 -24 -43 -24h-10q-16 0 -19 5t4 20l42 81q10 18 20 24t30 6h10q20 0 23.5 -6t-7.5 -23zM274 656l-50 -83q-15 -24 -43 -24h-10q-17 0 -20 5t5 20l42 81q10 18 20 24t30 6h10q20 0 23.5 -6t-7.5 -23z" />
    <glyph glyph-name="Uogonek" unicode="&#x172;" 
d="M66 207v409q0 20 7 27t27 7h10q20 0 27 -7t7 -27v-409q0 -77 40 -110.5t127 -33.5t127 33.5t40 110.5v409q0 20 7 27t27 7h10q20 0 27 -7t7 -27v-409q0 -178 -164 -210q-58 -38 -70 -53q-16 -19 -16 -45q0 -24 9.5 -33.5t31.5 -9.5q1 0 23 2q14 2 18.5 -1.5t4.5 -16.5v-7
q0 -13 -5 -18.5t-19 -7.5q-17 -3 -35 -3q-47 0 -68.5 20t-21.5 66q0 36 16 57.5t58 42.5h-7q-245 0 -245 217z" />
    <glyph glyph-name="uogonek" unicode="&#x173;" horiz-adv-x="523" 
d="M128 461v-284q0 -62 30.5 -89t103.5 -27q74 0 103.5 26.5t29.5 89.5v284q0 19 6.5 25.5t25.5 6.5h11q20 0 26 -6.5t6 -25.5v-284q0 -145 -122 -177q-61 -41 -73 -56q-16 -19 -16 -45q0 -24 9.5 -33.5t31.5 -9.5q1 0 23 2q14 2 18.5 -1.5t4.5 -16.5v-7q0 -13 -5 -18.5
t-19 -7.5q-16 -3 -35 -3q-47 0 -68.5 20t-21.5 66q0 36 16 57.5t58 42.5h-9q-209 0 -209 187v284q0 19 6.5 25.5t25.5 6.5h11q20 0 26 -6.5t6 -25.5z" />
    <glyph glyph-name="Ydieresis" unicode="&#x178;" horiz-adv-x="606" 
d="M268 35v233q-32 8 -49 26q-15 15 -49 77l-133 246q-11 19 -6.5 26t26.5 7h11q23 0 34.5 -7t21.5 -27l112 -214q22 -44 35 -56t36 -12t36 13q14 14 35 55l112 214q10 20 21.5 27t34.5 7h11q22 0 26.5 -7t-6.5 -26l-133 -246q-34 -62 -49 -77q-17 -19 -48 -26v-233
q0 -21 -7 -28t-28 -7h-9q-21 0 -28 7t-7 28zM181 765q0 19 13 32.5t32 13.5t32 -13t13 -33q0 -18 -13 -31t-32 -13t-32 13t-13 31zM343 765q0 19 13.5 32.5t32.5 13.5q18 0 31 -13.5t13 -32.5q0 -18 -13 -31t-31 -13q-19 0 -32.5 13t-13.5 31z" />
    <glyph glyph-name="Zacute" unicode="&#x179;" horiz-adv-x="546" 
d="M54 608v11q0 19 6 25t25 6h298q126 0 126 -103q0 -36 -14 -63.5t-52 -60.5l-301 -263q-35 -32 -35 -58q0 -29 42 -29h334q19 0 25 -6t6 -25v-11q0 -19 -6 -25t-25 -6h-332q-119 0 -119 90q0 39 14.5 67t53.5 63l302 265q31 27 31 53q0 39 -53 39h-295q-19 0 -25 6t-6 25z
M332 805l-50 -83q-15 -24 -43 -24h-10q-17 0 -20 5t5 20l42 81q10 18 20 24t30 6h10q20 0 23.5 -6t-7.5 -23z" />
    <glyph glyph-name="zacute" unicode="&#x17a;" horiz-adv-x="474" 
d="M63 454v9q0 18 6 24t24 6h235q58 0 82.5 -21t24.5 -71q0 -32 -14 -54.5t-51 -48.5l-238 -167q-24 -17 -24 -35q0 -27 42 -27h255q18 0 24 -6t6 -24v-9q0 -18 -6 -24t-24 -6h-261q-105 0 -105 90q0 59 62 103l236 164q29 20 29 41q0 26 -42 26h-231q-18 0 -24 6t-6 24z
M318 656l-50 -83q-15 -24 -43 -24h-10q-16 0 -19 5t4 20l42 81q10 18 20 24t30 6h10q20 0 23.5 -6t-7.5 -23z" />
    <glyph glyph-name="Zdotaccent" unicode="&#x17b;" horiz-adv-x="546" 
d="M54 608v11q0 19 6 25t25 6h298q126 0 126 -103q0 -36 -14 -63.5t-52 -60.5l-301 -263q-35 -32 -35 -58q0 -29 42 -29h334q19 0 25 -6t6 -25v-11q0 -19 -6 -25t-25 -6h-332q-119 0 -119 90q0 39 14.5 67t53.5 63l302 265q31 27 31 53q0 39 -53 39h-295q-19 0 -25 6t-6 25z
M287 716q-21 0 -35 14t-14 35t14 35t35 14t35 -14t14 -35t-14 -35t-35 -14z" />
    <glyph glyph-name="zdotaccent" unicode="&#x17c;" horiz-adv-x="474" 
d="M63 454v9q0 18 6 24t24 6h235q58 0 82.5 -21t24.5 -71q0 -32 -14 -54.5t-51 -48.5l-238 -167q-24 -17 -24 -35q0 -27 42 -27h255q18 0 24 -6t6 -24v-9q0 -18 -6 -24t-24 -6h-261q-105 0 -105 90q0 59 62 103l236 164q29 20 29 41q0 26 -42 26h-231q-18 0 -24 6t-6 24z
M253 568q-21 0 -35 14t-14 35t14 35t35 14t35 -14t14 -35t-14 -35t-35 -14z" />
    <glyph glyph-name="Zcaron" unicode="&#x17d;" horiz-adv-x="546" 
d="M54 608v11q0 19 6 25t25 6h298q126 0 126 -103q0 -36 -14 -63.5t-52 -60.5l-301 -263q-35 -32 -35 -58q0 -29 42 -29h334q19 0 25 -6t6 -25v-11q0 -19 -6 -25t-25 -6h-332q-119 0 -119 90q0 39 14.5 67t53.5 63l302 265q31 27 31 53q0 39 -53 39h-295q-19 0 -25 6t-6 25z
M215 750l-38 59q-9 13 -6 18t19 5h9q27 0 41 -23l22 -39q24 -42 48 0l23 39q14 23 41 23h8q16 0 18.5 -5t-5.5 -18l-38 -59q-18 -29 -32 -39t-39 -10q-24 0 -38 10t-33 39z" />
    <glyph glyph-name="zcaron" unicode="&#x17e;" horiz-adv-x="474" 
d="M63 454v9q0 18 6 24t24 6h235q58 0 82.5 -21t24.5 -71q0 -32 -14 -54.5t-51 -48.5l-238 -167q-24 -17 -24 -35q0 -27 42 -27h255q18 0 24 -6t6 -24v-9q0 -18 -6 -24t-24 -6h-261q-105 0 -105 90q0 59 62 103l236 164q29 20 29 41q0 26 -42 26h-231q-18 0 -24 6t-6 24z
M169 601l-38 59q-9 14 -6 18.5t19 4.5h9q27 0 41 -23l22 -39q24 -42 48 0l23 39q14 23 41 23h8q16 0 18.5 -4.5t-5.5 -18.5l-38 -59q-18 -29 -32 -39t-39 -10q-24 0 -38 10t-33 39z" />
    <glyph glyph-name="florin" unicode="&#x192;" horiz-adv-x="446" 
d="M79 311v9q0 14 5 19t19 5h94l20 128q16 102 50 145q35 44 119 44q2 0 5.5 -0.5t11 -1t13.5 -0.5q19 -2 25 -9t6 -26v-7q0 -19 -5.5 -24.5t-21.5 -3.5q-4 1 -23 1q-50 0 -71 -22q-22 -22 -32 -98l-19 -126h123q14 0 19 -5t5 -19v-9q0 -14 -5 -19t-19 -5h-132l-34 -215
q-10 -68 -23 -117q-10 -41 -30 -76q-20 -34 -51 -48t-83 -14q-11 0 -13 1q-19 3 -25 10t-6 26v8q0 18 5 22t26 4h7q58 0 77 37q21 36 39 151l33 211h-85q-14 0 -19 5t-5 19z" />
    <glyph glyph-name="Ohorn" unicode="&#x1a0;" horiz-adv-x="715" 
d="M311 -10q-144 0 -200 65q-55 64 -55 196v146q0 131 56 196t199 65t199 -65q23 -27 36 -64q90 7 90 63q0 24 -6 43q-4 13 2 19t26 6h13q17 0 24.5 -5t12.5 -19q7 -22 7 -57q0 -50 -40.5 -84t-111.5 -41q3 -27 3 -57v-146q0 -131 -56 -196t-199 -65zM488 251v146
q0 101 -36 144q-36 45 -141 45t-141 -45q-36 -43 -36 -144v-146q0 -99 36 -144q36 -44 141 -44t141 44q36 45 36 144z" />
    <glyph glyph-name="ohorn" unicode="&#x1a1;" horiz-adv-x="635" 
d="M269 -10q-114 0 -167 52t-53 158v93q0 210 220 210q178 0 209 -133q78 10 78 62q0 24 -6 43q-4 13 2 19t26 6h13q17 0 24.5 -5t12.5 -19q7 -22 7 -57q0 -49 -39 -82.5t-109 -42.5v-1v-93q0 -210 -218 -210zM412 200v93q0 75 -32 107t-111 32q-80 0 -112.5 -32t-32.5 -107
v-93q0 -75 32.5 -107t112.5 -32q79 0 111 32t32 107z" />
    <glyph glyph-name="Uhorn" unicode="&#x1af;" horiz-adv-x="735" 
d="M66 207v409q0 20 7 27t27 7h10q20 0 27 -7t7 -27v-409q0 -77 40 -110.5t127 -33.5t127 33.5t40 110.5v409q0 20 7 27t27 7h10q20 0 27 -7t7 -27v-98q100 4 100 64q0 24 -6 43q-4 13 2 19t26 6h13q17 0 24.5 -5t12.5 -19q7 -22 7 -57q0 -54 -48 -89.5t-131 -37.5v-235
q0 -217 -245 -217t-245 217z" />
    <glyph glyph-name="uhorn" unicode="&#x1b0;" horiz-adv-x="635" 
d="M128 461v-284q0 -62 30.5 -89t103.5 -27q74 0 103.5 26.5t29.5 89.5v284q0 19 6.5 25.5t25.5 6.5h11q20 0 26 -6.5t6 -25.5v-102q39 3 62.5 19.5t23.5 43.5q0 24 -6 43q-4 13 2 19t26 6h13q17 0 24.5 -5t12.5 -19q7 -22 7 -57q0 -52 -44 -86.5t-121 -39.5v-106
q0 -94 -50.5 -140.5t-157.5 -46.5q-209 0 -209 187v284q0 19 6.5 25.5t25.5 6.5h11q20 0 26 -6.5t6 -25.5z" />
    <glyph glyph-name="Scommaaccent" unicode="&#x218;" horiz-adv-x="518" 
d="M49 51v14q0 35 30 25q73 -26 166 -26q79 0 114 19.5t35 65.5q0 35 -18.5 57t-73.5 55l-148 91q-99 60 -99 159q0 77 51 112.5t158 35.5q88 0 150 -24q19 -7 24.5 -13.5t5.5 -23.5v-13q0 -35 -30 -24q-64 24 -150 24q-69 0 -99 -18t-30 -59q0 -30 14.5 -49t55.5 -46
l151 -94q64 -40 90.5 -77t26.5 -92q0 -160 -230 -160q-96 0 -162 24q-24 10 -27 16t-5 21zM227 -256q-9 -10 -20 -5q-8 5 -5 22q0 2 13 41q14 39 15 67q5 54 10 66q6 14 26 16q16 1 26.5 -9.5t12.5 -29.5q7 -16 -9 -61q-19 -57 -69 -107z" />
    <glyph glyph-name="scommaaccent" unicode="&#x219;" horiz-adv-x="458" 
d="M47 46v8q0 19 7 24.5t25 1.5q74 -20 147 -20q60 0 84.5 12.5t24.5 44.5q0 24 -14 39t-51 33l-122 58q-51 25 -72 53t-21 77q0 65 43 95.5t134 30.5q72 0 125 -19q18 -6 24 -13t6 -24v-9q0 -19 -7.5 -24t-24.5 0q-56 19 -125 19q-55 0 -78 -13t-23 -43q0 -42 53 -66
l127 -58q55 -25 77.5 -54.5t22.5 -79.5q0 -67 -46 -98t-143 -31q-74 0 -141 19q-19 5 -25.5 13t-6.5 24zM187 -256q-9 -10 -20 -5q-8 5 -5 22q0 2 13 41q14 39 15 67q5 54 10 66q6 14 26 16q16 1 26.5 -9.5t12.5 -29.5q7 -16 -9 -61q-19 -57 -69 -107z" />
    <glyph glyph-name="Tcommaaccent" unicode="&#x21a;" horiz-adv-x="554" 
d="M29 608v11q0 19 6 25t25 6h434q19 0 25 -6t6 -25v-11q0 -19 -6 -25t-25 -6h-178v-543q0 -20 -7 -27t-27 -7h-10q-20 0 -27 7t-7 27v543h-178q-19 0 -25 6t-6 25zM237 -256q-9 -10 -20 -5q-8 5 -5 22q0 2 13 41q14 39 15 67q5 54 10 66q6 14 26 16q16 1 26.5 -9.5
t12.5 -29.5q7 -16 -9 -61q-19 -57 -69 -107z" />
    <glyph glyph-name="tcommaaccent" unicode="&#x21b;" horiz-adv-x="402" 
d="M14 449v5q0 17 5.5 23t21.5 8l57 8l11 103q1 16 7 21.5t23 5.5h7q16 0 21.5 -5.5t5.5 -21.5v-103h162q19 0 25 -6t6 -25v-9q0 -19 -6 -25t-25 -6h-162v-254q0 -55 22.5 -80.5t69.5 -25.5q56 0 89 10q17 4 23.5 -1.5t6.5 -24.5v-9q0 -15 -6.5 -23t-24.5 -13
q-37 -10 -87 -10q-168 0 -168 177v254h-57q-17 0 -22 5t-5 22zM197 -256q-9 -10 -20 -5q-8 5 -5 22q0 2 13 41q14 39 15 67q5 54 10 66q6 14 26 16q16 1 26.5 -9.5t12.5 -29.5q7 -16 -9 -61q-19 -57 -69 -107z" />
    <glyph glyph-name="circumflex" unicode="&#x2c6;" horiz-adv-x="368" 
d="M77 773l38 59q19 29 33 39t38 10q25 0 39 -10t32 -39l38 -59q9 -13 6 -18t-19 -5h-8q-27 0 -41 23l-23 39q-24 42 -48 0l-22 -39q-14 -23 -41 -23h-9q-16 0 -18.5 5t5.5 18z" />
    <glyph glyph-name="caron" unicode="&#x2c7;" horiz-adv-x="368" 
d="M113 798l-38 59q-9 13 -6 18t19 5h9q27 0 41 -23l22 -39q24 -42 48 0l23 39q14 23 41 23h8q16 0 18.5 -5t-5.5 -18l-38 -59q-18 -29 -32 -39t-39 -10q-24 0 -38 10t-33 39z" />
    <glyph glyph-name="breve" unicode="&#x2d8;" horiz-adv-x="396" 
d="M71 851v-4q0 14 5 19t19 5h8q14 0 19 -5t5 -19v4q0 -28 16.5 -40t54.5 -12t54.5 12.5t16.5 40.5v-5q0 14 5 19t19 5h8q14 0 19 -5t5 -19v4q0 -101 -127 -101t-127 101z" />
    <glyph glyph-name="dotaccent" unicode="&#x2d9;" horiz-adv-x="190" 
d="M95 750q-21 0 -35 14t-14 35t14 35t35 14t35 -14t14 -35t-14 -35t-35 -14z" />
    <glyph glyph-name="ring" unicode="&#x2da;" horiz-adv-x="274" 
d="M136 750q-37 0 -61.5 24t-24.5 62q0 40 24 63.5t62 23.5q39 0 63.5 -24t24.5 -63t-24.5 -62.5t-63.5 -23.5zM136 790q21 0 34 13.5t13 32.5q0 47 -47 47q-21 0 -33 -13t-12 -34q0 -19 12.5 -32.5t32.5 -13.5z" />
    <glyph glyph-name="ogonek" unicode="&#x2db;" horiz-adv-x="247" 
d="M143 0h58q-59 -38 -75 -56q-16 -19 -16 -45q0 -24 9.5 -33.5t31.5 -9.5q1 0 23 2q14 2 18.5 -1.5t4.5 -16.5v-7q0 -13 -5 -18.5t-19 -7.5q-17 -3 -35 -3q-47 0 -68.5 20t-21.5 66q0 39 20 62q21 22 75 48z" />
    <glyph glyph-name="tilde" unicode="&#x2dc;" horiz-adv-x="466" 
d="M108 769h-7q-13 0 -17.5 4t-3.5 15q8 90 87 90q33 0 77 -32t60 -32q29 0 34 38q1 11 5.5 15t17.5 4h6q13 0 17.5 -4t3.5 -15q-6 -90 -87 -90q-33 0 -77 32t-59 32q-29 0 -34 -38q-1 -11 -5.5 -15t-17.5 -4z" />
    <glyph glyph-name="hungarumlaut" unicode="&#x2dd;" horiz-adv-x="386" 
d="M318 857l-50 -83q-15 -24 -43 -24h-10q-16 0 -19 5t4 20l42 81q10 18 20 24t30 6h10q20 0 23.5 -6t-7.5 -23zM187 857l-50 -83q-15 -24 -43 -24h-10q-17 0 -20 5t5 20l42 81q10 18 20 24t30 6h10q20 0 23.5 -6t-7.5 -23z" />
    <glyph glyph-name="gravecomb" unicode="&#x300;" horiz-adv-x="0" 
d="M-262 573l-50 83q-11 17 -7.5 23t23.5 6h10q20 0 30 -6t20 -24l42 -81q8 -15 5 -20t-20 -5h-10q-28 0 -43 24z" />
    <glyph glyph-name="acutecomb" unicode="&#x301;" horiz-adv-x="0" 
d="M-160 656l-50 -83q-15 -24 -43 -24h-10q-16 0 -19 5t4 20l42 81q10 18 20 24t30 6h10q20 0 23.5 -6t-7.5 -23z" />
    <glyph glyph-name="tildecomb" unicode="&#x303;" horiz-adv-x="0" 
d="M-370 566h-7q-13 0 -17.5 4t-3.5 15q8 90 87 90q33 0 77 -32t60 -32q29 0 34 38q1 11 5.5 15t17.5 4h6q13 0 17.5 -4t3.5 -15q-6 -90 -87 -90q-33 0 -77 32t-59 32q-29 0 -34 -38q-1 -11 -5.5 -15t-17.5 -4z" />
    <glyph glyph-name="hookabovecomb" unicode="&#x309;" horiz-adv-x="0" 
d="M-283 557l-10 39q-3 13 0 16t17 1q5 -1 21 -1q25 0 35 7.5t10 26.5q0 21 -11 29t-38 8q-17 0 -32 -3q-19 -4 -19 16v6q0 11 3.5 15.5t14.5 6.5q22 5 40 5q51 0 75 -19.5t24 -63.5q0 -78 -90 -67l6 -22q3 -10 -8 -10h-25q-10 0 -13 10z" />
    <glyph glyph-name="dotbelowcomb" unicode="&#x323;" horiz-adv-x="0" 
d="M-243 -157q-21 0 -35 14t-14 35t14 35t35 14t35 -14t14 -35t-14 -35t-35 -14z" />
    <glyph glyph-name="afii10023" unicode="&#x401;" horiz-adv-x="542" 
d="M184 765q0 19 13 32.5t32 13.5t32 -13t13 -33q0 -18 -13 -31t-32 -13t-32 13t-13 31zM346 765q0 19 13.5 32.5t32.5 13.5q18 0 31 -13.5t13 -32.5q0 -18 -13 -31t-31 -13q-19 0 -32.5 13t-13.5 31zM427 302h-273v-182q0 -25 11 -36t36 -11h266q19 0 25 -6t6 -25v-11
q0 -19 -6 -25t-25 -6h-283q-57 0 -82.5 26t-25.5 82v434q0 56 25.5 82t82.5 26h283q19 0 25 -6t6 -25v-11q0 -19 -6 -25t-25 -6h-266q-25 0 -36 -11t-11 -36v-155h273q19 0 25 -6t6 -25v-11q0 -19 -6 -25t-25 -6z" />
    <glyph glyph-name="afii10051" unicode="&#x402;" horiz-adv-x="775" 
d="M700 116q0 -104 -33 -174t-91 -118q-15 -12 -23.5 -10t-19.5 19l-5 8q-10 17 -9 25.5t15 19.5q88 72 88 230q0 90 -42.5 133t-134.5 43q-66 0 -129 -20v-238q0 -20 -7 -27t-27 -7h-10q-20 0 -27 7t-7 27v543h-178q-19 0 -25 6t-6 25v11q0 19 6 25t25 6h434q19 0 25 -6
t6 -25v-11q0 -19 -6 -25t-25 -6h-178v-231q50 19 127 19q132 0 194.5 -60.5t62.5 -188.5z" />
    <glyph glyph-name="afii10052" unicode="&#x403;" horiz-adv-x="542" 
d="M357 805l-50 -83q-15 -24 -43 -24h-10q-16 0 -19 5t4 20l42 81q10 18 20 24t30 6h10q20 0 23.5 -6t-7.5 -23zM154 530v-496q0 -20 -7 -27t-27 -7h-10q-20 0 -27 7t-7 27v508q0 56 25.5 82t82.5 26h283q19 0 25 -6t6 -25v-11q0 -19 -6 -25t-25 -6h-266q-25 0 -36 -11
t-11 -36z" />
    <glyph glyph-name="afii10053" unicode="&#x404;" horiz-adv-x="524" 
d="M329 302h-194v-63q0 -90 42 -133t134 -43q75 0 144 26q17 7 23.5 2t6.5 -24v-12q0 -16 -6 -24t-24 -16q-53 -25 -142 -25q-132 0 -194.5 60.5t-62.5 188.5v160q0 260 255 260q72 0 139 -26q17 -7 23 -14.5t6 -23.5v-13q0 -36 -31 -23q-63 27 -140 27q-90 0 -131.5 -45
t-41.5 -142v-24h194q19 0 25 -6t6 -25v-11q0 -19 -6 -25t-25 -6z" />
    <glyph glyph-name="afii10054" unicode="&#x405;" horiz-adv-x="518" 
d="M49 51v14q0 35 30 25q73 -26 166 -26q79 0 114 19.5t35 65.5q0 35 -18.5 57t-73.5 55l-148 91q-99 60 -99 159q0 77 51 112.5t158 35.5q88 0 150 -24q19 -7 24.5 -13.5t5.5 -23.5v-13q0 -35 -30 -24q-64 24 -150 24q-69 0 -99 -18t-30 -59q0 -30 14.5 -49t55.5 -46
l151 -94q64 -40 90.5 -77t26.5 -92q0 -160 -230 -160q-96 0 -162 24q-24 10 -27 16t-5 21z" />
    <glyph glyph-name="afii10055" unicode="&#x406;" horiz-adv-x="242" 
d="M82 34v582q0 20 7 27t27 7h10q20 0 27 -7t7 -27v-582q0 -20 -7 -27t-27 -7h-10q-20 0 -27 7t-7 27z" />
    <glyph glyph-name="afii10056" unicode="&#x407;" horiz-adv-x="242" 
d="M82 34v582q0 20 7 27t27 7h10q20 0 27 -7t7 -27v-582q0 -20 -7 -27t-27 -7h-10q-20 0 -27 7t-7 27zM-5 765q0 19 13 32.5t32 13.5t32 -13t13 -33q0 -18 -13 -31t-32 -13t-32 13t-13 31zM157 765q0 19 13.5 32.5t32.5 13.5q18 0 31 -13.5t13 -32.5q0 -18 -13 -31t-31 -13
q-19 0 -32.5 13t-13.5 31z" />
    <glyph glyph-name="afii10057" unicode="&#x408;" horiz-adv-x="242" 
d="M161 616v-481q0 -123 -33 -193t-91 -118q-15 -12 -23.5 -10t-19.5 19l-5 8q-10 17 -9 25.5t15 19.5q88 72 88 245v485q0 20 7 27t27 7h10q20 0 27 -7t7 -27z" />
    <glyph glyph-name="afii10058" unicode="&#x409;" horiz-adv-x="1033" 
d="M517 108v422q0 25 -11 36t-36 11h-162q-25 0 -36 -11t-11 -36v-208q0 -122 -33 -193q-33 -70 -91 -118q-15 -12 -23.5 -10t-19.5 19l-5 8q-10 17 -9 25.5t15 19.5q88 72 88 245v224q0 56 25.5 82t82.5 26h196q57 0 82.5 -26t25.5 -82v-172h168q114 0 166 -44.5t52 -136.5
v-8q0 -92 -52 -136.5t-166 -44.5h-138q-57 0 -82.5 26t-25.5 82zM751 297h-156v-177q0 -25 11 -36t36 -11h109q84 0 117.5 25.5t33.5 86.5t-33.5 86.5t-117.5 25.5z" />
    <glyph glyph-name="afii10059" unicode="&#x40a;" horiz-adv-x="976" 
d="M460 108v198h-306v-272q0 -20 -7 -27t-27 -7h-10q-20 0 -27 7t-7 27v582q0 20 7 27t27 7h10q20 0 27 -7t7 -27v-237h306v237q0 20 7 27t27 7h10q20 0 27 -7t7 -27v-246h168q114 0 166 -44.5t52 -136.5v-8q0 -92 -52 -136.5t-166 -44.5h-138q-57 0 -82.5 26t-25.5 82z
M694 297h-156v-177q0 -25 11 -36t36 -11h109q84 0 117.5 25.5t33.5 86.5t-33.5 86.5t-117.5 25.5z" />
    <glyph glyph-name="afii10060" unicode="&#x40b;" horiz-adv-x="775" 
d="M316 272v-238q0 -20 -7 -27t-27 -7h-10q-20 0 -27 7t-7 27v543h-178q-19 0 -25 6t-6 25v11q0 19 6 25t25 6h434q19 0 25 -6t6 -25v-11q0 -19 -6 -25t-25 -6h-178v-231q50 19 127 19q132 0 194.5 -60.5t62.5 -188.5v-82q0 -20 -7 -27t-27 -7h-10q-20 0 -27 7t-7 27v82
q0 90 -42.5 133t-134.5 43q-66 0 -129 -20z" />
    <glyph glyph-name="afii10061" unicode="&#x40c;" horiz-adv-x="553" 
d="M357 805l-50 -83q-15 -24 -43 -24h-10q-16 0 -19 5t4 20l42 81q10 18 20 24t30 6h10q20 0 23.5 -6t-7.5 -23zM248 439l152 180q17 19 30 25t38 6h12q25 0 28 -6t-13 -25l-183 -218q-38 -47 -38 -62q0 -14 38 -61l203 -246q16 -20 13 -26t-28 -6h-12q-24 0 -37.5 6.5
t-29.5 25.5l-173 208q-49 58 -49 101t49 98zM76 34v582q0 20 7 27t27 7h10q20 0 27 -7t7 -27v-582q0 -20 -7 -27t-27 -7h-10q-20 0 -27 7t-7 27z" />
    <glyph glyph-name="afii10062" unicode="&#x40e;" horiz-adv-x="606" 
d="M164 801q0 13 6 17.5t21 4.5h9q16 0 21.5 -5.5t5.5 -21.5q0 -54 80 -54t80 54q0 16 5.5 21.5t21.5 5.5h9q15 0 21 -4.5t6 -17.5q0 -114 -143 -114t-143 114zM577 617l-314 -583q-10 -20 -21.5 -27t-34.5 -7h-11q-22 0 -26.5 7t6.5 26l124 230q-25 3 -32 5q-32 8 -49 26
q-15 15 -49 77l-133 246q-11 19 -6.5 26t26.5 7h11q23 0 34.5 -7t21.5 -27l115 -214q23 -45 34 -56q12 -12 34 -12t34 12q11 11 34 56l115 214q10 20 21.5 27t34.5 7h11q22 0 26.5 -7t-6.5 -26z" />
    <glyph glyph-name="afii10145" unicode="&#x40f;" horiz-adv-x="613" 
d="M154 616v-496q0 -25 11 -36t36 -11h212q25 0 36 11t11 36v496q0 20 7 27t27 7h10q20 0 27 -7t7 -27v-508q0 -56 -25.5 -82t-82.5 -26h-84v-166q0 -20 -7 -27t-27 -7h-10q-20 0 -27 7t-7 27v166h-84q-57 0 -82.5 26t-25.5 82v508q0 20 7 27t27 7h10q20 0 27 -7t7 -27z" />
    <glyph glyph-name="afii10017" unicode="&#x410;" horiz-adv-x="609" 
d="M450 512l134 -479q5 -19 0 -26t-25 -7h-10q-21 0 -29.5 6.5t-13.5 26.5l-47 168h-299l-46 -168q-5 -20 -13.5 -26.5t-29.5 -6.5h-11q-20 0 -25 7t0 26l134 479q24 86 51 116q28 31 90 31t89 -31q28 -30 51 -116zM248 521l-69 -249h261l-69 249q-11 41 -23.5 54.5
t-37.5 13.5q-26 0 -38.5 -13.5t-23.5 -54.5z" />
    <glyph glyph-name="afii10018" unicode="&#x411;" horiz-adv-x="592" 
d="M154 530v-160h168q114 0 166 -44.5t52 -136.5v-8q0 -92 -52 -136.5t-166 -44.5h-138q-57 0 -82.5 26t-25.5 82v434q0 56 25.5 82t82.5 26h283q19 0 25 -6t6 -25v-11q0 -19 -6 -25t-25 -6h-266q-25 0 -36 -11t-11 -36zM310 297h-156v-177q0 -25 11 -36t36 -11h109
q84 0 117.5 25.5t33.5 86.5t-33.5 86.5t-117.5 25.5z" />
    <glyph glyph-name="afii10019" unicode="&#x412;" horiz-adv-x="592" 
d="M184 650h122q110 0 162 -42t52 -128q0 -63 -24.5 -96.5t-83.5 -47.5v-2q69 -12 98.5 -48.5t29.5 -104.5q0 -92 -52 -136.5t-166 -44.5h-138q-57 0 -82.5 26t-25.5 82v434q0 56 25.5 82t82.5 26zM322 298h-168v-178q0 -25 11 -36t36 -11h109q84 0 117.5 25.5t33.5 86.5
q0 60 -31.5 86.5t-107.5 26.5zM306 577h-105q-25 0 -36 -11t-11 -36v-163h152q73 0 104 25t31 81q0 55 -31 79.5t-104 24.5z" />
    <glyph glyph-name="afii10020" unicode="&#x413;" horiz-adv-x="542" 
d="M154 530v-496q0 -20 -7 -27t-27 -7h-10q-20 0 -27 7t-7 27v508q0 56 25.5 82t82.5 26h283q19 0 25 -6t6 -25v-11q0 -19 -6 -25t-25 -6h-266q-25 0 -36 -11t-11 -36z" />
    <glyph glyph-name="afii10021" unicode="&#x414;" horiz-adv-x="670" 
d="M88 -47v-119q0 -20 -7 -27t-27 -7h-10q-20 0 -27 7t-7 27v131q0 53 23 80.5t62 27.5q88 72 88 245v224q0 56 25.5 82t82.5 26h196q57 0 82.5 -26t25.5 -82v-469q34 0 56 -28.5t22 -79.5v-131q0 -20 -7 -27t-27 -7h-10q-20 0 -27 7t-7 27v119q0 25 -11 36t-36 11h-413
q-25 0 -36 -11t-11 -36zM261 530v-208q0 -122 -33 -193q-16 -34 -32 -56h321v457q0 25 -11 36t-36 11h-162q-25 0 -36 -11t-11 -36z" />
    <glyph glyph-name="afii10022" unicode="&#x415;" horiz-adv-x="542" 
d="M427 302h-273v-182q0 -25 11 -36t36 -11h266q19 0 25 -6t6 -25v-11q0 -19 -6 -25t-25 -6h-283q-57 0 -82.5 26t-25.5 82v434q0 56 25.5 82t82.5 26h283q19 0 25 -6t6 -25v-11q0 -19 -6 -25t-25 -6h-266q-25 0 -36 -11t-11 -36v-155h273q19 0 25 -6t6 -25v-11
q0 -19 -6 -25t-25 -6z" />
    <glyph glyph-name="afii10024" unicode="&#x416;" horiz-adv-x="876" 
d="M153 619l152 -180q49 -55 49 -98t-49 -101l-173 -208q-16 -19 -29.5 -25.5t-37.5 -6.5h-12q-25 0 -28 6t13 26l203 246q38 47 38 61q0 15 -38 62l-183 218q-16 19 -13 25t28 6h12q25 0 38 -6t30 -25zM477 616v-582q0 -20 -7 -27t-27 -7h-10q-20 0 -27 7t-7 27v582
q0 20 7 27t27 7h10q20 0 27 -7t7 -27zM571 439l152 180q17 19 30 25t38 6h12q25 0 28 -6t-13 -25l-183 -218q-38 -47 -38 -62q0 -14 38 -61l203 -246q16 -20 13 -26t-28 -6h-12q-24 0 -37.5 6.5t-29.5 25.5l-173 208q-49 58 -49 101t49 98z" />
    <glyph glyph-name="afii10025" unicode="&#x417;" horiz-adv-x="530" 
d="M211 -10q-89 0 -142 25q-18 8 -24 16t-6 24v12q0 19 6.5 24t23.5 -2q69 -26 144 -26q88 0 137 31.5t49 90.5q0 60 -31.5 86.5t-107.5 26.5h-65q-19 0 -25 6t-6 25v7q0 19 6 25t25 6h49q73 0 104 25t31 81q0 53 -43.5 83t-119.5 30q-77 0 -140 -27q-31 -13 -31 23v13
q0 16 6 23.5t23 14.5q67 26 139 26q115 0 180 -48t65 -131q0 -63 -24.5 -96.5t-83.5 -47.5v-2q69 -12 98.5 -48.5t29.5 -104.5q0 -86 -74 -139q-73 -52 -193 -52z" />
    <glyph glyph-name="afii10026" unicode="&#x418;" horiz-adv-x="613" 
d="M154 616v-463l310 486q8 11 30 11h10q20 0 27 -7t7 -27v-582q0 -20 -7 -27t-27 -7h-10q-20 0 -27 7t-7 27v463l-310 -486q-8 -11 -30 -11h-10q-20 0 -27 7t-7 27v582q0 20 7 27t27 7h10q20 0 27 -7t7 -27z" />
    <glyph glyph-name="afii10027" unicode="&#x419;" horiz-adv-x="613" 
d="M154 616v-463l310 486q8 11 30 11h10q20 0 27 -7t7 -27v-582q0 -20 -7 -27t-27 -7h-10q-20 0 -27 7t-7 27v463l-310 -486q-8 -11 -30 -11h-10q-20 0 -27 7t-7 27v582q0 20 7 27t27 7h10q20 0 27 -7t7 -27zM164 801q0 13 6 17.5t21 4.5h9q16 0 21.5 -5.5t5.5 -21.5
q0 -54 80 -54t80 54q0 16 5.5 21.5t21.5 5.5h9q15 0 21 -4.5t6 -17.5q0 -114 -143 -114t-143 114z" />
    <glyph glyph-name="afii10028" unicode="&#x41a;" horiz-adv-x="553" 
d="M248 439l152 180q17 19 30 25t38 6h12q25 0 28 -6t-13 -25l-183 -218q-38 -47 -38 -62q0 -14 38 -61l203 -246q16 -20 13 -26t-28 -6h-12q-24 0 -37.5 6.5t-29.5 25.5l-173 208q-49 58 -49 101t49 98zM76 34v582q0 20 7 27t27 7h10q20 0 27 -7t7 -27v-582q0 -20 -7 -27
t-27 -7h-10q-20 0 -27 7t-7 27z" />
    <glyph glyph-name="afii10029" unicode="&#x41b;" horiz-adv-x="670" 
d="M561 0h-10q-20 0 -27 7t-7 27v496q0 25 -11 36t-36 11h-162q-25 0 -36 -11t-11 -36v-208q0 -122 -33 -193q-33 -70 -91 -118q-15 -12 -23.5 -10t-19.5 19l-5 8q-10 17 -9 25.5t15 19.5q88 72 88 245v224q0 56 25.5 82t82.5 26h196q57 0 82.5 -26t25.5 -82v-508
q0 -20 -7 -27t-27 -7z" />
    <glyph glyph-name="afii10030" unicode="&#x41c;" horiz-adv-x="796" 
d="M724 522l36 -488q1 -20 -5.5 -27t-26.5 -7h-11q-20 0 -27 6.5t-9 27.5l-35 495q-2 33 -12 45t-34 12q-19 0 -29 -12.5t-15 -44.5l-63 -436q-7 -51 -28 -72t-66 -21q-43 0 -65 21.5t-29 71.5l-63 436q-5 32 -15.5 44.5t-29.5 12.5q-22 0 -32.5 -12.5t-12.5 -44.5l-36 -495
q-2 -21 -9 -27.5t-27 -6.5h-10q-20 0 -26.5 7t-5.5 27l36 488q5 72 34 103t89 31q55 0 82.5 -30.5t37.5 -103.5l56 -419q3 -24 8 -31.5t18 -7.5q12 0 17.5 8t8.5 31l56 419q10 72 38 103t82 31q60 0 89 -31t34 -103z" />
    <glyph glyph-name="afii10031" unicode="&#x41d;" horiz-adv-x="613" 
d="M460 34v272h-306v-272q0 -20 -7 -27t-27 -7h-10q-20 0 -27 7t-7 27v582q0 20 7 27t27 7h10q20 0 27 -7t7 -27v-237h306v237q0 20 7 27t27 7h10q20 0 27 -7t7 -27v-582q0 -20 -7 -27t-27 -7h-10q-20 0 -27 7t-7 27z" />
    <glyph glyph-name="afii10032" unicode="&#x41e;" 
d="M488 251v146q0 101 -36 144q-36 45 -141 45t-141 -45q-36 -43 -36 -144v-146q0 -99 36 -144q36 -44 141 -44t141 44q36 45 36 144zM311 -10q-144 0 -200 65q-55 64 -55 196v146q0 131 56 196t199 65t199 -65t56 -196v-146q0 -131 -56 -196t-199 -65z" />
    <glyph glyph-name="afii10033" unicode="&#x41f;" horiz-adv-x="613" 
d="M460 34v496q0 25 -11 36t-36 11h-212q-25 0 -36 -11t-11 -36v-496q0 -20 -7 -27t-27 -7h-10q-20 0 -27 7t-7 27v508q0 56 25.5 82t82.5 26h246q57 0 82.5 -26t25.5 -82v-508q0 -20 -7 -27t-27 -7h-10q-20 0 -27 7t-7 27z" />
    <glyph glyph-name="afii10034" unicode="&#x420;" horiz-adv-x="583" 
d="M184 650h148q114 0 165.5 -50t51.5 -156q0 -105 -52 -155.5t-165 -50.5h-178v-204q0 -20 -7 -27t-27 -7h-10q-20 0 -27 7t-7 27v508q0 56 25.5 82t82.5 26zM332 577h-131q-25 0 -36 -11t-11 -36v-220h178q78 0 108.5 30t30.5 104q0 72 -31 102.5t-108 30.5z" />
    <glyph glyph-name="afii10035" unicode="&#x421;" horiz-adv-x="524" 
d="M135 399v-160q0 -90 42 -133t134 -43q75 0 144 26q17 7 23.5 2t6.5 -24v-12q0 -16 -6 -24t-24 -16q-53 -25 -142 -25q-132 0 -194.5 60.5t-62.5 188.5v160q0 260 255 260q72 0 139 -26q17 -7 23 -14.5t6 -23.5v-13q0 -36 -31 -23q-63 27 -140 27q-90 0 -131.5 -45
t-41.5 -142z" />
    <glyph glyph-name="afii10036" unicode="&#x422;" horiz-adv-x="554" 
d="M29 608v11q0 19 6 25t25 6h434q19 0 25 -6t6 -25v-11q0 -19 -6 -25t-25 -6h-178v-543q0 -20 -7 -27t-27 -7h-10q-20 0 -27 7t-7 27v543h-178q-19 0 -25 6t-6 25z" />
    <glyph glyph-name="afii10037" unicode="&#x423;" horiz-adv-x="606" 
d="M577 617l-314 -583q-10 -20 -21.5 -27t-34.5 -7h-11q-22 0 -26.5 7t6.5 26l124 230q-25 3 -32 5q-32 8 -49 26q-15 15 -49 77l-133 246q-11 19 -6.5 26t26.5 7h11q23 0 34.5 -7t21.5 -27l115 -214q23 -45 34 -56q12 -12 34 -12t34 12q11 11 34 56l115 214q10 20 21.5 27
t34.5 7h11q22 0 26.5 -7t-6.5 -26z" />
    <glyph glyph-name="afii10038" unicode="&#x424;" 
d="M272 34v57q-115 9 -161 64q-55 64 -55 166v6q0 101 56 166q47 56 160 63v60q0 20 7 27t27 7h10q20 0 27 -7t7 -27v-60q113 -7 160 -63q56 -65 56 -166v-6q0 -102 -55 -166q-46 -55 -161 -64v-57q0 -20 -7 -27t-27 -7h-10q-20 0 -27 7t-7 27zM488 321v6q0 71 -36 114
q-29 36 -102 43v-319q74 6 102 42q36 45 36 114zM170 207q28 -36 102 -42v319q-73 -7 -102 -43q-36 -43 -36 -114v-6q0 -69 36 -114z" />
    <glyph glyph-name="afii10039" unicode="&#x425;" horiz-adv-x="601" 
d="M506 650h10q23 0 27 -7t-6 -27l-95 -189q-36 -72 -64 -84q31 -14 64 -83l115 -226q10 -20 6 -27t-27 -7h-11q-23 0 -34 7t-21 27l-103 212q-18 39 -29.5 50.5t-33.5 11.5q-21 0 -32 -11q-10 -11 -30 -51l-103 -212q-10 -20 -21 -27t-34 -7h-11q-23 0 -27 7t6 27l114 226
q21 40 34.5 57.5t30.5 25.5q-28 12 -64 84l-95 189q-10 20 -6 27t27 7h10q23 0 34 -7t21 -27l84 -175q19 -39 30.5 -50.5t31.5 -11.5q21 0 32.5 11.5t30.5 50.5l84 175q10 20 21 27t34 7z" />
    <glyph glyph-name="afii10040" unicode="&#x426;" horiz-adv-x="613" 
d="M491 0h-307q-57 0 -82.5 26t-25.5 82v508q0 20 7 27t27 7h10q20 0 27 -7t7 -27v-496q0 -25 11 -36t36 -11h259v543q0 20 7 27t27 7h10q20 0 27 -7t7 -27v-543q34 0 56 -28.5t22 -79.5v-131q0 -20 -7 -27t-27 -7h-10q-20 0 -27 7t-7 27v119q0 25 -11 36t-36 11z" />
    <glyph glyph-name="afii10041" unicode="&#x427;" horiz-adv-x="613" 
d="M460 34v270q-50 -19 -127 -19q-132 0 -194.5 60.5t-62.5 188.5v82q0 20 7 27t27 7h10q20 0 27 -7t7 -27v-82q0 -90 42.5 -133t134.5 -43q66 0 129 20v238q0 20 7 27t27 7h10q20 0 27 -7t7 -27v-582q0 -20 -7 -27t-27 -7h-10q-20 0 -27 7t-7 27z" />
    <glyph glyph-name="afii10042" unicode="&#x428;" horiz-adv-x="929" 
d="M746 0h-562q-57 0 -82.5 26t-25.5 82v508q0 20 7 27t27 7h10q20 0 27 -7t7 -27v-496q0 -25 11 -36t36 -11h225v543q0 20 7 27t27 7h10q20 0 27 -7t7 -27v-543h225q25 0 36 11t11 36v496q0 20 7 27t27 7h10q20 0 27 -7t7 -27v-508q0 -56 -25.5 -82t-82.5 -26z" />
    <glyph glyph-name="afii10043" unicode="&#x429;" horiz-adv-x="929" 
d="M854 616v-543q34 0 56 -28.5t22 -79.5v-131q0 -20 -7 -27t-27 -7h-10q-20 0 -27 7t-7 27v119q0 25 -11 36t-36 11h-623q-57 0 -82.5 26t-25.5 82v508q0 20 7 27t27 7h10q20 0 27 -7t7 -27v-496q0 -25 11 -36t36 -11h225v543q0 20 7 27t27 7h10q20 0 27 -7t7 -27v-543h272
v543q0 20 7 27t27 7h10q20 0 27 -7t7 -27z" />
    <glyph glyph-name="afii10044" unicode="&#x42a;" horiz-adv-x="749" 
d="M233 108v422q0 25 -11 36t-36 11h-126q-19 0 -25 6t-6 25v11q0 19 6 25t25 6h143q57 0 82.5 -26t25.5 -82v-172h168q114 0 166 -44.5t52 -136.5v-8q0 -92 -52 -136.5t-166 -44.5h-138q-57 0 -82.5 26t-25.5 82zM467 297h-156v-177q0 -25 11 -36t36 -11h109
q84 0 117.5 25.5t33.5 86.5t-33.5 86.5t-117.5 25.5z" />
    <glyph glyph-name="afii10045" unicode="&#x42b;" horiz-adv-x="813" 
d="M154 616v-246h168q114 0 166 -44.5t52 -136.5v-8q0 -92 -52 -136.5t-166 -44.5h-138q-57 0 -82.5 26t-25.5 82v508q0 20 7 27t27 7h10q20 0 27 -7t7 -27zM310 297h-156v-177q0 -25 11 -36t36 -11h109q84 0 117.5 25.5t33.5 86.5t-33.5 86.5t-117.5 25.5zM660 34v582
q0 20 7 27t27 7h10q20 0 27 -7t7 -27v-582q0 -20 -7 -27t-27 -7h-10q-20 0 -27 7t-7 27z" />
    <glyph glyph-name="afii10046" unicode="&#x42c;" horiz-adv-x="592" 
d="M154 616v-246h168q114 0 166 -44.5t52 -136.5v-8q0 -92 -52 -136.5t-166 -44.5h-138q-57 0 -82.5 26t-25.5 82v508q0 20 7 27t27 7h10q20 0 27 -7t7 -27zM310 297h-156v-177q0 -25 11 -36t36 -11h109q84 0 117.5 25.5t33.5 86.5t-33.5 86.5t-117.5 25.5z" />
    <glyph glyph-name="afii10047" unicode="&#x42d;" horiz-adv-x="524" 
d="M389 239v63h-194q-19 0 -25 6t-6 25v11q0 19 6 25t25 6h194v24q0 97 -41.5 142t-131.5 45q-77 0 -140 -27q-31 -13 -31 23v13q0 16 6 23.5t23 14.5q67 26 139 26q255 0 255 -260v-160q0 -128 -62.5 -188.5t-194.5 -60.5q-89 0 -142 25q-18 8 -24 16t-6 24v12q0 19 6.5 24
t23.5 -2q69 -26 144 -26q92 0 134 43t42 133z" />
    <glyph glyph-name="afii10048" unicode="&#x42e;" horiz-adv-x="919" 
d="M608 -10q-144 0 -200 65q-55 64 -55 196v55h-199v-272q0 -20 -7 -27t-27 -7h-10q-20 0 -27 7t-7 27v582q0 20 7 27t27 7h10q20 0 27 -7t7 -27v-237h199v18q0 131 56 196t199 65t199 -65t56 -196v-146q0 -131 -56 -196t-199 -65zM785 251v146q0 101 -36 144
q-36 45 -141 45t-141 -45q-36 -43 -36 -144v-146q0 -99 36 -144q36 -44 141 -44t141 44q36 45 36 144z" />
    <glyph glyph-name="afii10049" unicode="&#x42f;" horiz-adv-x="603" 
d="M54 456q0 100 49.5 147t161.5 47h154q57 0 82.5 -26t25.5 -82v-508q0 -20 -7 -27t-27 -7h-10q-20 0 -27 7t-7 27v229h-165l-143 -230q-13 -20 -25 -26.5t-35 -6.5h-11q-23 0 -27 7t9 26l148 236q-77 12 -111.5 57.5t-34.5 129.5zM402 577h-137q-75 0 -104 -27t-29 -94
q0 -65 29.5 -92.5t103.5 -27.5h184v194q0 25 -11 36t-36 11z" />
    <glyph glyph-name="afii10065" unicode="&#x430;" horiz-adv-x="483" 
d="M434 346v-198q0 -83 -50 -120.5t-159 -37.5q-91 0 -139.5 37.5t-48.5 112.5q0 77 49.5 111.5t154.5 34.5h118v60q0 48 -32 69.5t-99 21.5q-61 0 -110 -11q-18 -4 -25 1.5t-7 23.5v8q0 17 6 23.5t24 10.5q44 10 108 10q210 0 210 -157zM359 151v76h-117q-69 0 -99.5 -20
t-30.5 -67q0 -85 112 -85q73 0 104 21.5t31 74.5z" />
    <glyph glyph-name="afii10066" unicode="&#x431;" horiz-adv-x="536" 
d="M344 629h-70q-81 0 -115.5 -32t-34.5 -105v-26q53 37 145 37q113 0 165.5 -52t52.5 -158v-93q0 -210 -218 -210q-114 0 -167 52t-53 158v293q0 101 56 154t167 53h70q50 0 90 14q18 6 24 0.5t6 -24.5v-10q0 -17 -6 -24.5t-24 -13.5q-36 -13 -88 -13zM412 200v93
q0 75 -32 107t-111 32q-78 0 -111 -31t-34 -101v-100q0 -75 32.5 -107t112.5 -32q79 0 111 32t32 107z" />
    <glyph glyph-name="afii10067" unicode="&#x432;" horiz-adv-x="457" 
d="M334 264q84 -40 84 -116q0 -65 -54 -106.5t-150 -41.5h-123q-19 0 -25.5 6t-6.5 26v429q0 20 6.5 26t25.5 6h125q92 0 137 -39q46 -37 46 -94q0 -55 -65 -96zM214 226h-80v-155h80q62 0 97.5 21.5t35.5 55.5t-35.5 56t-97.5 22zM214 422h-80v-125h80q56 0 85 17t29 46
t-29 45.5t-85 16.5z" />
    <glyph glyph-name="afii10068" unicode="&#x433;" horiz-adv-x="437" 
d="M90 493h280q19 0 25 -6t6 -25v-9q0 -19 -6 -25t-25 -6h-236v-390q0 -20 -6 -26t-26 -6h-11q-19 0 -25.5 6t-6.5 26v430q0 19 6 25t25 6z" />
    <glyph glyph-name="afii10069" unicode="&#x434;" horiz-adv-x="561" 
d="M482 71h45q19 0 25 -6t6 -25v-208q0 -20 -6 -26t-26 -6h-12q-20 0 -26 6t-6 26v168h-362q-8 -2 -9 -2v-166q0 -20 -6 -26t-26 -6h-11q-19 0 -25.5 6t-6.5 26v208q0 19 6 25t25 6h26q27 15 27 70v321q0 19 6 25t25 6h300q19 0 25 -6t6 -25v-391zM195 422v-294
q0 -30 -8 -57h219v351h-211z" />
    <glyph glyph-name="afii10070" unicode="&#x435;" horiz-adv-x="514" 
d="M465 303q0 -35 -3 -54q-2 -19 -9 -25t-27 -6h-302v-30q0 -68 36.5 -97.5t119.5 -29.5q69 0 136 19q18 5 25 -1t7 -25v-9q0 -16 -5.5 -23t-25.5 -13q-61 -19 -137 -19q-120 0 -175.5 49.5t-55.5 159.5v93q0 211 211 211q100 0 152.5 -51t52.5 -149zM124 314v-33h270v33
q0 122 -135 122t-135 -122z" />
    <glyph glyph-name="afii10072" unicode="&#x436;" horiz-adv-x="753" 
d="M339 32v429q0 20 6.5 26t25.5 6h11q20 0 26 -6t6 -26v-429q0 -20 -6 -26t-26 -6h-11q-19 0 -25.5 6t-6.5 26zM488 344l114 119q17 18 31.5 24t39.5 6h12q25 0 27.5 -6t-14.5 -24l-156 -164q-21 -23 -21 -38q0 -19 20 -39l177 -191q18 -19 15 -25t-28 -6h-12q-26 0 -40 6
t-31 25l-134 145q-41 44 -41 87q0 37 41 81zM151 463l114 -119q41 -44 41 -81q0 -43 -41 -87l-134 -145q-17 -19 -31 -25t-40 -6h-12q-25 0 -28 6t15 25l177 191q20 20 20 39q0 15 -21 38l-156 164q-17 18 -14.5 24t27.5 6h12q25 0 39.5 -6t31.5 -24z" />
    <glyph glyph-name="afii10073" unicode="&#x437;" horiz-adv-x="397" 
d="M274 264q84 -40 84 -121q0 -62 -58 -108q-57 -45 -156 -45q-55 0 -94 13q-19 5 -25.5 12.5t-6.5 23.5v10q0 19 6.5 25t23.5 0q36 -13 96 -13q62 0 102.5 24t40.5 58t-40.5 58.5t-102.5 24.5q-19 0 -25 6t-6 25v9q0 19 6 25t25 6q56 0 90 19.5t34 48.5q0 28 -34 47.5
t-90 19.5q-46 0 -86 -14q-18 -6 -24 -0.5t-6 24.5v10q0 17 6 24.5t24 13.5q36 13 88 13q94 0 143 -42q50 -41 50 -96q0 -29 -18.5 -56.5t-46.5 -44.5z" />
    <glyph glyph-name="afii10074" unicode="&#x438;" horiz-adv-x="535" 
d="M134 461v-331l269 354q7 9 29 9h12q20 0 26 -6t6 -26v-429q0 -20 -6 -26t-26 -6h-12q-20 0 -26 6t-6 26v329l-270 -352q-6 -9 -28 -9h-11q-19 0 -25.5 6t-6.5 26v429q0 20 6.5 26t25.5 6h11q20 0 26 -6t6 -26z" />
    <glyph glyph-name="afii10075" unicode="&#x439;" horiz-adv-x="535" 
d="M134 461v-331l269 354q7 9 29 9h12q20 0 26 -6t6 -26v-429q0 -20 -6 -26t-26 -6h-12q-20 0 -26 6t-6 26v329l-270 -352q-6 -9 -28 -9h-11q-19 0 -25.5 6t-6.5 26v429q0 20 6.5 26t25.5 6h11q20 0 26 -6t6 -26zM141 630v-4q0 14 5 19t19 5h8q14 0 19 -5t5 -19v4
q0 -28 16.5 -40t54.5 -12t54.5 12.5t16.5 40.5v-5q0 14 5 19t19 5h8q14 0 19 -5t5 -19v4q0 -101 -127 -101t-127 101z" />
    <glyph glyph-name="afii10076" unicode="&#x43a;" horiz-adv-x="483" 
d="M69 32v429q0 20 6.5 26t25.5 6h11q20 0 26 -6t6 -26v-429q0 -20 -6 -26t-26 -6h-11q-19 0 -25.5 6t-6.5 26zM218 344l114 119q17 18 31.5 24t39.5 6h12q25 0 27.5 -6t-14.5 -24l-156 -164q-21 -23 -21 -38q0 -19 20 -39l177 -191q18 -19 15 -25t-28 -6h-12q-26 0 -40 6
t-31 25l-134 145q-41 44 -41 87q0 37 41 81z" />
    <glyph glyph-name="afii10077" unicode="&#x43b;" horiz-adv-x="521" 
d="M175 422v-159v-135q0 -66 -30.5 -100t-85.5 -34q-15 0 -18 1q-17 3 -22.5 10.5t-5.5 26.5v7q0 17 5.5 21.5t25.5 4.5h5q51 0 51 76v116v205q0 19 6 25t25 6h300q19 0 25 -6t6 -25v-430q0 -20 -6 -26t-26 -6h-12q-20 0 -26 6t-6 26v390h-211z" />
    <glyph glyph-name="afii10078" unicode="&#x43c;" horiz-adv-x="577" 
d="M91 493h12q25 0 29 -9l156 -373l157 373q5 9 29 9h12q20 0 26 -6t6 -26v-429q0 -20 -6 -26t-26 -6h-12q-20 0 -26 6t-6 26v262l-117 -277q-6 -17 -26 -17h-22q-20 0 -26 17l-116 277v-262q0 -20 -6 -26t-26 -6h-12q-20 0 -26 6t-6 26v429q0 20 6 26t26 6z" />
    <glyph glyph-name="afii10079" unicode="&#x43d;" horiz-adv-x="535" 
d="M102 0h-11q-19 0 -25.5 6t-6.5 26v429q0 20 6.5 26t25.5 6h11q20 0 26 -6t6 -26v-164h266v164q0 20 6 26t26 6h12q20 0 26 -6t6 -26v-429q0 -20 -6 -26t-26 -6h-12q-20 0 -26 6t-6 26v194h-266v-194q0 -20 -6 -26t-26 -6z" />
    <glyph glyph-name="afii10080" unicode="&#x43e;" horiz-adv-x="536" 
d="M412 200v93q0 75 -32 107t-111 32q-80 0 -112.5 -32t-32.5 -107v-93q0 -75 32.5 -107t112.5 -32q79 0 111 32t32 107zM269 -10q-114 0 -167 52t-53 158v93q0 210 220 210q113 0 165.5 -52t52.5 -158v-93q0 -210 -218 -210z" />
    <glyph glyph-name="afii10081" unicode="&#x43f;" horiz-adv-x="535" 
d="M90 493h355q19 0 25 -6t6 -25v-430q0 -20 -6 -26t-26 -6h-12q-20 0 -26 6t-6 26v390h-266v-390q0 -20 -6 -26t-26 -6h-11q-19 0 -25.5 6t-6.5 26v430q0 19 6 25t25 6z" />
    <glyph glyph-name="afii10082" unicode="&#x440;" horiz-adv-x="552" 
d="M65 -168v462q0 209 219 209q111 0 165 -52t54 -157v-93q0 -211 -207 -211q-117 0 -156 74v-232q0 -20 -6 -26t-26 -6h-11q-19 0 -25.5 6t-6.5 26zM427 200v93q0 76 -31.5 107.5t-111.5 31.5q-79 0 -111.5 -32t-32.5 -107v-93q0 -75 32.5 -107t111.5 -32t111 32t32 107z
" />
    <glyph glyph-name="afii10083" unicode="&#x441;" horiz-adv-x="418" 
d="M49 197v99q0 101 56 154t167 53q52 0 88 -13q18 -6 24 -13.5t6 -24.5v-10q0 -19 -6 -24.5t-24 0.5q-40 14 -86 14q-81 0 -115.5 -32t-34.5 -105v-97q0 -75 36 -106t120 -31q54 0 90 13q17 6 23.5 0t6.5 -25v-10q0 -16 -6.5 -23.5t-25.5 -12.5q-39 -13 -93 -13
q-115 0 -170.5 50.5t-55.5 156.5z" />
    <glyph glyph-name="afii10084" unicode="&#x442;" horiz-adv-x="467" 
d="M65 493h337q19 0 25 -6t6 -25v-9q0 -19 -6 -25t-25 -6h-131v-390v-8q-1 -15 -7.5 -19.5t-24.5 -4.5h-11q-19 0 -25 4.5t-7 19.5v8v390h-131q-19 0 -25 6t-6 25v9q0 19 6 25t25 6z" />
    <glyph glyph-name="afii10085" unicode="&#x443;" horiz-adv-x="518" 
d="M117 460l94 -345q9 -33 21.5 -44t39.5 -11q23 0 35.5 12t20.5 43l83 345q4 19 13 26t29 7h9q21 0 26 -6.5t0 -26.5l-115 -460q-51 -202 -201 -212q-17 -2 -24.5 4t-11.5 24l-2 9q-4 17 1.5 22.5t24.5 7.5q53 6 84.5 41t53.5 110q-20 -11 -50 -11q-47 0 -70.5 26t-41.5 91
l-95 348q-5 20 0 26.5t25 6.5h8q20 0 29 -6.5t14 -26.5z" />
    <glyph glyph-name="afii10086" unicode="&#x444;" horiz-adv-x="899" 
d="M256 -10q-207 0 -207 211v91q0 211 207 211q117 0 156 -74v239q0 20 6 26t26 6h11q20 0 26 -6t6 -26v-239q39 74 156 74q207 0 207 -211v-91q0 -211 -207 -211q-117 0 -156 74v-232q0 -20 -6 -26t-26 -6h-11q-20 0 -26 6t-6 26v232q-39 -74 -156 -74zM774 200v93
q0 75 -32 107t-111 32q-78 0 -111 -31t-33 -101v-107q0 -70 33 -101t111 -31q79 0 111 32t32 107zM268 61q77 0 110.5 31t33.5 101v107q0 70 -33.5 101t-110.5 31q-79 0 -111 -32t-32 -107v-93q0 -75 32 -107t111 -32z" />
    <glyph glyph-name="afii10087" unicode="&#x445;" horiz-adv-x="530" 
d="M148 462l78 -132q12 -21 20.5 -28t21.5 -7t21.5 7t20.5 28l78 132q10 18 21 24.5t33 6.5h12q22 0 25 -6t-8 -25l-80 -132q-21 -36 -32 -49t-26 -20q14 -6 25 -19t33 -49l100 -162q11 -19 8 -25t-25 -6h-12q-22 0 -33 6t-22 25l-96 160q-15 24 -23 31t-20 7t-20 -7
t-23 -31l-96 -160q-11 -19 -22 -25t-33 -6h-12q-22 0 -25 6t8 25l101 162l21 34q16 23 35 34q-14 6 -24.5 18.5t-32.5 50.5l-80 132q-11 19 -8 25t25 6h12q22 0 33 -6.5t21 -24.5z" />
    <glyph glyph-name="afii10088" unicode="&#x446;" horiz-adv-x="555" 
d="M476 0h-386q-19 0 -25 6t-6 25v430q0 20 6.5 26t25.5 6h11q20 0 26 -6t6 -26v-390h266v390q0 20 6 26t26 6h12q20 0 26 -6t6 -26v-390h45q19 0 25 -6t6 -25v-208q0 -20 -6 -26t-26 -6h-12q-20 0 -26 6t-6 26v168z" />
    <glyph glyph-name="afii10089" unicode="&#x447;" horiz-adv-x="535" 
d="M134 461v-63q0 -75 36 -106t120 -31q72 0 110 20v180q0 20 6 26t26 6h12q20 0 26 -6t6 -26v-429q0 -20 -6 -26t-26 -6h-12q-20 0 -26 6t-6 26v180q-35 -22 -115 -22q-115 0 -170.5 50.5t-55.5 156.5v64q0 20 6.5 26t25.5 6h11q20 0 26 -6t6 -26z" />
    <glyph glyph-name="afii10090" unicode="&#x448;" horiz-adv-x="754" 
d="M695 461v-430q0 -19 -6 -25t-25 -6h-574q-19 0 -25 6t-6 25v430q0 20 6.5 26t25.5 6h11q20 0 26 -6t6 -26v-390h205v390q0 20 6.5 26t25.5 6h11q20 0 26 -6t6 -26v-390h205v390q0 20 6 26t26 6h12q20 0 26 -6t6 -26z" />
    <glyph glyph-name="afii10091" unicode="&#x449;" horiz-adv-x="774" 
d="M695 0h-605q-19 0 -25 6t-6 25v430q0 20 6.5 26t25.5 6h11q20 0 26 -6t6 -26v-390h205v390q0 20 6.5 26t25.5 6h11q20 0 26 -6t6 -26v-390h205v390q0 20 6 26t26 6h12q20 0 26 -6t6 -26v-390h45q19 0 25 -6t6 -25v-208q0 -20 -6 -26t-26 -6h-12q-20 0 -26 6t-6 26v168z
" />
    <glyph glyph-name="afii10092" unicode="&#x44a;" horiz-adv-x="591" 
d="M348 226h-80v-155h80q62 0 97.5 21.5t35.5 55.5t-35.5 56t-97.5 22zM268 462v-165h80q96 0 150 -41.5t54 -107.5q0 -65 -54 -106.5t-150 -41.5h-123q-19 0 -25.5 6t-6.5 26v390h-126q-19 0 -25 6t-6 25v9q0 19 6 25t25 6h170q19 0 25 -6t6 -25z" />
    <glyph glyph-name="afii10093" unicode="&#x44b;" horiz-adv-x="661" 
d="M214 226h-80v-155h80q62 0 97.5 21.5t35.5 55.5t-35.5 56t-97.5 22zM134 461v-164h80q96 0 150 -41.5t54 -107.5q0 -65 -54 -106.5t-150 -41.5h-123q-19 0 -25.5 6t-6.5 26v429q0 20 6.5 26t25.5 6h11q20 0 26 -6t6 -26zM527 32v429q0 19 6 25.5t26 6.5h11
q19 0 25.5 -6.5t6.5 -25.5v-429q0 -20 -6.5 -26t-25.5 -6h-11q-20 0 -26 6t-6 26z" />
    <glyph glyph-name="afii10094" unicode="&#x44c;" horiz-adv-x="457" 
d="M214 226h-80v-155h80q62 0 97.5 21.5t35.5 55.5t-35.5 56t-97.5 22zM134 461v-164h80q96 0 150 -41.5t54 -107.5q0 -65 -54 -106.5t-150 -41.5h-123q-19 0 -25.5 6t-6.5 26v429q0 20 6.5 26t25.5 6h11q20 0 26 -6t6 -26z" />
    <glyph glyph-name="afii10095" unicode="&#x44d;" horiz-adv-x="418" 
d="M369 296v-99q0 -106 -55.5 -156.5t-170.5 -50.5q-54 0 -93 13q-19 5 -25.5 12.5t-6.5 23.5v10q0 19 6.5 25t23.5 0q36 -13 90 -13q84 0 120 31t36 106v28h-154q-19 0 -25 6t-6 25v9q0 19 6 25t25 6h154q-1 71 -35.5 103t-114.5 32q-46 0 -86 -14q-18 -6 -24 -0.5t-6 24.5
v10q0 17 6 24.5t24 13.5q36 13 88 13q111 0 167 -53t56 -154z" />
    <glyph glyph-name="afii10096" unicode="&#x44e;" horiz-adv-x="741" 
d="M474 -10q-114 0 -167 52t-53 158v26h-120v-194q0 -20 -6 -26t-26 -6h-11q-19 0 -25.5 6t-6.5 26v429q0 19 6.5 25.5t25.5 6.5h11q20 0 26 -6.5t6 -25.5v-164h120q2 206 220 206q113 0 165.5 -52t52.5 -158v-93q0 -210 -218 -210zM617 200v93q0 75 -32 107t-111 32
q-80 0 -112.5 -32t-32.5 -107v-93q0 -75 32.5 -107t112.5 -32q79 0 111 32t32 107z" />
    <glyph glyph-name="afii10097" unicode="&#x44f;" horiz-adv-x="457" 
d="M58 360q0 59 47 96t136 37h125q19 0 25.5 -6t6.5 -26v-429q0 -20 -6 -26t-26 -6h-11q-20 0 -26 6t-6 26v194h-12l-180 -195q-17 -19 -31 -25t-40 -6h-12q-25 0 -28 6t15 25l181 196q-77 6 -117.5 42.5t-40.5 90.5zM323 297v125h-80q-56 0 -85 -16.5t-29 -45.5t29 -46
t85 -17h80z" />
    <glyph glyph-name="afii10071" unicode="&#x451;" horiz-adv-x="514" 
d="M134 617q0 19 13 32.5t32 13.5t32 -13t13 -33q0 -18 -13 -31t-32 -13t-32 13t-13 31zM296 617q0 19 13.5 32.5t32.5 13.5q18 0 31 -13.5t13 -32.5q0 -18 -13 -31t-31 -13q-19 0 -32.5 13t-13.5 31zM465 303q0 -35 -3 -54q-2 -19 -9 -25t-27 -6h-302v-30q0 -68 36.5 -97.5
t119.5 -29.5q69 0 136 19q18 5 25 -1t7 -25v-9q0 -16 -5.5 -23t-25.5 -13q-61 -19 -137 -19q-120 0 -175.5 49.5t-55.5 159.5v93q0 211 211 211q100 0 152.5 -51t52.5 -149zM124 314v-33h270v33q0 122 -135 122t-135 -122z" />
    <glyph glyph-name="afii10099" unicode="&#x452;" horiz-adv-x="587" 
d="M453 95q0 75 -36 106t-120 31q-72 0 -110 -20v-180q0 -20 -6 -26t-26 -6h-11q-20 0 -26 6t-6 26v520h-53q-19 0 -25 6t-6 25v9q0 19 6 25t25 6h53v45q0 20 6 26t26 6h11q20 0 26 -6t6 -26v-45h53q19 0 25 -6t6 -25v-9q0 -19 -6 -25t-25 -6h-53v-271q35 22 115 22
q115 0 170.5 -50.5t55.5 -156.5q0 -118 -32 -185q-32 -66 -86 -108q-13 -10 -20 -8t-18 18l-6 9q-10 16 -9 24t14 19q24 21 39 42q43 59 43 188z" />
    <glyph glyph-name="afii10100" unicode="&#x453;" horiz-adv-x="437" 
d="M307 656l-50 -83q-15 -24 -43 -24h-10q-16 0 -19 5t4 20l42 81q10 18 20 24t30 6h10q20 0 23.5 -6t-7.5 -23zM90 493h280q19 0 25 -6t6 -25v-9q0 -19 -6 -25t-25 -6h-236v-390q0 -20 -6 -26t-26 -6h-11q-19 0 -25.5 6t-6.5 26v430q0 19 6 25t25 6z" />
    <glyph glyph-name="afii10101" unicode="&#x454;" horiz-adv-x="418" 
d="M49 197v99q0 101 56 154t167 53q52 0 88 -13q18 -6 24 -13.5t6 -24.5v-10q0 -19 -6 -24.5t-24 0.5q-40 14 -86 14q-80 0 -114.5 -32t-35.5 -103h154q19 0 25 -6t6 -25v-9q0 -19 -6 -25t-25 -6h-154v-28q0 -75 36 -106t120 -31q54 0 90 13q17 6 23.5 0t6.5 -25v-10
q0 -16 -6.5 -23.5t-25.5 -12.5q-39 -13 -93 -13q-115 0 -170.5 50.5t-55.5 156.5z" />
    <glyph glyph-name="afii10102" unicode="&#x455;" horiz-adv-x="458" 
d="M47 46v8q0 19 7 24.5t25 1.5q74 -20 147 -20q60 0 84.5 12.5t24.5 44.5q0 24 -14 39t-51 33l-122 58q-51 25 -72 53t-21 77q0 65 43 95.5t134 30.5q72 0 125 -19q18 -6 24 -13t6 -24v-9q0 -19 -7.5 -24t-24.5 0q-56 19 -125 19q-55 0 -78 -13t-23 -43q0 -42 53 -66
l127 -58q55 -25 77.5 -54.5t22.5 -79.5q0 -67 -46 -98t-143 -31q-74 0 -141 19q-19 5 -25.5 13t-6.5 24z" />
    <glyph glyph-name="afii10103" unicode="&#x456;" horiz-adv-x="218" 
d="M72 32v429q0 19 6 25.5t26 6.5h11q19 0 25.5 -6.5t6.5 -25.5v-429q0 -20 -6.5 -26t-25.5 -6h-11q-20 0 -26 6t-6 26zM110 696q20 0 34 -14.5t14 -34.5t-14 -34t-34 -14q-21 0 -35.5 14t-14.5 34t14.5 34.5t35.5 14.5z" />
    <glyph glyph-name="afii10104" unicode="&#x457;" horiz-adv-x="217" 
d="M71 32v429q0 19 6.5 25.5t25.5 6.5h11q20 0 26 -6.5t6 -25.5v-429q0 -20 -6 -26t-26 -6h-11q-19 0 -25.5 6t-6.5 26zM-17 617q0 19 13 32.5t32 13.5t32 -13t13 -33q0 -18 -13 -31t-32 -13t-32 13t-13 31zM145 617q0 19 13.5 32.5t32.5 13.5q18 0 31 -13.5t13 -32.5
q0 -18 -13 -31t-31 -13q-19 0 -32.5 13t-13.5 31z" />
    <glyph glyph-name="afii10105" unicode="&#x458;" horiz-adv-x="207" 
d="M105 696q21 0 35 -14.5t14 -34.5t-14 -34t-35 -14q-20 0 -34.5 14t-14.5 34t14.5 34.5t34.5 14.5zM142 461v-358q0 -125 -32 -192q-32 -66 -86 -108q-13 -10 -20 -8t-18 18l-6 9q-10 16 -9 24t14 19q24 21 39 42q43 60 43 191v363q0 19 6 25.5t26 6.5h11q19 0 25.5 -6.5
t6.5 -25.5z" />
    <glyph glyph-name="afii10106" unicode="&#x459;" horiz-adv-x="785" 
d="M462 462v-165h80q96 0 150 -41.5t54 -107.5q0 -65 -54 -106.5t-150 -41.5h-124q-19 0 -25.5 6t-6.5 26v390h-211v-294q0 -66 -30.5 -100t-85.5 -34q-15 0 -18 1q-17 3 -22.5 10.5t-5.5 26.5v7q0 17 5.5 21.5t25.5 4.5h5q51 0 51 76v321q0 19 6 25t25 6h300q19 0 25 -6
t6 -25zM542 226h-80v-155h80q62 0 97.5 21.5t35.5 55.5t-35.5 56t-97.5 22z" />
    <glyph glyph-name="afii10107" unicode="&#x45a;" horiz-adv-x="799" 
d="M556 0h-124q-20 0 -26 6t-6 26v194h-266v-194q0 -20 -6 -26t-26 -6h-11q-19 0 -25.5 6t-6.5 26v429q0 20 6.5 26t25.5 6h11q20 0 26 -6t6 -26v-164h266v164q0 20 6 26t26 6h12q20 0 26 -6t6 -26v-164h80q96 0 150 -41.5t54 -107.5q0 -65 -54 -106.5t-150 -41.5zM556 226
h-80v-155h80q62 0 97.5 21.5t35.5 55.5t-35.5 56t-97.5 22z" />
    <glyph glyph-name="afii10108" unicode="&#x45b;" horiz-adv-x="587" 
d="M240 552h-53v-271q35 22 115 22q115 0 170.5 -50.5t55.5 -156.5v-64q0 -20 -6.5 -26t-25.5 -6h-11q-20 0 -26 6t-6 26v63q0 75 -36 106t-120 31q-72 0 -110 -20v-180q0 -20 -6 -26t-26 -6h-11q-20 0 -26 6t-6 26v520h-53q-19 0 -25 6t-6 25v9q0 19 6 25t25 6h53v45
q0 20 6 26t26 6h11q20 0 26 -6t6 -26v-45h53q19 0 25 -6t6 -25v-9q0 -19 -6 -25t-25 -6z" />
    <glyph glyph-name="afii10109" unicode="&#x45c;" horiz-adv-x="483" 
d="M327 656l-50 -83q-15 -24 -43 -24h-10q-16 0 -19 5t4 20l42 81q10 18 20 24t30 6h10q20 0 23.5 -6t-7.5 -23zM69 32v429q0 20 6.5 26t25.5 6h11q20 0 26 -6t6 -26v-429q0 -20 -6 -26t-26 -6h-11q-19 0 -25.5 6t-6.5 26zM218 344l114 119q17 18 31.5 24t39.5 6h12
q25 0 27.5 -6t-14.5 -24l-156 -164q-21 -23 -21 -38q0 -19 20 -39l177 -191q18 -19 15 -25t-28 -6h-12q-26 0 -40 6t-31 25l-134 145q-41 44 -41 87q0 37 41 81z" />
    <glyph glyph-name="afii10110" unicode="&#x45e;" horiz-adv-x="518" 
d="M141 630v-4q0 14 5 19t19 5h8q14 0 19 -5t5 -19v4q0 -28 16.5 -40t54.5 -12t54.5 12.5t16.5 40.5v-5q0 14 5 19t19 5h8q14 0 19 -5t5 -19v4q0 -101 -127 -101t-127 101zM117 460l94 -345q9 -33 21.5 -44t39.5 -11q23 0 35.5 12t20.5 43l83 345q4 19 13 26t29 7h9
q21 0 26 -6.5t0 -26.5l-115 -460q-51 -202 -201 -212q-17 -2 -24.5 4t-11.5 24l-2 9q-4 17 1.5 22.5t24.5 7.5q53 6 84.5 41t53.5 110q-20 -11 -50 -11q-47 0 -70.5 26t-41.5 91l-95 348q-5 20 0 26.5t25 6.5h8q20 0 29 -6.5t14 -26.5z" />
    <glyph glyph-name="afii10193" unicode="&#x45f;" horiz-adv-x="535" 
d="M274 -200h-12q-20 0 -26 6t-6 26v168h-140q-19 0 -25 6t-6 25v430q0 20 6.5 26t25.5 6h11q20 0 26 -6t6 -26v-390h267v390q0 20 6 26t26 6h11q19 0 25.5 -6t6.5 -26v-430q0 -19 -6 -25t-25 -6h-139v-168q0 -20 -6 -26t-26 -6z" />
    <glyph glyph-name="afii10147" unicode="&#x472;" horiz-adv-x="586" 
d="M56 239v200q0 106 60.5 163t176.5 57t176.5 -57t60.5 -163v-200q0 -249 -237 -249t-237 249zM451 239v63h-316v-63q0 -176 158 -176t158 176zM135 439v-63h316v63q0 68 -40.5 107.5t-117.5 39.5t-117.5 -39.5t-40.5 -107.5z" />
    <glyph glyph-name="afii10195" unicode="&#x473;" horiz-adv-x="520" 
d="M471 289v-85q0 -214 -211 -214t-211 214v85q0 214 211 214t211 -214zM396 182v33h-272v-33q0 -125 136 -125t136 125zM124 311v-33h272v33q0 125 -136 125t-136 -125z" />
    <glyph glyph-name="afii10050" unicode="&#x490;" horiz-adv-x="542" 
d="M498 766v-152v-6q0 -19 -6 -25t-25 -6h-266q-25 0 -36 -11t-11 -36v-496q0 -20 -7 -27t-27 -7h-10q-20 0 -27 7t-7 27v508q0 56 25.5 82t82.5 26h236v116q0 20 7 27t27 7h10q20 0 27 -7t7 -27z" />
    <glyph glyph-name="afii10098" unicode="&#x491;" horiz-adv-x="437" 
d="M401 611v-158q0 -19 -6 -25t-25 -6h-236v-390q0 -20 -6 -26t-26 -6h-11q-19 0 -25.5 6t-6.5 26v430q0 19 6 25t25 6h235v118q0 20 6 26t26 6h12q20 0 26 -6t6 -26z" />
    <glyph glyph-name="uni0492" unicode="&#x492;" horiz-adv-x="609" 
d="M304 306h-83v-272q0 -20 -7 -27t-27 -7h-10q-20 0 -27 7t-7 27v272h-83q-19 0 -25 6t-6 25v11q0 19 6 25t25 6h83v163q0 56 25.5 82t82.5 26h283q19 0 25 -6t6 -25v-11q0 -19 -6 -25t-25 -6h-266q-25 0 -36 -11t-11 -36v-151h83q19 0 25 -6t6 -25v-11q0 -19 -6 -25
t-25 -6z" />
    <glyph glyph-name="uni0493" unicode="&#x493;" horiz-adv-x="528" 
d="M67 297h83v165q0 19 6 25t25 6h280q19 0 25 -6t6 -25v-9q0 -19 -6 -25t-25 -6h-236v-125h83q19 0 25 -6t6 -25v-9q0 -19 -6 -25t-25 -6h-83v-194q0 -20 -6 -26t-26 -6h-11q-19 0 -25.5 6t-6.5 26v194h-83q-19 0 -25 6t-6 25v9q0 19 6 25t25 6z" />
    <glyph glyph-name="uni0496" unicode="&#x496;" horiz-adv-x="933" 
d="M571 439l152 180q17 19 30 25t38 6h12q25 0 28 -6t-13 -25l-183 -218q-38 -47 -38 -62q0 -14 38 -61l148 -179q23 -26 48 -26h27q34 0 56 -28.5t22 -79.5v-131q0 -20 -7 -27t-27 -7h-10q-20 0 -27 7t-7 27v119q0 44 -40 47h-7q-24 0 -37.5 6.5t-29.5 25.5l-173 208
q-49 58 -49 101t49 98zM153 619l152 -180q49 -55 49 -98t-49 -101l-173 -208q-16 -19 -29.5 -25.5t-37.5 -6.5h-12q-25 0 -28 6t13 26l203 246q38 47 38 61q0 15 -38 62l-183 218q-16 19 -13 25t28 6h12q25 0 38 -6t30 -25zM477 616v-582q0 -20 -7 -27t-27 -7h-10
q-20 0 -27 7t-7 27v582q0 20 7 27t27 7h10q20 0 27 -7t7 -27z" />
    <glyph glyph-name="uni0497" unicode="&#x497;" horiz-adv-x="795" 
d="M716 0h-24q-25 0 -39 6t-31 25l-134 145q-41 44 -41 87q0 37 41 81l114 119q17 18 31.5 24t39.5 6h12q25 0 27.5 -6t-14.5 -24l-156 -164q-21 -23 -21 -38q0 -19 20 -39l140 -151h80q19 0 25 -6t6 -25v-208q0 -20 -6 -26t-26 -6h-12q-20 0 -26 6t-6 26v168zM151 463
l114 -119q41 -44 41 -81q0 -43 -41 -87l-134 -145q-17 -19 -31 -25t-40 -6h-12q-25 0 -28 6t15 25l177 191q20 20 20 39q0 15 -21 38l-156 164q-17 18 -14.5 24t27.5 6h12q25 0 39.5 -6t31.5 -24zM339 32v429q0 20 6.5 26t25.5 6h11q20 0 26 -6t6 -26v-429q0 -20 -6 -26
t-26 -6h-11q-19 0 -25.5 6t-6.5 26z" />
    <glyph glyph-name="uni0498" unicode="&#x498;" horiz-adv-x="530" 
d="M478 181q0 -74 -54.5 -123.5t-147.5 -62.5v-161q0 -20 -7 -27t-27 -7h-10q-20 0 -27 7t-7 27v156q-78 2 -129 25q-18 8 -24 16t-6 24v12q0 19 6.5 24t23.5 -2q69 -26 144 -26q88 0 137 31.5t49 90.5q0 60 -31.5 86.5t-107.5 26.5h-65q-19 0 -25 6t-6 25v7q0 19 6 25t25 6
h49q73 0 104 25t31 81q0 53 -43.5 83t-119.5 30q-77 0 -140 -27q-31 -13 -31 23v13q0 16 6 23.5t23 14.5q67 26 139 26q115 0 180 -48t65 -131q0 -63 -24.5 -96.5t-83.5 -47.5v-2q69 -12 98.5 -48.5t29.5 -104.5z" />
    <glyph glyph-name="uni0499" unicode="&#x499;" horiz-adv-x="397" 
d="M174 -200h-12q-20 0 -26 6t-6 26v158q-41 2 -80 13q-19 5 -25.5 12.5t-6.5 23.5v10q0 19 6.5 25t23.5 0q36 -13 96 -13q62 0 102.5 24t40.5 58t-40.5 58.5t-102.5 24.5q-19 0 -25 6t-6 25v9q0 19 6 25t25 6q56 0 90 19.5t34 48.5q0 28 -34 47.5t-90 19.5q-46 0 -86 -14
q-18 -6 -24 -0.5t-6 24.5v10q0 17 6 24.5t24 13.5q36 13 88 13q94 0 143 -42q50 -41 50 -96q0 -29 -18.5 -56.5t-46.5 -44.5q84 -40 84 -121q0 -53 -41 -94t-111 -53v-164q0 -20 -6 -26t-26 -6z" />
    <glyph glyph-name="uni049A" unicode="&#x49a;" horiz-adv-x="610" 
d="M488 0q-24 0 -37.5 6.5t-29.5 25.5l-173 208q-49 58 -49 101t49 98l152 180q17 19 30 25t38 6h12q25 0 28 -6t-13 -25l-183 -218q-38 -47 -38 -62q0 -14 38 -61l156 -189q13 -16 32 -16h35q34 0 56 -28.5t22 -79.5v-131q0 -20 -7 -27t-27 -7h-10q-20 0 -27 7t-7 27v119
q0 25 -11 36t-36 11zM76 34v582q0 20 7 27t27 7h10q20 0 27 -7t7 -27v-582q0 -20 -7 -27t-27 -7h-10q-20 0 -27 7t-7 27z" />
    <glyph glyph-name="uni049B" unicode="&#x49b;" horiz-adv-x="509" 
d="M423 -168v168q-26 0 -40 6t-31 25l-134 145q-41 44 -41 87q0 37 41 81l114 119q17 18 31.5 24t39.5 6h12q25 0 27.5 -6t-14.5 -24l-156 -164q-21 -23 -21 -38q0 -19 20 -39l140 -151h57q19 0 25 -6t6 -25v-208q0 -20 -6 -26t-26 -6h-12q-20 0 -26 6t-6 26zM69 32v429
q0 20 6.5 26t25.5 6h11q20 0 26 -6t6 -26v-429q0 -20 -6 -26t-26 -6h-11q-19 0 -25.5 6t-6.5 26z" />
    <glyph glyph-name="uni049C" unicode="&#x49c;" horiz-adv-x="653" 
d="M348 439l152 180q17 19 30 25t38 6h12q25 0 28 -6t-13 -25l-183 -218q-38 -47 -38 -62q0 -14 38 -61l203 -246q16 -20 13 -26t-28 -6h-12q-24 0 -37.5 6.5t-29.5 25.5l-173 208q-49 58 -49 101t49 98zM76 34v582q0 20 7 27t27 7h10q20 0 27 -7t7 -27v-582q0 -20 -7 -27
t-27 -7h-10q-20 0 -27 7t-7 27zM271 422v-202q0 -20 -7 -27t-27 -7h-10q-20 0 -27 7t-7 27v202q0 20 7 27t27 7h10q20 0 27 -7t7 -27z" />
    <glyph glyph-name="uni049D" unicode="&#x49d;" horiz-adv-x="483" 
d="M69 32v429q0 20 6.5 26t25.5 6h11q20 0 26 -6t6 -26v-429q0 -20 -6 -26t-26 -6h-11q-19 0 -25.5 6t-6.5 26zM318 344l114 119q17 18 31.5 24t39.5 6h12q25 0 27.5 -6t-14.5 -24l-156 -164q-21 -23 -21 -38q0 -19 20 -39l177 -191q18 -19 15 -25t-28 -6h-12q-26 0 -40 6
t-31 25l-134 145q-41 44 -41 87q0 37 41 81zM219 110h-12q-20 0 -26 6t-6 26v202q0 20 6 26t26 6h12q20 0 26 -6t6 -26v-202q0 -20 -6 -26t-26 -6z" />
    <glyph glyph-name="uni04A0" unicode="&#x4a0;" horiz-adv-x="710" 
d="M405 439l152 180q17 19 30 25t38 6h12q25 0 28 -6t-13 -25l-183 -218q-38 -47 -38 -62q0 -14 38 -61l203 -246q16 -20 13 -26t-28 -6h-12q-24 0 -37.5 6.5t-29.5 25.5l-173 208q-49 58 -49 101t49 98zM311 542v-508q0 -20 -7 -27t-27 -7h-10q-20 0 -27 7t-7 27v496
q0 25 -11 36t-36 11h-126q-19 0 -25 6t-6 25v11q0 19 6 25t25 6h143q57 0 82.5 -26t25.5 -82z" />
    <glyph glyph-name="uni04A1" unicode="&#x4a1;" horiz-adv-x="607" 
d="M342 344l114 119q17 18 31.5 24t39.5 6h12q25 0 27.5 -6t-14.5 -24l-156 -164q-21 -23 -21 -38q0 -19 20 -39l177 -191q18 -19 15 -25t-28 -6h-12q-26 0 -40 6t-31 25l-134 145q-41 44 -41 87q0 37 41 81zM67 493h169q20 0 26 -6t6 -26v-429q0 -20 -6 -26t-26 -6h-11
q-19 0 -25.5 6t-6.5 26v390h-126q-19 0 -25 6t-6 25v9q0 19 6 25t25 6z" />
    <glyph glyph-name="uni04A2" unicode="&#x4a2;" horiz-adv-x="613" 
d="M460 34v272h-306v-272q0 -20 -7 -27t-27 -7h-10q-20 0 -27 7t-7 27v582q0 20 7 27t27 7h10q20 0 27 -7t7 -27v-237h306v237q0 20 7 27t27 7h10q20 0 27 -7t7 -27v-543q34 0 56 -28.5t22 -79.5v-131q0 -20 -7 -27t-27 -7h-10q-20 0 -27 7t-7 27v119q0 45 -44 47
q-20 0 -27 7t-7 27z" />
    <glyph glyph-name="uni04A3" unicode="&#x4a3;" horiz-adv-x="555" 
d="M476 -168v168h-44q-20 0 -26 6t-6 26v194h-266v-194q0 -20 -6 -26t-26 -6h-11q-19 0 -25.5 6t-6.5 26v429q0 20 6.5 26t25.5 6h11q20 0 26 -6t6 -26v-164h266v164q0 20 6 26t26 6h12q20 0 26 -6t6 -26v-390h45q19 0 25 -6t6 -25v-208q0 -20 -6 -26t-26 -6h-12
q-20 0 -26 6t-6 26z" />
    <glyph glyph-name="uni04AA" unicode="&#x4aa;" horiz-adv-x="524" 
d="M135 399v-160q0 -90 42 -133t134 -43q75 0 144 26q17 7 23.5 2t6.5 -24v-12q0 -16 -6 -24t-24 -16q-43 -21 -119 -24v-157q0 -20 -7 -27t-27 -7h-10q-20 0 -27 7t-7 27v159q-103 11 -152.5 71.5t-49.5 174.5v160q0 260 255 260q72 0 139 -26q17 -7 23 -14.5t6 -23.5v-13
q0 -36 -31 -23q-63 27 -140 27q-90 0 -131.5 -45t-41.5 -142z" />
    <glyph glyph-name="uni04AB" unicode="&#x4ab;" horiz-adv-x="418" 
d="M254 -200h-12q-20 0 -26 6t-6 26v163q-161 26 -161 202v99q0 101 56 154t167 53q52 0 88 -13q18 -6 24 -13.5t6 -24.5v-10q0 -19 -6 -24.5t-24 0.5q-40 14 -86 14q-81 0 -115.5 -32t-34.5 -105v-97q0 -75 36 -106t120 -31q54 0 90 13q17 6 23.5 0t6.5 -25v-10
q0 -16 -6.5 -23.5t-25.5 -12.5q-40 -12 -82 -13v-158q0 -20 -6 -26t-26 -6z" />
    <glyph glyph-name="uni04AE" unicode="&#x4ae;" horiz-adv-x="606" 
d="M268 35v233q-32 8 -49 26q-15 15 -49 77l-133 246q-11 19 -6.5 26t26.5 7h11q23 0 34.5 -7t21.5 -27l112 -214q22 -44 35 -56t36 -12t36 13q14 14 35 55l112 214q10 20 21.5 27t34.5 7h11q22 0 26.5 -7t-6.5 -26l-133 -246q-34 -62 -49 -77q-17 -19 -48 -26v-233
q0 -21 -7 -28t-28 -7h-9q-21 0 -28 7t-7 28z" />
    <glyph glyph-name="uni04AF" unicode="&#x4af;" horiz-adv-x="518" 
d="M269 -200h-10q-19 0 -25.5 6t-6.5 26v166q-37 6 -57.5 32t-33.5 82l-95 348q-5 20 0 26.5t25 6.5h8q20 0 29 -6.5t14 -26.5l94 -345q8 -32 19 -43t34 -12q23 1 34 12t19 43l94 345q5 20 14 26.5t29 6.5h8q20 0 25 -6.5t0 -26.5l-95 -348q-13 -56 -33.5 -82t-57.5 -32
v-166q0 -20 -6.5 -26t-25.5 -6z" />
    <glyph glyph-name="uni04B0" unicode="&#x4b0;" horiz-adv-x="606" 
d="M98 257v7q0 14 5 19t19 5h103l-6 6q-15 15 -49 77l-133 246q-11 19 -6.5 26t26.5 7h11q23 0 34.5 -7t21.5 -27l112 -214q22 -44 35 -56t36 -12t36 13q14 14 35 55l112 214q10 20 21.5 27t34.5 7h11q22 0 26.5 -7t-6.5 -26l-133 -246q-34 -62 -49 -77l-6 -6h104
q14 0 19 -5t5 -19v-7q0 -14 -5 -19t-19 -5h-146v-198q0 -21 -7 -28t-28 -7h-9q-21 0 -28 7t-7 28v198h-146q-14 0 -19 5t-5 19z" />
    <glyph glyph-name="uni04B1" unicode="&#x4b1;" horiz-adv-x="518" 
d="M56 -11v7q0 14 5 19t19 5h98q-27 25 -42 92l-95 348q-5 20 0 26.5t25 6.5h8q20 0 29 -6.5t14 -26.5l94 -345q8 -32 19 -43t34 -12q23 1 34 12t19 43l94 345q5 20 14 26.5t29 6.5h8q20 0 25 -6.5t0 -26.5l-95 -348q-15 -67 -42 -92h98q14 0 19 -5t5 -19v-7q0 -14 -5 -19
t-19 -5h-147v-133q0 -20 -6.5 -26t-25.5 -6h-10q-19 0 -25.5 6t-6.5 26v133h-147q-14 0 -19 5t-5 19z" />
    <glyph glyph-name="uni04B2" unicode="&#x4b2;" horiz-adv-x="601" 
d="M506 650h10q23 0 27 -7t-6 -27l-95 -189q-36 -72 -64 -84q31 -14 64 -83l87 -171q7 -16 26 -16h17q34 0 56 -28.5t22 -79.5v-131q0 -20 -7 -27t-27 -7h-10q-20 0 -27 7t-7 27v119q0 44 -40 47h-7q-23 0 -34 7t-21 27l-103 212q-18 39 -29.5 50.5t-33.5 11.5
q-21 0 -32 -11q-10 -11 -30 -51l-103 -212q-10 -20 -21 -27t-34 -7h-11q-23 0 -27 7t6 27l114 226q21 40 34.5 57.5t30.5 25.5q-28 12 -64 84l-95 189q-10 20 -6 27t27 7h10q23 0 34 -7t21 -27l84 -175q19 -39 30.5 -50.5t31.5 -11.5q21 0 32.5 11.5t30.5 50.5l84 175
q10 20 21 27t34 7z" />
    <glyph glyph-name="uni04B3" unicode="&#x4b3;" horiz-adv-x="541" 
d="M462 -168v168q-22 0 -33 6t-22 25l-96 160q-15 24 -23 31t-20 7t-20 -7t-23 -31l-96 -160q-11 -19 -22 -25t-33 -6h-12q-22 0 -25 6t8 25l101 162l21 34q16 23 35 34q-14 6 -24.5 18.5t-32.5 50.5l-80 132q-11 19 -8 25t25 6h12q22 0 33 -6.5t21 -24.5l78 -132
q12 -21 20.5 -28t21.5 -7t21.5 7t20.5 28l78 132q10 18 21 24.5t33 6.5h12q22 0 25 -6t-8 -25l-80 -132q-21 -36 -32 -49t-26 -20q14 -6 25 -19t33 -49l75 -122h41q19 0 25 -6t6 -25v-208q0 -20 -6 -26t-26 -6h-12q-20 0 -26 6t-6 26z" />
    <glyph glyph-name="uni04B8" unicode="&#x4b8;" horiz-adv-x="613" 
d="M351 285v-65q0 -20 -7 -27t-27 -7h-10q-20 0 -27 7t-7 27v68q-100 13 -148.5 73t-48.5 173v82q0 20 7 27t27 7h10q20 0 27 -7t7 -27v-82q0 -75 28.5 -116.5t90.5 -54.5v59q0 20 7 27t27 7h10q20 0 27 -7t7 -27v-64q55 3 109 20v238q0 20 7 27t27 7h10q20 0 27 -7t7 -27
v-582q0 -20 -7 -27t-27 -7h-10q-20 0 -27 7t-7 27v270q-48 -18 -109 -19z" />
    <glyph glyph-name="uni04B9" unicode="&#x4b9;" horiz-adv-x="535" 
d="M277 90h-12q-20 0 -26 6t-6 26v71q-174 19 -174 204v64q0 20 6.5 26t25.5 6h11q20 0 26 -6t6 -26v-63q0 -62 23.5 -93t75.5 -40v59q0 20 6 26t26 6h12q20 0 26 -6t6 -26v-63q55 1 91 20v180q0 20 6 26t26 6h12q20 0 26 -6t6 -26v-429q0 -20 -6 -26t-26 -6h-12
q-20 0 -26 6t-6 26v180q-29 -17 -91 -22v-68q0 -20 -6 -26t-26 -6z" />
    <glyph glyph-name="uni04BA" unicode="&#x4ba;" horiz-adv-x="613" 
d="M154 272v-238q0 -20 -7 -27t-27 -7h-10q-20 0 -27 7t-7 27v582q0 20 7 27t27 7h10q20 0 27 -7t7 -27v-270q50 19 127 19q132 0 194.5 -60.5t62.5 -188.5v-82q0 -20 -7 -27t-27 -7h-10q-20 0 -27 7t-7 27v82q0 90 -42.5 133t-134.5 43q-66 0 -129 -20z" />
    <glyph glyph-name="uni04BB" unicode="&#x4bb;" horiz-adv-x="534" 
d="M134 668v-387q35 22 115 22q115 0 170.5 -50.5t55.5 -156.5v-64q0 -20 -6.5 -26t-25.5 -6h-11q-20 0 -26 6t-6 26v63q0 75 -36 106t-120 31q-72 0 -110 -20v-180q0 -20 -6 -26t-26 -6h-11q-20 0 -26 6t-6 26v636q0 20 6 26t26 6h11q20 0 26 -6t6 -26z" />
    <glyph glyph-name="uni04D8" unicode="&#x4d8;" horiz-adv-x="586" 
d="M56 239v105q0 19 6 25t25 6h364v24q0 97 -41.5 142t-131.5 45q-77 0 -140 -27q-31 -13 -31 23v13q0 16 6 23.5t23 14.5q67 26 139 26q255 0 255 -260v-160q0 -249 -237 -249t-237 249zM451 239v63h-316v-63q0 -176 158 -176t158 176z" />
    <glyph glyph-name="afii10846" unicode="&#x4d9;" horiz-adv-x="514" 
d="M49 190q0 34 3 54q2 19 9 25t27 6h302v30q0 68 -36.5 97.5t-119.5 29.5q-69 0 -136 -19q-18 -5 -25 1t-7 25v9q0 16 5.5 23t25.5 13q61 19 137 19q120 0 175.5 -49.5t55.5 -159.5v-93q0 -211 -211 -211q-100 0 -152.5 51t-52.5 149zM390 179v33h-270v-33q0 -122 135 -122
t135 122z" />
    <glyph glyph-name="uni04E8" unicode="&#x4e8;" 
d="M311 -10q-144 0 -200 65q-55 64 -55 196v146q0 131 56 196t199 65t199 -65t56 -196v-146q0 -131 -56 -196t-199 -65zM488 251v51h-354v-51q0 -99 36 -144q36 -44 141 -44t141 44q36 45 36 144zM134 397v-21h354v21q0 101 -36 144q-36 45 -141 45t-141 -45
q-36 -43 -36 -144z" />
    <glyph glyph-name="uni04E9" unicode="&#x4e9;" horiz-adv-x="536" 
d="M269 -10q-114 0 -167 52t-53 158v93q0 210 220 210q113 0 165.5 -52t52.5 -158v-93q0 -210 -218 -210zM124 293v-14h288v14q0 75 -32 107t-111 32q-80 0 -112.5 -32t-32.5 -107zM412 200v5h-288v-5q0 -75 32.5 -107t112.5 -32q79 0 111 32t32 107z" />
    <glyph glyph-name="Adotbelow" unicode="&#x1ea0;" horiz-adv-x="609" 
d="M450 512l134 -479q5 -19 0 -26t-25 -7h-10q-21 0 -29.5 6.5t-13.5 26.5l-47 168h-299l-46 -168q-5 -20 -13.5 -26.5t-29.5 -6.5h-11q-20 0 -25 7t0 26l134 479q24 86 51 116q28 31 90 31t89 -31q28 -30 51 -116zM248 521l-69 -249h261l-69 249q-11 41 -23.5 54.5
t-37.5 13.5q-26 0 -38.5 -13.5t-23.5 -54.5zM317 -157q-21 0 -35 14t-14 35t14 35t35 14t35 -14t14 -35t-14 -35t-35 -14z" />
    <glyph glyph-name="adotbelow" unicode="&#x1ea1;" horiz-adv-x="483" 
d="M434 346v-198q0 -83 -50 -120.5t-159 -37.5q-91 0 -139.5 37.5t-48.5 112.5q0 77 49.5 111.5t154.5 34.5h118v60q0 48 -32 69.5t-99 21.5q-61 0 -110 -11q-18 -4 -25 1.5t-7 23.5v8q0 17 6 23.5t24 10.5q44 10 108 10q210 0 210 -157zM359 151v76h-117q-69 0 -99.5 -20
t-30.5 -67q0 -85 112 -85q73 0 104 21.5t31 74.5zM247 -157q-21 0 -35 14t-14 35t14 35t35 14t35 -14t14 -35t-14 -35t-35 -14z" />
    <glyph glyph-name="Ahookabove" unicode="&#x1ea2;" horiz-adv-x="609" 
d="M450 512l134 -479q5 -19 0 -26t-25 -7h-10q-21 0 -29.5 6.5t-13.5 26.5l-47 168h-299l-46 -168q-5 -20 -13.5 -26.5t-29.5 -6.5h-11q-20 0 -25 7t0 26l134 479q24 86 51 116q28 31 90 31t89 -31q28 -30 51 -116zM248 521l-69 -249h261l-69 249q-11 41 -23.5 54.5
t-37.5 13.5q-26 0 -38.5 -13.5t-23.5 -54.5zM273 707l-10 39q-3 13 0 16t17 1q5 -1 21 -1q25 0 35 7.5t10 26.5q0 21 -11 29t-38 8q-17 0 -32 -3q-19 -4 -19 16v6q0 11 3.5 15.5t14.5 6.5q22 5 40 5q51 0 75 -19.5t24 -63.5q0 -78 -90 -67l6 -22q3 -10 -8 -10h-25
q-10 0 -13 10z" />
    <glyph glyph-name="ahookabove" unicode="&#x1ea3;" horiz-adv-x="483" 
d="M434 346v-198q0 -83 -50 -120.5t-159 -37.5q-91 0 -139.5 37.5t-48.5 112.5q0 77 49.5 111.5t154.5 34.5h118v60q0 48 -32 69.5t-99 21.5q-61 0 -110 -11q-18 -4 -25 1.5t-7 23.5v8q0 17 6 23.5t24 10.5q44 10 108 10q210 0 210 -157zM359 151v76h-117q-69 0 -99.5 -20
t-30.5 -67q0 -85 112 -85q73 0 104 21.5t31 74.5zM197 557l-10 39q-3 13 0 16t17 1q5 -1 21 -1q25 0 35 7.5t10 26.5q0 21 -11 29t-38 8q-17 0 -32 -3q-19 -4 -19 16v6q0 11 3.5 15.5t14.5 6.5q22 5 40 5q51 0 75 -19.5t24 -63.5q0 -78 -90 -67l6 -22q3 -10 -8 -10h-25
q-10 0 -13 10z" />
    <glyph glyph-name="Acircumflexacute" unicode="&#x1ea4;" horiz-adv-x="609" 
d="M450 512l134 -479q5 -19 0 -26t-25 -7h-10q-21 0 -29.5 6.5t-13.5 26.5l-47 168h-299l-46 -168q-5 -20 -13.5 -26.5t-29.5 -6.5h-11q-20 0 -25 7t0 26l134 479q24 86 51 116q28 31 90 31t89 -31q28 -30 51 -116zM248 521l-69 -249h261l-69 249q-11 41 -23.5 54.5
t-37.5 13.5q-26 0 -38.5 -13.5t-23.5 -54.5zM201 724l38 59q19 29 33 39t38 10q25 0 39 -10t32 -39l38 -59q9 -14 6 -18.5t-19 -4.5h-8q-27 0 -41 23l-23 39q-24 42 -48 0l-22 -39q-14 -23 -41 -23h-9q-16 0 -18.5 4.5t5.5 18.5zM545 905l-50 -83q-15 -24 -43 -24h-10
q-16 0 -19 5t4 20l42 81q10 18 20 24t30 6h10q20 0 23.5 -6t-7.5 -23z" />
    <glyph glyph-name="acircumflexacute" unicode="&#x1ea5;" horiz-adv-x="483" 
d="M434 346v-198q0 -83 -50 -120.5t-159 -37.5q-91 0 -139.5 37.5t-48.5 112.5q0 77 49.5 111.5t154.5 34.5h118v60q0 48 -32 69.5t-99 21.5q-61 0 -110 -11q-18 -4 -25 1.5t-7 23.5v8q0 17 6 23.5t24 10.5q44 10 108 10q210 0 210 -157zM359 151v76h-117q-69 0 -99.5 -20
t-30.5 -67q0 -85 112 -85q73 0 104 21.5t31 74.5zM130 575l38 59q19 29 33 39t38 10q25 0 39 -10t32 -39l38 -59q9 -13 6 -18t-19 -5h-8q-27 0 -41 23l-23 39q-24 42 -48 0l-22 -39q-14 -23 -41 -23h-9q-16 0 -18.5 5t5.5 18zM474 756l-50 -83q-15 -24 -43 -24h-10
q-16 0 -19 5t4 20l42 81q10 18 20 24t30 6h10q20 0 23.5 -6t-7.5 -23z" />
    <glyph glyph-name="Acircumflexgrave" unicode="&#x1ea6;" horiz-adv-x="609" 
d="M450 512l134 -479q5 -19 0 -26t-25 -7h-10q-21 0 -29.5 6.5t-13.5 26.5l-47 168h-299l-46 -168q-5 -20 -13.5 -26.5t-29.5 -6.5h-11q-20 0 -25 7t0 26l134 479q24 86 51 116q28 31 90 31t89 -31q28 -30 51 -116zM248 521l-69 -249h261l-69 249q-11 41 -23.5 54.5
t-37.5 13.5q-26 0 -38.5 -13.5t-23.5 -54.5zM201 724l38 59q19 29 33 39t38 10q25 0 39 -10t32 -39l38 -59q9 -14 6 -18.5t-19 -4.5h-8q-27 0 -41 23l-23 39q-24 42 -48 0l-22 -39q-14 -23 -41 -23h-9q-16 0 -18.5 4.5t5.5 18.5zM130 822l-50 83q-11 17 -7.5 23t23.5 6h10
q20 0 30 -6t20 -24l42 -81q8 -15 5 -20t-20 -5h-10q-28 0 -43 24z" />
    <glyph glyph-name="acircumflexgrave" unicode="&#x1ea7;" horiz-adv-x="483" 
d="M434 346v-198q0 -83 -50 -120.5t-159 -37.5q-91 0 -139.5 37.5t-48.5 112.5q0 77 49.5 111.5t154.5 34.5h118v60q0 48 -32 69.5t-99 21.5q-61 0 -110 -11q-18 -4 -25 1.5t-7 23.5v8q0 17 6 23.5t24 10.5q44 10 108 10q210 0 210 -157zM359 151v76h-117q-69 0 -99.5 -20
t-30.5 -67q0 -85 112 -85q73 0 104 21.5t31 74.5zM130 575l38 59q19 29 33 39t38 10q25 0 39 -10t32 -39l38 -59q9 -13 6 -18t-19 -5h-8q-27 0 -41 23l-23 39q-24 42 -48 0l-22 -39q-14 -23 -41 -23h-9q-16 0 -18.5 5t5.5 18zM59 673l-50 83q-11 17 -7.5 23t23.5 6h10
q20 0 30 -6t20 -24l42 -81q8 -15 5 -20t-20 -5h-10q-28 0 -43 24z" />
    <glyph glyph-name="Acircumflexhookabove" unicode="&#x1ea8;" horiz-adv-x="609" 
d="M450 512l134 -479q5 -19 0 -26t-25 -7h-10q-21 0 -29.5 6.5t-13.5 26.5l-47 168h-299l-46 -168q-5 -20 -13.5 -26.5t-29.5 -6.5h-11q-20 0 -25 7t0 26l134 479q24 86 51 116q28 31 90 31t89 -31q28 -30 51 -116zM248 521l-69 -249h261l-69 249q-11 41 -23.5 54.5
t-37.5 13.5q-26 0 -38.5 -13.5t-23.5 -54.5zM201 724l38 59q19 29 33 39t38 10q25 0 39 -10t32 -39l38 -59q9 -14 6 -18.5t-19 -4.5h-8q-27 0 -41 23l-23 39q-24 42 -48 0l-22 -39q-14 -23 -41 -23h-9q-16 0 -18.5 4.5t5.5 18.5zM424 806l-10 39q-3 13 0 16t17 1q5 -1 21 -1
q25 0 35 7.5t10 26.5q0 21 -11 29t-38 8q-17 0 -32 -3q-19 -4 -19 16v6q0 11 3.5 15.5t14.5 6.5q22 5 40 5q51 0 75 -19.5t24 -63.5q0 -77 -90 -67l6 -22q3 -10 -8 -10h-25q-10 0 -13 10z" />
    <glyph glyph-name="acircumflexhookabove" unicode="&#x1ea9;" horiz-adv-x="483" 
d="M434 346v-198q0 -83 -50 -120.5t-159 -37.5q-91 0 -139.5 37.5t-48.5 112.5q0 77 49.5 111.5t154.5 34.5h118v60q0 48 -32 69.5t-99 21.5q-61 0 -110 -11q-18 -4 -25 1.5t-7 23.5v8q0 17 6 23.5t24 10.5q44 10 108 10q210 0 210 -157zM359 151v76h-117q-69 0 -99.5 -20
t-30.5 -67q0 -85 112 -85q73 0 104 21.5t31 74.5zM130 575l38 59q19 29 33 39t38 10q25 0 39 -10t32 -39l38 -59q9 -13 6 -18t-19 -5h-8q-27 0 -41 23l-23 39q-24 42 -48 0l-22 -39q-14 -23 -41 -23h-9q-16 0 -18.5 5t5.5 18zM353 657l-10 39q-3 13 0 16t17 1q5 -1 21 -1
q25 0 35 7.5t10 26.5q0 21 -11 29t-38 8q-17 0 -32 -3q-19 -4 -19 16v6q0 11 3.5 15.5t14.5 6.5q22 5 40 5q51 0 75 -19.5t24 -63.5q0 -78 -90 -67l6 -22q3 -10 -8 -10h-25q-10 0 -13 10z" />
    <glyph glyph-name="Acircumflextilde" unicode="&#x1eaa;" horiz-adv-x="609" 
d="M450 512l134 -479q5 -19 0 -26t-25 -7h-10q-21 0 -29.5 6.5t-13.5 26.5l-47 168h-299l-46 -168q-5 -20 -13.5 -26.5t-29.5 -6.5h-11q-20 0 -25 7t0 26l134 479q24 86 51 116q28 31 90 31t89 -31q28 -30 51 -116zM248 521l-69 -249h261l-69 249q-11 41 -23.5 54.5
t-37.5 13.5q-26 0 -38.5 -13.5t-23.5 -54.5zM201 724l38 59q19 29 33 39t38 10q25 0 39 -10t32 -39l38 -59q9 -14 6 -18.5t-19 -4.5h-8q-27 0 -41 23l-23 39q-24 42 -48 0l-22 -39q-14 -23 -41 -23h-9q-16 0 -18.5 4.5t5.5 18.5zM181 855h-7q-13 0 -17.5 4t-3.5 15
q7 90 87 90q33 0 77 -32t60 -32q29 0 34 38q1 11 5.5 15t17.5 4h6q13 0 17.5 -4t3.5 -15q-6 -90 -87 -90q-33 0 -77 32t-59 32q-29 0 -34 -38q-1 -11 -5.5 -15t-17.5 -4z" />
    <glyph glyph-name="acircumflextilde" unicode="&#x1eab;" horiz-adv-x="483" 
d="M434 346v-198q0 -83 -50 -120.5t-159 -37.5q-91 0 -139.5 37.5t-48.5 112.5q0 77 49.5 111.5t154.5 34.5h118v60q0 48 -32 69.5t-99 21.5q-61 0 -110 -11q-18 -4 -25 1.5t-7 23.5v8q0 17 6 23.5t24 10.5q44 10 108 10q210 0 210 -157zM359 151v76h-117q-69 0 -99.5 -20
t-30.5 -67q0 -85 112 -85q73 0 104 21.5t31 74.5zM130 575l38 59q19 29 33 39t38 10q25 0 39 -10t32 -39l38 -59q9 -13 6 -18t-19 -5h-8q-27 0 -41 23l-23 39q-24 42 -48 0l-22 -39q-14 -23 -41 -23h-9q-16 0 -18.5 5t5.5 18zM110 706h-7q-13 0 -17.5 4t-3.5 15q8 90 87 90
q33 0 77 -32t60 -32q29 0 34 38q1 11 5.5 15t17.5 4h6q13 0 17.5 -4t3.5 -15q-6 -90 -87 -90q-33 0 -77 32t-59 32q-29 0 -34 -38q-1 -11 -5.5 -15t-17.5 -4z" />
    <glyph glyph-name="Acircumflexdotbelow" unicode="&#x1eac;" horiz-adv-x="609" 
d="M450 512l134 -479q5 -19 0 -26t-25 -7h-10q-21 0 -29.5 6.5t-13.5 26.5l-47 168h-299l-46 -168q-5 -20 -13.5 -26.5t-29.5 -6.5h-11q-20 0 -25 7t0 26l134 479q24 86 51 116q28 31 90 31t89 -31q28 -30 51 -116zM248 521l-69 -249h261l-69 249q-11 41 -23.5 54.5
t-37.5 13.5q-26 0 -38.5 -13.5t-23.5 -54.5zM317 -157q-21 0 -35 14t-14 35t14 35t35 14t35 -14t14 -35t-14 -35t-35 -14zM201 724l38 59q19 29 33 39t38 10q25 0 39 -10t32 -39l38 -59q9 -14 6 -18.5t-19 -4.5h-8q-27 0 -41 23l-23 39q-24 42 -48 0l-22 -39
q-14 -23 -41 -23h-9q-16 0 -18.5 4.5t5.5 18.5z" />
    <glyph glyph-name="acircumflexdotbelow" unicode="&#x1ead;" horiz-adv-x="483" 
d="M434 346v-198q0 -83 -50 -120.5t-159 -37.5q-91 0 -139.5 37.5t-48.5 112.5q0 77 49.5 111.5t154.5 34.5h118v60q0 48 -32 69.5t-99 21.5q-61 0 -110 -11q-18 -4 -25 1.5t-7 23.5v8q0 17 6 23.5t24 10.5q44 10 108 10q210 0 210 -157zM359 151v76h-117q-69 0 -99.5 -20
t-30.5 -67q0 -85 112 -85q73 0 104 21.5t31 74.5zM247 -157q-21 0 -35 14t-14 35t14 35t35 14t35 -14t14 -35t-14 -35t-35 -14zM130 575l38 59q19 29 33 39t38 10q25 0 39 -10t32 -39l38 -59q9 -13 6 -18t-19 -5h-8q-27 0 -41 23l-23 39q-24 42 -48 0l-22 -39
q-14 -23 -41 -23h-9q-16 0 -18.5 5t5.5 18z" />
    <glyph glyph-name="Abreveacute" unicode="&#x1eae;" horiz-adv-x="609" 
d="M450 512l134 -479q5 -19 0 -26t-25 -7h-10q-21 0 -29.5 6.5t-13.5 26.5l-47 168h-299l-46 -168q-5 -20 -13.5 -26.5t-29.5 -6.5h-11q-20 0 -25 7t0 26l134 479q24 86 51 116q28 31 90 31t89 -31q28 -30 51 -116zM248 521l-69 -249h261l-69 249q-11 41 -23.5 54.5
t-37.5 13.5q-26 0 -38.5 -13.5t-23.5 -54.5zM383 778q1 11 5.5 15t17.5 4h6q13 0 17 -4t4 -15q0 -44 -32 -66.5t-91 -22.5t-91 22.5t-32 66.5q0 11 4 15t17 4h6q13 0 17.5 -4t5.5 -15q4 -40 73 -40t73 40zM398 885l-50 -83q-15 -24 -43 -24h-10q-16 0 -19 5t4 20l42 81
q10 18 20 24t30 6h10q20 0 23.5 -6t-7.5 -23z" />
    <glyph glyph-name="abreveacute" unicode="&#x1eaf;" horiz-adv-x="483" 
d="M434 346v-198q0 -83 -50 -120.5t-159 -37.5q-91 0 -139.5 37.5t-48.5 112.5q0 77 49.5 111.5t154.5 34.5h118v60q0 48 -32 69.5t-99 21.5q-61 0 -110 -11q-18 -4 -25 1.5t-7 23.5v8q0 17 6 23.5t24 10.5q44 10 108 10q210 0 210 -157zM359 151v76h-117q-69 0 -99.5 -20
t-30.5 -67q0 -85 112 -85q73 0 104 21.5t31 74.5zM313 649q1 11 5.5 15t17.5 4h6q13 0 17 -4t4 -15q0 -44 -32 -66.5t-91 -22.5t-91 22.5t-32 66.5q0 11 4 15t17 4h6q13 0 17.5 -4t5.5 -15q4 -40 73 -40t73 40zM328 756l-50 -83q-15 -24 -43 -24h-10q-16 0 -19 5t4 20l42 81
q10 18 20 24t30 6h10q20 0 23.5 -6t-7.5 -23z" />
    <glyph glyph-name="Abrevegrave" unicode="&#x1eb0;" horiz-adv-x="609" 
d="M450 512l134 -479q5 -19 0 -26t-25 -7h-10q-21 0 -29.5 6.5t-13.5 26.5l-47 168h-299l-46 -168q-5 -20 -13.5 -26.5t-29.5 -6.5h-11q-20 0 -25 7t0 26l134 479q24 86 51 116q28 31 90 31t89 -31q28 -30 51 -116zM248 521l-69 -249h261l-69 249q-11 41 -23.5 54.5
t-37.5 13.5q-26 0 -38.5 -13.5t-23.5 -54.5zM383 778q1 11 5.5 15t17.5 4h6q13 0 17 -4t4 -15q0 -44 -32 -66.5t-91 -22.5t-91 22.5t-32 66.5q0 11 4 15t17 4h6q13 0 17.5 -4t5.5 -15q4 -40 73 -40t73 40zM269 802l-50 83q-11 17 -7.5 23t23.5 6h10q20 0 30 -6t20 -24
l42 -81q8 -15 5 -20t-20 -5h-10q-28 0 -43 24z" />
    <glyph glyph-name="abrevegrave" unicode="&#x1eb1;" horiz-adv-x="483" 
d="M434 346v-198q0 -83 -50 -120.5t-159 -37.5q-91 0 -139.5 37.5t-48.5 112.5q0 77 49.5 111.5t154.5 34.5h118v60q0 48 -32 69.5t-99 21.5q-61 0 -110 -11q-18 -4 -25 1.5t-7 23.5v8q0 17 6 23.5t24 10.5q44 10 108 10q210 0 210 -157zM359 151v76h-117q-69 0 -99.5 -20
t-30.5 -67q0 -85 112 -85q73 0 104 21.5t31 74.5zM313 649q1 11 5.5 15t17.5 4h6q13 0 17 -4t4 -15q0 -44 -32 -66.5t-91 -22.5t-91 22.5t-32 66.5q0 11 4 15t17 4h6q13 0 17.5 -4t5.5 -15q4 -40 73 -40t73 40zM199 673l-50 83q-11 17 -7.5 23t23.5 6h10q20 0 30 -6t20 -24
l42 -81q8 -15 5 -20t-20 -5h-10q-28 0 -43 24z" />
    <glyph glyph-name="Abrevehookabove" unicode="&#x1eb2;" horiz-adv-x="609" 
d="M450 512l134 -479q5 -19 0 -26t-25 -7h-10q-21 0 -29.5 6.5t-13.5 26.5l-47 168h-299l-46 -168q-5 -20 -13.5 -26.5t-29.5 -6.5h-11q-20 0 -25 7t0 26l134 479q24 86 51 116q28 31 90 31t89 -31q28 -30 51 -116zM248 521l-69 -249h261l-69 249q-11 41 -23.5 54.5
t-37.5 13.5q-26 0 -38.5 -13.5t-23.5 -54.5zM383 778q1 11 5.5 15t17.5 4h6q13 0 17 -4t4 -15q0 -44 -32 -66.5t-91 -22.5t-91 22.5t-32 66.5q0 11 4 15t17 4h6q13 0 17.5 -4t5.5 -15q4 -40 73 -40t73 40zM273 786l-10 39q-3 13 0 16t17 1q5 -1 21 -1q25 0 35 7.5t10 26.5
q0 21 -11 29t-38 8q-17 0 -32 -3q-19 -4 -19 16v6q0 11 3.5 15.5t14.5 6.5q22 5 40 5q51 0 75 -19.5t24 -63.5q0 -77 -90 -67l6 -22q3 -10 -8 -10h-25q-10 0 -13 10z" />
    <glyph glyph-name="abrevehookabove" unicode="&#x1eb3;" horiz-adv-x="483" 
d="M434 346v-198q0 -83 -50 -120.5t-159 -37.5q-91 0 -139.5 37.5t-48.5 112.5q0 77 49.5 111.5t154.5 34.5h118v60q0 48 -32 69.5t-99 21.5q-61 0 -110 -11q-18 -4 -25 1.5t-7 23.5v8q0 17 6 23.5t24 10.5q44 10 108 10q210 0 210 -157zM359 151v76h-117q-69 0 -99.5 -20
t-30.5 -67q0 -85 112 -85q73 0 104 21.5t31 74.5zM313 649q1 11 5.5 15t17.5 4h6q13 0 17 -4t4 -15q0 -44 -32 -66.5t-91 -22.5t-91 22.5t-32 66.5q0 11 4 15t17 4h6q13 0 17.5 -4t5.5 -15q4 -40 73 -40t73 40zM203 657l-10 39q-3 13 0 16t17 1q5 -1 21 -1q25 0 35 7.5
t10 26.5q0 21 -11 29t-38 8q-17 0 -32 -3q-19 -4 -19 16v6q0 11 3.5 15.5t14.5 6.5q22 5 40 5q51 0 75 -19.5t24 -63.5q0 -78 -90 -67l6 -22q3 -10 -8 -10h-25q-10 0 -13 10z" />
    <glyph glyph-name="Abrevetilde" unicode="&#x1eb4;" horiz-adv-x="609" 
d="M450 512l134 -479q5 -19 0 -26t-25 -7h-10q-21 0 -29.5 6.5t-13.5 26.5l-47 168h-299l-46 -168q-5 -20 -13.5 -26.5t-29.5 -6.5h-11q-20 0 -25 7t0 26l134 479q24 86 51 116q28 31 90 31t89 -31q28 -30 51 -116zM248 521l-69 -249h261l-69 249q-11 41 -23.5 54.5
t-37.5 13.5q-26 0 -38.5 -13.5t-23.5 -54.5zM383 778q1 11 5.5 15t17.5 4h6q13 0 17 -4t4 -15q0 -44 -32 -66.5t-91 -22.5t-91 22.5t-32 66.5q0 11 4 15t17 4h6q13 0 17.5 -4t5.5 -15q4 -40 73 -40t73 40zM180 835h-7q-13 0 -17.5 4t-3.5 15q8 90 87 90q33 0 77 -32t60 -32
q29 0 34 38q1 11 5.5 15t17.5 4h6q13 0 17.5 -4t3.5 -15q-6 -90 -87 -90q-33 0 -77 32t-59 32q-29 0 -34 -38q-1 -11 -5.5 -15t-17.5 -4z" />
    <glyph glyph-name="abrevetilde" unicode="&#x1eb5;" horiz-adv-x="483" 
d="M434 346v-198q0 -83 -50 -120.5t-159 -37.5q-91 0 -139.5 37.5t-48.5 112.5q0 77 49.5 111.5t154.5 34.5h118v60q0 48 -32 69.5t-99 21.5q-61 0 -110 -11q-18 -4 -25 1.5t-7 23.5v8q0 17 6 23.5t24 10.5q44 10 108 10q210 0 210 -157zM359 151v76h-117q-69 0 -99.5 -20
t-30.5 -67q0 -85 112 -85q73 0 104 21.5t31 74.5zM313 649q1 11 5.5 15t17.5 4h6q13 0 17 -4t4 -15q0 -44 -32 -66.5t-91 -22.5t-91 22.5t-32 66.5q0 11 4 15t17 4h6q13 0 17.5 -4t5.5 -15q4 -40 73 -40t73 40zM110 706h-7q-13 0 -17.5 4t-3.5 15q8 90 87 90q33 0 77 -32
t60 -32q29 0 34 38q1 11 5.5 15t17.5 4h6q13 0 17.5 -4t3.5 -15q-6 -90 -87 -90q-33 0 -77 32t-59 32q-29 0 -34 -38q-1 -11 -5.5 -15t-17.5 -4z" />
    <glyph glyph-name="Abrevedotbelow" unicode="&#x1eb6;" horiz-adv-x="609" 
d="M450 512l134 -479q5 -19 0 -26t-25 -7h-10q-21 0 -29.5 6.5t-13.5 26.5l-47 168h-299l-46 -168q-5 -20 -13.5 -26.5t-29.5 -6.5h-11q-20 0 -25 7t0 26l134 479q24 86 51 116q28 31 90 31t89 -31q28 -30 51 -116zM248 521l-69 -249h261l-69 249q-11 41 -23.5 54.5
t-37.5 13.5q-26 0 -38.5 -13.5t-23.5 -54.5zM383 778q1 11 5.5 15t17.5 4h6q13 0 17 -4t4 -15q0 -44 -32 -66.5t-91 -22.5t-91 22.5t-32 66.5q0 11 4 15t17 4h6q13 0 17.5 -4t5.5 -15q4 -40 73 -40t73 40zM317 -157q-21 0 -35 14t-14 35t14 35t35 14t35 -14t14 -35t-14 -35
t-35 -14z" />
    <glyph glyph-name="abrevedotbelow" unicode="&#x1eb7;" horiz-adv-x="483" 
d="M434 346v-198q0 -83 -50 -120.5t-159 -37.5q-91 0 -139.5 37.5t-48.5 112.5q0 77 49.5 111.5t154.5 34.5h118v60q0 48 -32 69.5t-99 21.5q-61 0 -110 -11q-18 -4 -25 1.5t-7 23.5v8q0 17 6 23.5t24 10.5q44 10 108 10q210 0 210 -157zM359 151v76h-117q-69 0 -99.5 -20
t-30.5 -67q0 -85 112 -85q73 0 104 21.5t31 74.5zM313 649q1 11 5.5 15t17.5 4h6q13 0 17 -4t4 -15q0 -44 -32 -66.5t-91 -22.5t-91 22.5t-32 66.5q0 11 4 15t17 4h6q13 0 17.5 -4t5.5 -15q4 -40 73 -40t73 40zM247 -157q-21 0 -35 14t-14 35t14 35t35 14t35 -14t14 -35
t-14 -35t-35 -14z" />
    <glyph glyph-name="Edotbelow" unicode="&#x1eb8;" horiz-adv-x="542" 
d="M427 302h-273v-182q0 -25 11 -36t36 -11h266q19 0 25 -6t6 -25v-11q0 -19 -6 -25t-25 -6h-283q-57 0 -82.5 26t-25.5 82v434q0 56 25.5 82t82.5 26h283q19 0 25 -6t6 -25v-11q0 -19 -6 -25t-25 -6h-266q-25 0 -36 -11t-11 -36v-155h273q19 0 25 -6t6 -25v-11
q0 -19 -6 -25t-25 -6zM287 -157q-21 0 -35 14t-14 35t14 35t35 14t35 -14t14 -35t-14 -35t-35 -14z" />
    <glyph glyph-name="edotbelow" unicode="&#x1eb9;" horiz-adv-x="514" 
d="M465 303q0 -35 -3 -54q-2 -19 -9 -25t-27 -6h-302v-30q0 -68 36.5 -97.5t119.5 -29.5q69 0 136 19q18 5 25 -1t7 -25v-9q0 -16 -5.5 -23t-25.5 -13q-61 -19 -137 -19q-120 0 -175.5 49.5t-55.5 159.5v93q0 211 211 211q100 0 152.5 -51t52.5 -149zM124 314v-33h270v33
q0 122 -135 122t-135 -122zM267 -157q-21 0 -35 14t-14 35t14 35t35 14t35 -14t14 -35t-14 -35t-35 -14z" />
    <glyph glyph-name="Ehookabove" unicode="&#x1eba;" horiz-adv-x="542" 
d="M427 302h-273v-182q0 -25 11 -36t36 -11h266q19 0 25 -6t6 -25v-11q0 -19 -6 -25t-25 -6h-283q-57 0 -82.5 26t-25.5 82v434q0 56 25.5 82t82.5 26h283q19 0 25 -6t6 -25v-11q0 -19 -6 -25t-25 -6h-266q-25 0 -36 -11t-11 -36v-155h273q19 0 25 -6t6 -25v-11
q0 -19 -6 -25t-25 -6zM263 707l-10 39q-3 13 0 16t17 1q5 -1 21 -1q25 0 35 7.5t10 26.5q0 21 -11 29t-38 8q-17 0 -32 -3q-19 -4 -19 16v6q0 11 3.5 15.5t14.5 6.5q22 5 40 5q51 0 75 -19.5t24 -63.5q0 -78 -90 -67l6 -22q3 -10 -8 -10h-25q-10 0 -13 10z" />
    <glyph glyph-name="ehookabove" unicode="&#x1ebb;" horiz-adv-x="514" 
d="M465 303q0 -35 -3 -54q-2 -19 -9 -25t-27 -6h-302v-30q0 -68 36.5 -97.5t119.5 -29.5q69 0 136 19q18 5 25 -1t7 -25v-9q0 -16 -5.5 -23t-25.5 -13q-61 -19 -137 -19q-120 0 -175.5 49.5t-55.5 159.5v93q0 211 211 211q100 0 152.5 -51t52.5 -149zM124 314v-33h270v33
q0 122 -135 122t-135 -122zM227 557l-10 39q-3 13 0 16t17 1q5 -1 21 -1q25 0 35 7.5t10 26.5q0 21 -11 29t-38 8q-17 0 -32 -3q-19 -4 -19 16v6q0 11 3.5 15.5t14.5 6.5q22 5 40 5q51 0 75 -19.5t24 -63.5q0 -78 -90 -67l6 -22q3 -10 -8 -10h-25q-10 0 -13 10z" />
    <glyph glyph-name="Etilde" unicode="&#x1ebc;" horiz-adv-x="542" 
d="M427 302h-273v-182q0 -25 11 -36t36 -11h266q19 0 25 -6t6 -25v-11q0 -19 -6 -25t-25 -6h-283q-57 0 -82.5 26t-25.5 82v434q0 56 25.5 82t82.5 26h283q19 0 25 -6t6 -25v-11q0 -19 -6 -25t-25 -6h-266q-25 0 -36 -11t-11 -36v-155h273q19 0 25 -6t6 -25v-11
q0 -19 -6 -25t-25 -6zM164 715h-7q-13 0 -17.5 4t-3.5 15q8 90 87 90q33 0 77 -32t60 -32q29 0 34 38q1 11 5.5 15t17.5 4h6q13 0 17.5 -4t3.5 -15q-6 -90 -87 -90q-33 0 -77 32t-59 32q-29 0 -34 -38q-1 -11 -5.5 -15t-17.5 -4z" />
    <glyph glyph-name="etilde" unicode="&#x1ebd;" horiz-adv-x="514" 
d="M465 303q0 -35 -3 -54q-2 -19 -9 -25t-27 -6h-302v-30q0 -68 36.5 -97.5t119.5 -29.5q69 0 136 19q18 5 25 -1t7 -25v-9q0 -16 -5.5 -23t-25.5 -13q-61 -19 -137 -19q-120 0 -175.5 49.5t-55.5 159.5v93q0 211 211 211q100 0 152.5 -51t52.5 -149zM124 314v-33h270v33
q0 122 -135 122t-135 -122zM133 566h-7q-13 0 -17.5 4t-3.5 15q7 90 87 90q33 0 77 -32t60 -32q29 0 34 38q1 11 5.5 15t17.5 4h6q13 0 17.5 -4t3.5 -15q-6 -90 -87 -90q-33 0 -77 32t-59 32q-29 0 -34 -38q-1 -11 -5.5 -15t-17.5 -4z" />
    <glyph glyph-name="Ecircumflexacute" unicode="&#x1ebe;" horiz-adv-x="542" 
d="M427 302h-273v-182q0 -25 11 -36t36 -11h266q19 0 25 -6t6 -25v-11q0 -19 -6 -25t-25 -6h-283q-57 0 -82.5 26t-25.5 82v434q0 56 25.5 82t82.5 26h283q19 0 25 -6t6 -25v-11q0 -19 -6 -25t-25 -6h-266q-25 0 -36 -11t-11 -36v-155h273q19 0 25 -6t6 -25v-11
q0 -19 -6 -25t-25 -6zM182 724l38 59q19 29 33 39t38 10q25 0 39 -10t32 -39l38 -59q9 -14 6 -18.5t-19 -4.5h-8q-27 0 -41 23l-23 39q-24 42 -48 0l-22 -39q-14 -23 -41 -23h-9q-16 0 -18.5 4.5t5.5 18.5zM526 905l-50 -83q-15 -24 -43 -24h-10q-16 0 -19 5t4 20l42 81
q10 18 20 24t30 6h10q20 0 23.5 -6t-7.5 -23z" />
    <glyph glyph-name="ecircumflexacute" unicode="&#x1ebf;" horiz-adv-x="514" 
d="M465 303q0 -35 -3 -54q-2 -19 -9 -25t-27 -6h-302v-30q0 -68 36.5 -97.5t119.5 -29.5q69 0 136 19q18 5 25 -1t7 -25v-9q0 -16 -5.5 -23t-25.5 -13q-61 -19 -137 -19q-120 0 -175.5 49.5t-55.5 159.5v93q0 211 211 211q100 0 152.5 -51t52.5 -149zM124 314v-33h270v33
q0 122 -135 122t-135 -122zM142 575l38 59q19 29 33 39t38 10q25 0 39 -10t32 -39l38 -59q9 -13 6 -18t-19 -5h-8q-27 0 -41 23l-23 39q-24 42 -48 0l-22 -39q-14 -23 -41 -23h-9q-16 0 -18.5 5t5.5 18zM486 756l-50 -83q-15 -24 -43 -24h-10q-16 0 -19 5t4 20l42 81
q10 18 20 24t30 6h10q20 0 23.5 -6t-7.5 -23z" />
    <glyph glyph-name="Ecircumflexgrave" unicode="&#x1ec0;" horiz-adv-x="542" 
d="M427 302h-273v-182q0 -25 11 -36t36 -11h266q19 0 25 -6t6 -25v-11q0 -19 -6 -25t-25 -6h-283q-57 0 -82.5 26t-25.5 82v434q0 56 25.5 82t82.5 26h283q19 0 25 -6t6 -25v-11q0 -19 -6 -25t-25 -6h-266q-25 0 -36 -11t-11 -36v-155h273q19 0 25 -6t6 -25v-11
q0 -19 -6 -25t-25 -6zM182 724l38 59q19 29 33 39t38 10q25 0 39 -10t32 -39l38 -59q9 -14 6 -18.5t-19 -4.5h-8q-27 0 -41 23l-23 39q-24 42 -48 0l-22 -39q-14 -23 -41 -23h-9q-16 0 -18.5 4.5t5.5 18.5zM111 822l-50 83q-11 17 -7.5 23t23.5 6h10q20 0 30 -6t20 -24
l42 -81q8 -15 5 -20t-20 -5h-10q-28 0 -43 24z" />
    <glyph glyph-name="ecircumflexgrave" unicode="&#x1ec1;" horiz-adv-x="514" 
d="M465 303q0 -35 -3 -54q-2 -19 -9 -25t-27 -6h-302v-30q0 -68 36.5 -97.5t119.5 -29.5q69 0 136 19q18 5 25 -1t7 -25v-9q0 -16 -5.5 -23t-25.5 -13q-61 -19 -137 -19q-120 0 -175.5 49.5t-55.5 159.5v93q0 211 211 211q100 0 152.5 -51t52.5 -149zM124 314v-33h270v33
q0 122 -135 122t-135 -122zM142 575l38 59q19 29 33 39t38 10q25 0 39 -10t32 -39l38 -59q9 -13 6 -18t-19 -5h-8q-27 0 -41 23l-23 39q-24 42 -48 0l-22 -39q-14 -23 -41 -23h-9q-16 0 -18.5 5t5.5 18zM71 673l-50 83q-11 17 -7.5 23t23.5 6h10q20 0 30 -6t20 -24l42 -81
q8 -15 5 -20t-20 -5h-10q-28 0 -43 24z" />
    <glyph glyph-name="Ecircumflexhookabove" unicode="&#x1ec2;" horiz-adv-x="542" 
d="M427 302h-273v-182q0 -25 11 -36t36 -11h266q19 0 25 -6t6 -25v-11q0 -19 -6 -25t-25 -6h-283q-57 0 -82.5 26t-25.5 82v434q0 56 25.5 82t82.5 26h283q19 0 25 -6t6 -25v-11q0 -19 -6 -25t-25 -6h-266q-25 0 -36 -11t-11 -36v-155h273q19 0 25 -6t6 -25v-11
q0 -19 -6 -25t-25 -6zM182 724l38 59q19 29 33 39t38 10q25 0 39 -10t32 -39l38 -59q9 -14 6 -18.5t-19 -4.5h-8q-27 0 -41 23l-23 39q-24 42 -48 0l-22 -39q-14 -23 -41 -23h-9q-16 0 -18.5 4.5t5.5 18.5zM405 806l-10 39q-3 13 0 16t17 1q5 -1 21 -1q25 0 35 7.5t10 26.5
q0 21 -11 29t-38 8q-17 0 -32 -3q-19 -4 -19 16v6q0 11 3.5 15.5t14.5 6.5q22 5 40 5q51 0 75 -19.5t24 -63.5q0 -77 -90 -67l6 -22q3 -10 -8 -10h-25q-10 0 -13 10z" />
    <glyph glyph-name="ecircumflexhookabove" unicode="&#x1ec3;" horiz-adv-x="514" 
d="M465 303q0 -35 -3 -54q-2 -19 -9 -25t-27 -6h-302v-30q0 -68 36.5 -97.5t119.5 -29.5q69 0 136 19q18 5 25 -1t7 -25v-9q0 -16 -5.5 -23t-25.5 -13q-61 -19 -137 -19q-120 0 -175.5 49.5t-55.5 159.5v93q0 211 211 211q100 0 152.5 -51t52.5 -149zM124 314v-33h270v33
q0 122 -135 122t-135 -122zM142 575l38 59q19 29 33 39t38 10q25 0 39 -10t32 -39l38 -59q9 -13 6 -18t-19 -5h-8q-27 0 -41 23l-23 39q-24 42 -48 0l-22 -39q-14 -23 -41 -23h-9q-16 0 -18.5 5t5.5 18zM365 657l-10 39q-3 13 0 16t17 1q5 -1 21 -1q25 0 35 7.5t10 26.5
q0 21 -11 29t-38 8q-17 0 -32 -3q-19 -4 -19 16v6q0 11 3.5 15.5t14.5 6.5q22 5 40 5q51 0 75 -19.5t24 -63.5q0 -78 -90 -67l6 -22q3 -10 -8 -10h-25q-10 0 -13 10z" />
    <glyph glyph-name="Ecircumflextilde" unicode="&#x1ec4;" horiz-adv-x="542" 
d="M427 302h-273v-182q0 -25 11 -36t36 -11h266q19 0 25 -6t6 -25v-11q0 -19 -6 -25t-25 -6h-283q-57 0 -82.5 26t-25.5 82v434q0 56 25.5 82t82.5 26h283q19 0 25 -6t6 -25v-11q0 -19 -6 -25t-25 -6h-266q-25 0 -36 -11t-11 -36v-155h273q19 0 25 -6t6 -25v-11
q0 -19 -6 -25t-25 -6zM182 724l38 59q19 29 33 39t38 10q25 0 39 -10t32 -39l38 -59q9 -14 6 -18.5t-19 -4.5h-8q-27 0 -41 23l-23 39q-24 42 -48 0l-22 -39q-14 -23 -41 -23h-9q-16 0 -18.5 4.5t5.5 18.5zM162 855h-7q-13 0 -17.5 4t-3.5 15q8 90 87 90q33 0 77 -32t60 -32
q29 0 34 38q1 11 5.5 15t17.5 4h6q13 0 17.5 -4t3.5 -15q-6 -90 -87 -90q-33 0 -77 32t-59 32q-29 0 -34 -38q-1 -11 -5.5 -15t-17.5 -4z" />
    <glyph glyph-name="ecircumflextilde" unicode="&#x1ec5;" horiz-adv-x="514" 
d="M465 303q0 -35 -3 -54q-2 -19 -9 -25t-27 -6h-302v-30q0 -68 36.5 -97.5t119.5 -29.5q69 0 136 19q18 5 25 -1t7 -25v-9q0 -16 -5.5 -23t-25.5 -13q-61 -19 -137 -19q-120 0 -175.5 49.5t-55.5 159.5v93q0 211 211 211q100 0 152.5 -51t52.5 -149zM124 314v-33h270v33
q0 122 -135 122t-135 -122zM142 575l38 59q19 29 33 39t38 10q25 0 39 -10t32 -39l38 -59q9 -13 6 -18t-19 -5h-8q-27 0 -41 23l-23 39q-24 42 -48 0l-22 -39q-14 -23 -41 -23h-9q-16 0 -18.5 5t5.5 18zM122 706h-7q-13 0 -17.5 4t-3.5 15q8 90 87 90q33 0 77 -32t60 -32
q29 0 34 38q1 11 5.5 15t17.5 4h6q13 0 17.5 -4t3.5 -15q-6 -90 -87 -90q-33 0 -77 32t-59 32q-29 0 -34 -38q-1 -11 -5.5 -15t-17.5 -4z" />
    <glyph glyph-name="Ecircumflexdotbelow" unicode="&#x1ec6;" horiz-adv-x="542" 
d="M427 302h-273v-182q0 -25 11 -36t36 -11h266q19 0 25 -6t6 -25v-11q0 -19 -6 -25t-25 -6h-283q-57 0 -82.5 26t-25.5 82v434q0 56 25.5 82t82.5 26h283q19 0 25 -6t6 -25v-11q0 -19 -6 -25t-25 -6h-266q-25 0 -36 -11t-11 -36v-155h273q19 0 25 -6t6 -25v-11
q0 -19 -6 -25t-25 -6zM287 -157q-21 0 -35 14t-14 35t14 35t35 14t35 -14t14 -35t-14 -35t-35 -14zM182 724l38 59q19 29 33 39t38 10q25 0 39 -10t32 -39l38 -59q9 -14 6 -18.5t-19 -4.5h-8q-27 0 -41 23l-23 39q-24 42 -48 0l-22 -39q-14 -23 -41 -23h-9q-16 0 -18.5 4.5
t5.5 18.5z" />
    <glyph glyph-name="ecircumflexdotbelow" unicode="&#x1ec7;" horiz-adv-x="514" 
d="M465 303q0 -35 -3 -54q-2 -19 -9 -25t-27 -6h-302v-30q0 -68 36.5 -97.5t119.5 -29.5q69 0 136 19q18 5 25 -1t7 -25v-9q0 -16 -5.5 -23t-25.5 -13q-61 -19 -137 -19q-120 0 -175.5 49.5t-55.5 159.5v93q0 211 211 211q100 0 152.5 -51t52.5 -149zM124 314v-33h270v33
q0 122 -135 122t-135 -122zM267 -157q-21 0 -35 14t-14 35t14 35t35 14t35 -14t14 -35t-14 -35t-35 -14zM142 575l38 59q19 29 33 39t38 10q25 0 39 -10t32 -39l38 -59q9 -13 6 -18t-19 -5h-8q-27 0 -41 23l-23 39q-24 42 -48 0l-22 -39q-14 -23 -41 -23h-9q-16 0 -18.5 5
t5.5 18z" />
    <glyph glyph-name="Ihookabove" unicode="&#x1ec8;" horiz-adv-x="242" 
d="M82 34v582q0 20 7 27t27 7h10q20 0 27 -7t7 -27v-582q0 -20 -7 -27t-27 -7h-10q-20 0 -27 7t-7 27zM83 707l-10 39q-3 13 0 16t17 1q5 -1 21 -1q25 0 35 7.5t10 26.5q0 21 -11 29t-38 8q-17 0 -32 -3q-19 -4 -19 16v6q0 11 3.5 15.5t14.5 6.5q22 5 40 5q51 0 75 -19.5
t24 -63.5q0 -78 -90 -67l6 -22q3 -10 -8 -10h-25q-10 0 -13 10z" />
    <glyph glyph-name="ihookabove" unicode="&#x1ec9;" horiz-adv-x="218" 
d="M72 32v429q0 19 6 25.5t26 6.5h11q19 0 25.5 -6.5t6.5 -25.5v-429q0 -20 -6.5 -26t-25.5 -6h-11q-20 0 -26 6t-6 26zM67 557l-10 39q-3 13 0 16t17 1q5 -1 21 -1q25 0 35 7.5t10 26.5q0 21 -11 29t-38 8q-17 0 -32 -3q-19 -4 -19 16v6q0 11 3.5 15.5t14.5 6.5q22 5 40 5
q51 0 75 -19.5t24 -63.5q0 -78 -90 -67l6 -22q3 -10 -8 -10h-25q-10 0 -13 10z" />
    <glyph glyph-name="Idotbelow" unicode="&#x1eca;" horiz-adv-x="242" 
d="M82 34v582q0 20 7 27t27 7h10q20 0 27 -7t7 -27v-582q0 -20 -7 -27t-27 -7h-10q-20 0 -27 7t-7 27zM120 -157q-21 0 -35 14t-14 35t14 35t35 14t35 -14t14 -35t-14 -35t-35 -14z" />
    <glyph glyph-name="idotbelow" unicode="&#x1ecb;" horiz-adv-x="218" 
d="M72 32v429q0 19 6 25.5t26 6.5h11q19 0 25.5 -6.5t6.5 -25.5v-429q0 -20 -6.5 -26t-25.5 -6h-11q-20 0 -26 6t-6 26zM110 696q20 0 34 -14.5t14 -34.5t-14 -34t-34 -14q-21 0 -35.5 14t-14.5 34t14.5 34.5t35.5 14.5zM109 -157q-21 0 -35 14t-14 35t14 35t35 14t35 -14
t14 -35t-14 -35t-35 -14z" />
    <glyph glyph-name="Odotbelow" unicode="&#x1ecc;" 
d="M488 251v146q0 101 -36 144q-36 45 -141 45t-141 -45q-36 -43 -36 -144v-146q0 -99 36 -144q36 -44 141 -44t141 44q36 45 36 144zM311 -10q-144 0 -200 65q-55 64 -55 196v146q0 131 56 196t199 65t199 -65t56 -196v-146q0 -131 -56 -196t-199 -65zM307 -157
q-21 0 -35 14t-14 35t14 35t35 14t35 -14t14 -35t-14 -35t-35 -14z" />
    <glyph glyph-name="odotbelow" unicode="&#x1ecd;" horiz-adv-x="536" 
d="M412 200v93q0 75 -32 107t-111 32q-80 0 -112.5 -32t-32.5 -107v-93q0 -75 32.5 -107t112.5 -32q79 0 111 32t32 107zM269 -10q-114 0 -167 52t-53 158v93q0 210 220 210q113 0 165.5 -52t52.5 -158v-93q0 -210 -218 -210zM269 -157q-21 0 -35 14t-14 35t14 35t35 14
t35 -14t14 -35t-14 -35t-35 -14z" />
    <glyph glyph-name="Ohookabove" unicode="&#x1ece;" 
d="M488 251v146q0 101 -36 144q-36 45 -141 45t-141 -45q-36 -43 -36 -144v-146q0 -99 36 -144q36 -44 141 -44t141 44q36 45 36 144zM311 -10q-144 0 -200 65q-55 64 -55 196v146q0 131 56 196t199 65t199 -65t56 -196v-146q0 -131 -56 -196t-199 -65zM273 707l-10 39
q-3 13 0 16t17 1q5 -1 21 -1q25 0 35 7.5t10 26.5q0 21 -11 29t-38 8q-17 0 -32 -3q-19 -4 -19 16v6q0 11 3.5 15.5t14.5 6.5q22 5 40 5q51 0 75 -19.5t24 -63.5q0 -78 -90 -67l6 -22q3 -10 -8 -10h-25q-10 0 -13 10z" />
    <glyph glyph-name="ohookabove" unicode="&#x1ecf;" horiz-adv-x="536" 
d="M412 200v93q0 75 -32 107t-111 32q-80 0 -112.5 -32t-32.5 -107v-93q0 -75 32.5 -107t112.5 -32q79 0 111 32t32 107zM269 -10q-114 0 -167 52t-53 158v93q0 210 220 210q113 0 165.5 -52t52.5 -158v-93q0 -210 -218 -210zM227 557l-10 39q-3 13 0 16t17 1q5 -1 21 -1
q25 0 35 7.5t10 26.5q0 21 -11 29t-38 8q-17 0 -32 -3q-19 -4 -19 16v6q0 11 3.5 15.5t14.5 6.5q22 5 40 5q51 0 75 -19.5t24 -63.5q0 -78 -90 -67l6 -22q3 -10 -8 -10h-25q-10 0 -13 10z" />
    <glyph glyph-name="Ocircumflexacute" unicode="&#x1ed0;" 
d="M488 251v146q0 101 -36 144q-36 45 -141 45t-141 -45q-36 -43 -36 -144v-146q0 -99 36 -144q36 -44 141 -44t141 44q36 45 36 144zM311 -10q-144 0 -200 65q-55 64 -55 196v146q0 131 56 196t199 65t199 -65t56 -196v-146q0 -131 -56 -196t-199 -65zM202 724l38 59
q19 29 33 39t38 10q25 0 39 -10t32 -39l38 -59q9 -14 6 -18.5t-19 -4.5h-8q-27 0 -41 23l-23 39q-24 42 -48 0l-22 -39q-14 -23 -41 -23h-9q-16 0 -18.5 4.5t5.5 18.5zM546 905l-50 -83q-15 -24 -43 -24h-10q-16 0 -19 5t4 20l42 81q10 18 20 24t30 6h10q20 0 23.5 -6
t-7.5 -23z" />
    <glyph glyph-name="ocircumflexacute" unicode="&#x1ed1;" horiz-adv-x="536" 
d="M412 200v93q0 75 -32 107t-111 32q-80 0 -112.5 -32t-32.5 -107v-93q0 -75 32.5 -107t112.5 -32q79 0 111 32t32 107zM269 -10q-114 0 -167 52t-53 158v93q0 210 220 210q113 0 165.5 -52t52.5 -158v-93q0 -210 -218 -210zM160 575l38 59q19 29 33 39t38 10q25 0 39 -10
t32 -39l38 -59q9 -13 6 -18t-19 -5h-8q-27 0 -41 23l-23 39q-24 42 -48 0l-22 -39q-14 -23 -41 -23h-9q-16 0 -18.5 5t5.5 18zM504 756l-50 -83q-15 -24 -43 -24h-10q-16 0 -19 5t4 20l42 81q10 18 20 24t30 6h10q20 0 23.5 -6t-7.5 -23z" />
    <glyph glyph-name="Ocircumflexgrave" unicode="&#x1ed2;" 
d="M488 251v146q0 101 -36 144q-36 45 -141 45t-141 -45q-36 -43 -36 -144v-146q0 -99 36 -144q36 -44 141 -44t141 44q36 45 36 144zM311 -10q-144 0 -200 65q-55 64 -55 196v146q0 131 56 196t199 65t199 -65t56 -196v-146q0 -131 -56 -196t-199 -65zM202 724l38 59
q19 29 33 39t38 10q25 0 39 -10t32 -39l38 -59q9 -14 6 -18.5t-19 -4.5h-8q-27 0 -41 23l-23 39q-24 42 -48 0l-22 -39q-14 -23 -41 -23h-9q-16 0 -18.5 4.5t5.5 18.5zM131 822l-50 83q-11 17 -7.5 23t23.5 6h10q20 0 30 -6t20 -24l42 -81q8 -15 5 -20t-20 -5h-10
q-28 0 -43 24z" />
    <glyph glyph-name="ocircumflexgrave" unicode="&#x1ed3;" horiz-adv-x="536" 
d="M412 200v93q0 75 -32 107t-111 32q-80 0 -112.5 -32t-32.5 -107v-93q0 -75 32.5 -107t112.5 -32q79 0 111 32t32 107zM269 -10q-114 0 -167 52t-53 158v93q0 210 220 210q113 0 165.5 -52t52.5 -158v-93q0 -210 -218 -210zM160 575l38 59q19 29 33 39t38 10q25 0 39 -10
t32 -39l38 -59q9 -13 6 -18t-19 -5h-8q-27 0 -41 23l-23 39q-24 42 -48 0l-22 -39q-14 -23 -41 -23h-9q-16 0 -18.5 5t5.5 18zM89 673l-50 83q-11 17 -7.5 23t23.5 6h10q20 0 30 -6t20 -24l42 -81q8 -15 5 -20t-20 -5h-10q-28 0 -43 24z" />
    <glyph glyph-name="Ocircumflexhookabove" unicode="&#x1ed4;" 
d="M488 251v146q0 101 -36 144q-36 45 -141 45t-141 -45q-36 -43 -36 -144v-146q0 -99 36 -144q36 -44 141 -44t141 44q36 45 36 144zM311 -10q-144 0 -200 65q-55 64 -55 196v146q0 131 56 196t199 65t199 -65t56 -196v-146q0 -131 -56 -196t-199 -65zM202 724l38 59
q19 29 33 39t38 10q25 0 39 -10t32 -39l38 -59q9 -14 6 -18.5t-19 -4.5h-8q-27 0 -41 23l-23 39q-24 42 -48 0l-22 -39q-14 -23 -41 -23h-9q-16 0 -18.5 4.5t5.5 18.5zM425 806l-10 39q-3 13 0 16t17 1q5 -1 21 -1q25 0 35 7.5t10 26.5q0 21 -11 29t-38 8q-17 0 -32 -3
q-19 -4 -19 16v6q0 11 3.5 15.5t14.5 6.5q22 5 40 5q51 0 75 -19.5t24 -63.5q0 -77 -90 -67l6 -22q3 -10 -8 -10h-25q-10 0 -13 10z" />
    <glyph glyph-name="ocircumflexhookabove" unicode="&#x1ed5;" horiz-adv-x="536" 
d="M412 200v93q0 75 -32 107t-111 32q-80 0 -112.5 -32t-32.5 -107v-93q0 -75 32.5 -107t112.5 -32q79 0 111 32t32 107zM269 -10q-114 0 -167 52t-53 158v93q0 210 220 210q113 0 165.5 -52t52.5 -158v-93q0 -210 -218 -210zM160 575l38 59q19 29 33 39t38 10q25 0 39 -10
t32 -39l38 -59q9 -13 6 -18t-19 -5h-8q-27 0 -41 23l-23 39q-24 42 -48 0l-22 -39q-14 -23 -41 -23h-9q-16 0 -18.5 5t5.5 18zM383 657l-10 39q-3 13 0 16t17 1q5 -1 21 -1q25 0 35 7.5t10 26.5q0 21 -11 29t-38 8q-17 0 -32 -3q-19 -4 -19 16v6q0 11 3.5 15.5t14.5 6.5
q22 5 40 5q51 0 75 -19.5t24 -63.5q0 -78 -90 -67l6 -22q3 -10 -8 -10h-25q-10 0 -13 10z" />
    <glyph glyph-name="Ocircumflextilde" unicode="&#x1ed6;" 
d="M488 251v146q0 101 -36 144q-36 45 -141 45t-141 -45q-36 -43 -36 -144v-146q0 -99 36 -144q36 -44 141 -44t141 44q36 45 36 144zM311 -10q-144 0 -200 65q-55 64 -55 196v146q0 131 56 196t199 65t199 -65t56 -196v-146q0 -131 -56 -196t-199 -65zM202 724l38 59
q19 29 33 39t38 10q25 0 39 -10t32 -39l38 -59q9 -14 6 -18.5t-19 -4.5h-8q-27 0 -41 23l-23 39q-24 42 -48 0l-22 -39q-14 -23 -41 -23h-9q-16 0 -18.5 4.5t5.5 18.5zM182 855h-7q-13 0 -17.5 4t-3.5 15q8 90 87 90q33 0 77 -32t60 -32q29 0 34 38q1 11 5.5 15t17.5 4h6
q13 0 17.5 -4t3.5 -15q-6 -90 -87 -90q-33 0 -77 32t-59 32q-29 0 -34 -38q-1 -11 -5.5 -15t-17.5 -4z" />
    <glyph glyph-name="ocircumflextilde" unicode="&#x1ed7;" horiz-adv-x="536" 
d="M412 200v93q0 75 -32 107t-111 32q-80 0 -112.5 -32t-32.5 -107v-93q0 -75 32.5 -107t112.5 -32q79 0 111 32t32 107zM269 -10q-114 0 -167 52t-53 158v93q0 210 220 210q113 0 165.5 -52t52.5 -158v-93q0 -210 -218 -210zM160 575l38 59q19 29 33 39t38 10q25 0 39 -10
t32 -39l38 -59q9 -13 6 -18t-19 -5h-8q-27 0 -41 23l-23 39q-24 42 -48 0l-22 -39q-14 -23 -41 -23h-9q-16 0 -18.5 5t5.5 18zM140 706h-7q-13 0 -17.5 4t-3.5 15q8 90 87 90q33 0 77 -32t60 -32q29 0 34 38q1 11 5.5 15t17.5 4h6q13 0 17.5 -4t3.5 -15q-6 -90 -87 -90
q-33 0 -77 32t-59 32q-29 0 -34 -38q-1 -11 -5.5 -15t-17.5 -4z" />
    <glyph glyph-name="Ocircumflexdotbelow" unicode="&#x1ed8;" 
d="M488 251v146q0 101 -36 144q-36 45 -141 45t-141 -45q-36 -43 -36 -144v-146q0 -99 36 -144q36 -44 141 -44t141 44q36 45 36 144zM311 -10q-144 0 -200 65q-55 64 -55 196v146q0 131 56 196t199 65t199 -65t56 -196v-146q0 -131 -56 -196t-199 -65zM202 724l38 59
q19 29 33 39t38 10q25 0 39 -10t32 -39l38 -59q9 -14 6 -18.5t-19 -4.5h-8q-27 0 -41 23l-23 39q-24 42 -48 0l-22 -39q-14 -23 -41 -23h-9q-16 0 -18.5 4.5t5.5 18.5zM307 -157q-21 0 -35 14t-14 35t14 35t35 14t35 -14t14 -35t-14 -35t-35 -14z" />
    <glyph glyph-name="ocircumflexdotbelow" unicode="&#x1ed9;" horiz-adv-x="536" 
d="M412 200v93q0 75 -32 107t-111 32q-80 0 -112.5 -32t-32.5 -107v-93q0 -75 32.5 -107t112.5 -32q79 0 111 32t32 107zM269 -10q-114 0 -167 52t-53 158v93q0 210 220 210q113 0 165.5 -52t52.5 -158v-93q0 -210 -218 -210zM269 -157q-21 0 -35 14t-14 35t14 35t35 14
t35 -14t14 -35t-14 -35t-35 -14zM160 575l38 59q19 29 33 39t38 10q25 0 39 -10t32 -39l38 -59q9 -13 6 -18t-19 -5h-8q-27 0 -41 23l-23 39q-24 42 -48 0l-22 -39q-14 -23 -41 -23h-9q-16 0 -18.5 5t5.5 18z" />
    <glyph glyph-name="Ohornacute" unicode="&#x1eda;" horiz-adv-x="715" 
d="M311 -10q-144 0 -200 65q-55 64 -55 196v146q0 131 56 196t199 65t199 -65q23 -27 36 -64q90 7 90 63q0 24 -6 43q-4 13 2 19t26 6h13q17 0 24.5 -5t12.5 -19q7 -22 7 -57q0 -50 -40.5 -84t-111.5 -41q3 -27 3 -57v-146q0 -131 -56 -196t-199 -65zM488 251v146
q0 101 -36 144q-36 45 -141 45t-141 -45q-36 -43 -36 -144v-146q0 -99 36 -144q36 -44 141 -44t141 44q36 45 36 144zM397 805l-50 -83q-15 -24 -43 -24h-10q-16 0 -19 5t4 20l42 81q10 18 20 24t30 6h10q20 0 23.5 -6t-7.5 -23z" />
    <glyph glyph-name="ohornacute" unicode="&#x1edb;" horiz-adv-x="635" 
d="M269 -10q-114 0 -167 52t-53 158v93q0 210 220 210q178 0 209 -133q78 10 78 62q0 24 -6 43q-4 13 2 19t26 6h13q17 0 24.5 -5t12.5 -19q7 -22 7 -57q0 -49 -39 -82.5t-109 -42.5v-1v-93q0 -210 -218 -210zM412 200v93q0 75 -32 107t-111 32q-80 0 -112.5 -32t-32.5 -107
v-93q0 -75 32.5 -107t112.5 -32q79 0 111 32t32 107zM357 656l-50 -83q-15 -24 -43 -24h-10q-16 0 -19 5t4 20l42 81q10 18 20 24t30 6h10q20 0 23.5 -6t-7.5 -23z" />
    <glyph glyph-name="Ohorngrave" unicode="&#x1edc;" horiz-adv-x="715" 
d="M311 -10q-144 0 -200 65q-55 64 -55 196v146q0 131 56 196t199 65t199 -65q23 -27 36 -64q90 7 90 63q0 24 -6 43q-4 13 2 19t26 6h13q17 0 24.5 -5t12.5 -19q7 -22 7 -57q0 -50 -40.5 -84t-111.5 -41q3 -27 3 -57v-146q0 -131 -56 -196t-199 -65zM488 251v146
q0 101 -36 144q-36 45 -141 45t-141 -45q-36 -43 -36 -144v-146q0 -99 36 -144q36 -44 141 -44t141 44q36 45 36 144zM274 722l-50 83q-11 17 -7.5 23t23.5 6h10q20 0 30 -6t20 -24l42 -81q8 -15 5 -20t-20 -5h-10q-28 0 -43 24z" />
    <glyph glyph-name="ohorngrave" unicode="&#x1edd;" horiz-adv-x="635" 
d="M269 -10q-114 0 -167 52t-53 158v93q0 210 220 210q178 0 209 -133q78 10 78 62q0 24 -6 43q-4 13 2 19t26 6h13q17 0 24.5 -5t12.5 -19q7 -22 7 -57q0 -49 -39 -82.5t-109 -42.5v-1v-93q0 -210 -218 -210zM412 200v93q0 75 -32 107t-111 32q-80 0 -112.5 -32t-32.5 -107
v-93q0 -75 32.5 -107t112.5 -32q79 0 111 32t32 107zM231 573l-50 83q-11 17 -7.5 23t23.5 6h10q20 0 30 -6t20 -24l42 -81q5 -10 5.5 -15.5t-4.5 -7.5t-16 -2h-10q-28 0 -43 24z" />
    <glyph glyph-name="Ohornhookabove" unicode="&#x1ede;" horiz-adv-x="715" 
d="M311 -10q-144 0 -200 65q-55 64 -55 196v146q0 131 56 196t199 65t199 -65q23 -27 36 -64q90 7 90 63q0 24 -6 43q-4 13 2 19t26 6h13q17 0 24.5 -5t12.5 -19q7 -22 7 -57q0 -50 -40.5 -84t-111.5 -41q3 -27 3 -57v-146q0 -131 -56 -196t-199 -65zM488 251v146
q0 101 -36 144q-36 45 -141 45t-141 -45q-36 -43 -36 -144v-146q0 -99 36 -144q36 -44 141 -44t141 44q36 45 36 144zM273 707l-10 39q-3 13 0 16t17 1q5 -1 21 -1q25 0 35 7.5t10 26.5q0 21 -11 29t-38 8q-17 0 -32 -3q-19 -4 -19 16v6q0 11 3.5 15.5t14.5 6.5q22 5 40 5
q51 0 75 -19.5t24 -63.5q0 -78 -90 -67l6 -22q3 -10 -8 -10h-25q-10 0 -13 10z" />
    <glyph glyph-name="ohornhookabove" unicode="&#x1edf;" horiz-adv-x="635" 
d="M269 -10q-114 0 -167 52t-53 158v93q0 210 220 210q178 0 209 -133q78 10 78 62q0 24 -6 43q-4 13 2 19t26 6h13q17 0 24.5 -5t12.5 -19q7 -22 7 -57q0 -49 -39 -82.5t-109 -42.5v-1v-93q0 -210 -218 -210zM412 200v93q0 75 -32 107t-111 32q-80 0 -112.5 -32t-32.5 -107
v-93q0 -75 32.5 -107t112.5 -32q79 0 111 32t32 107zM227 557l-10 39q-3 13 0 16t17 1q5 -1 21 -1q25 0 35 7.5t10 26.5q0 21 -11 29t-38 8q-17 0 -32 -3q-19 -4 -19 16v6q0 11 3.5 15.5t14.5 6.5q22 5 40 5q51 0 75 -19.5t24 -63.5q0 -78 -90 -67l6 -22q3 -10 -8 -10h-25
q-10 0 -13 10z" />
    <glyph glyph-name="Ohorntilde" unicode="&#x1ee0;" horiz-adv-x="715" 
d="M311 -10q-144 0 -200 65q-55 64 -55 196v146q0 131 56 196t199 65t199 -65q23 -27 36 -64q90 7 90 63q0 24 -6 43q-4 13 2 19t26 6h13q17 0 24.5 -5t12.5 -19q7 -22 7 -57q0 -50 -40.5 -84t-111.5 -41q3 -27 3 -57v-146q0 -131 -56 -196t-199 -65zM488 251v146
q0 101 -36 144q-36 45 -141 45t-141 -45q-36 -43 -36 -144v-146q0 -99 36 -144q36 -44 141 -44t141 44q36 45 36 144zM182 715h-7q-13 0 -17.5 4t-3.5 15q8 90 87 90q31 0 78 -32t59 -32q29 0 34 38q1 11 5.5 15t17.5 4h6q13 0 17.5 -4t3.5 -15q-6 -90 -87 -90q-33 0 -77 32
t-59 32q-29 0 -34 -38q-1 -11 -5.5 -15t-17.5 -4z" />
    <glyph glyph-name="ohorntilde" unicode="&#x1ee1;" horiz-adv-x="635" 
d="M269 -10q-114 0 -167 52t-53 158v93q0 210 220 210q178 0 209 -133q78 10 78 62q0 24 -6 43q-4 13 2 19t26 6h13q17 0 24.5 -5t12.5 -19q7 -22 7 -57q0 -49 -39 -82.5t-109 -42.5v-1v-93q0 -210 -218 -210zM412 200v93q0 75 -32 107t-111 32q-80 0 -112.5 -32t-32.5 -107
v-93q0 -75 32.5 -107t112.5 -32q79 0 111 32t32 107zM143 566h-7q-13 0 -17.5 4t-3.5 15q7 90 87 90q33 0 77 -32t60 -32q29 0 34 38q1 11 5.5 15t17.5 4h6q13 0 17.5 -4t3.5 -15q-6 -90 -87 -90q-33 0 -77 32t-59 32q-29 0 -34 -38q-1 -11 -5.5 -15t-17.5 -4z" />
    <glyph glyph-name="Ohorndotbelow" unicode="&#x1ee2;" horiz-adv-x="715" 
d="M311 -10q-144 0 -200 65q-55 64 -55 196v146q0 131 56 196t199 65t199 -65q23 -27 36 -64q90 7 90 63q0 24 -6 43q-4 13 2 19t26 6h13q17 0 24.5 -5t12.5 -19q7 -22 7 -57q0 -50 -40.5 -84t-111.5 -41q3 -27 3 -57v-146q0 -131 -56 -196t-199 -65zM488 251v146
q0 101 -36 144q-36 45 -141 45t-141 -45q-36 -43 -36 -144v-146q0 -99 36 -144q36 -44 141 -44t141 44q36 45 36 144zM307 -157q-21 0 -35 14t-14 35t14 35t35 14t35 -14t14 -35t-14 -35t-35 -14z" />
    </font>
</defs>
</svg>
